<svg width="50" height="57" viewBox="0 0 50 57" fill="none" xmlns="http://www.w3.org/2000/svg">
<path d="M49.9975 16.5216C49.9971 15.5767 49.795 14.7417 49.3863 14.0251C48.9849 13.3204 48.3837 12.7298 47.5773 12.2629C40.9209 8.42476 34.2581 4.5984 27.6039 0.756386C25.8099 -0.279289 24.0706 -0.241532 22.2899 0.809011C19.6405 2.37152 6.37564 9.97123 2.4229 12.2607C0.795048 13.2031 0.00293448 14.6453 0.00254322 16.5198C0 24.2385 0.00254322 31.9569 0 39.6758C0.000391264 40.5999 0.193871 41.4186 0.584548 42.1245C0.986181 42.8505 1.59577 43.4573 2.42075 43.9348C6.37369 46.2243 19.6403 53.8234 22.2891 55.3863C24.0706 56.4375 25.8099 56.475 27.6045 55.439C34.2589 51.5968 40.9221 47.7706 47.5794 43.9325C48.4044 43.4552 49.014 42.8479 49.4156 42.1225C49.8057 41.4167 49.9996 40.598 50 39.6736C50 39.6736 50 24.2404 49.9975 16.5216Z" fill="#5C8DBC"/>
<path d="M25.0765 28.0225L0.584564 42.1244C0.986197 42.8504 1.59579 43.4572 2.42077 43.9348C6.37371 46.2243 19.6403 53.8234 22.2892 55.3863C24.0706 56.4374 25.81 56.475 27.6045 55.4389C34.2589 51.5967 40.9221 47.7705 47.5795 43.9324C48.4045 43.4551 49.0141 42.8478 49.4157 42.1224L25.0765 28.0225Z" fill="#1A4674"/>
<path d="M17.8223 32.1996C19.2474 34.6876 21.9266 36.3657 25 36.3657C28.0924 36.3657 30.7868 34.6663 32.2047 32.1516L25.0765 28.0225L17.8223 32.1996Z" fill="#1A4674"/>
<path d="M49.9974 16.5219C49.997 15.5769 49.795 14.742 49.3863 14.0254L25.0765 28.0229L49.4156 42.1229C49.8057 41.417 49.9996 40.5983 50 39.6739C50 39.6739 50 24.2407 49.9974 16.5219Z" fill="#1B598E"/>
<path d="M48.6591 29.0302H46.7572V30.9325H44.8549V29.0302H42.9532V27.1285H44.8549V25.2266H46.7572V27.1285H48.6591V29.0302ZM41.7191 29.0302H39.8174V30.9325H37.9154V29.0302H36.0135V27.1285H37.9154V25.2266H39.8174V27.1285H41.7191V29.0302Z" fill="white"/>
<path d="M32.2048 32.1513C30.7868 34.666 28.0924 36.3654 25 36.3654C21.9266 36.3654 19.2475 34.6873 17.8223 32.1992C17.1063 30.9508 16.7303 29.5364 16.7318 28.0972C16.7318 23.531 20.4338 19.8292 25 19.8292C28.0536 19.8292 30.7187 21.4864 32.151 23.949L39.3778 19.7876C36.5053 14.8291 31.1425 11.4932 25 11.4932C15.8296 11.4932 8.39575 18.9272 8.39575 28.0972C8.39575 31.1057 9.19608 33.9269 10.5949 36.3603C13.4601 41.345 18.8382 44.7015 25 44.7015C31.1732 44.7015 36.5597 41.3315 39.4208 36.3322L32.2048 32.1513Z" fill="white"/>
</svg>
