<svg width="50" height="50" viewBox="0 0 50 50" fill="none" xmlns="http://www.w3.org/2000/svg">
<path fill-rule="evenodd" clip-rule="evenodd" d="M17.9124 0.910988C10.6073 1.81523 6.0922 3.96306 5.55372 6.82209C5.45618 7.28538 5.45618 9.87416 5.50292 12.5849C5.60249 16.6407 5.67361 17.6669 6.0414 18.3232C6.43154 19.0812 6.43154 19.2031 6.0414 20.2272C5.67361 21.1802 5.64922 21.9158 5.77114 25.8681C5.87071 28.3613 6.06782 30.7774 6.2385 31.2183C6.4539 31.83 6.4539 32.1693 6.2385 32.661C5.87071 33.4413 5.8443 40.3298 6.1877 42.4025C6.33198 43.3799 6.651 44.1398 7.1143 44.7251C9.29057 47.4358 15.0533 49.0471 23.5248 49.3154C34.0505 49.6588 42.0851 47.6796 43.9911 44.28C44.5032 43.4043 44.5276 43.0121 44.5276 38.5437C44.5276 34.7601 44.4544 33.5612 44.1374 32.8053C43.8204 32.0007 43.8204 31.7324 44.0643 31.2671C44.2858 30.8526 44.3589 29.4383 44.3122 26.0652C44.2614 21.229 44.1902 20.5198 43.6518 19.7395C43.3815 19.3474 43.4059 19.1543 43.6985 18.5427C44.0155 17.9575 44.0907 16.8825 44.0643 12.6092C44.0419 9.57952 43.918 7.06593 43.7473 6.60263C43.0869 4.57672 40.1567 2.71947 36.1781 1.76646C31.2911 0.618379 23.3805 0.254651 17.9124 0.910988Z" fill="#0A0B09"/>
<path d="M22.1633 3.28075C20.3305 3.3539 18.9629 3.32951 19.0361 3.20759C19.2291 2.8906 18.524 2.96375 16.4493 3.47582C12.9543 4.35568 10.8288 5.62568 9.85344 7.48293C9.51003 8.0905 9.14224 8.50503 8.97358 8.43391C8.50825 8.26322 8.07137 10.8764 8.19329 13.1482C8.31115 15.5398 9.21539 17.5657 10.6337 18.6915C11.8042 19.6181 14.2974 20.3272 17.1544 20.4959C19.2047 20.6178 19.3734 20.6686 18.8613 20.9612C18.3492 21.2559 18.4976 21.2782 20.3508 21.327C30.145 21.4997 35.7879 20.8901 39.2565 19.2523C40.15 18.8413 40.7026 18.601 41.0443 18.1867C41.6165 17.493 41.5974 16.3116 41.5974 13.0242C41.5974 8.77528 41.5527 8.38514 41.1118 7.79992C40.5042 7.0176 38.6225 6.30843 36.3 5.94267C33.9591 5.57488 32.7582 5.65006 34.6419 6.01582C38.1775 6.74735 39.6487 7.48293 39.6487 8.48268C39.6487 9.2142 38.4762 9.8746 36.1801 10.4598C34.1054 10.9719 26.5829 11.2178 24.6789 10.8256C22.1633 10.2891 21.1372 8.79967 22.3096 7.31021C22.7709 6.72499 24.0653 6.2109 26.0688 5.79637C26.7048 5.65006 26.7313 5.62568 26.3127 5.33104C25.8981 5.01405 25.8981 4.98966 26.3879 4.72144C26.6784 4.57717 27.9728 4.33129 29.318 4.18499C30.6347 4.03868 31.7361 3.89035 31.7849 3.84158C32.0267 3.59774 24.876 3.18118 22.1633 3.28075Z" fill="#F6CF54"/>
<path d="M9.85344 21.5241C9.85344 22.5238 10.3411 22.9383 12.2451 23.4992C19.1316 25.5759 34.6642 25.3077 39.1102 23.0359C40.0145 22.5726 40.1344 22.4263 40.1344 21.6704C40.1344 20.7417 40.3782 20.5954 40.9614 21.2071C40.9949 21.2403 41.0258 21.2689 41.0544 21.2954C41.102 21.3395 41.1431 21.3776 41.1785 21.4204C41.4031 21.6919 41.3982 22.1534 41.3617 25.5433C41.3591 25.7842 41.3564 26.04 41.3536 26.3115L41.3312 30.4629L40.622 31.1233C39.1102 32.5152 33.8575 33.6125 27.4343 33.9071C19.4729 34.2729 10.3614 32.7123 8.97155 30.7331C8.70129 30.3409 8.62814 29.2904 8.62814 25.9701C8.62814 22.3552 8.67691 21.648 9.04064 21.2579C9.60756 20.6239 9.8514 20.7214 9.8514 21.5261L9.85344 21.5241Z" fill="#F6CF54"/>
<path d="M10.585 35.4941C12.686 37.0303 23.1143 38.0585 30.1714 37.4469C34.0526 37.1035 37.3993 36.4695 39.0107 35.7623C40.0876 35.2746 40.1344 35.1995 40.1344 34.2729C40.1344 33.5881 40.2319 33.2691 40.4757 33.2691C41.3068 33.2691 41.4287 33.9295 41.382 38.4243C41.3556 40.8647 41.2601 42.9922 41.2113 43.1609C41.0142 43.6485 38.9375 44.6747 37.2022 45.1177C34.2497 45.898 31.4862 46.2393 27.0686 46.3856C18.9101 46.6559 11.2413 45.4103 9.16865 43.4799C8.65455 42.9678 8.62814 42.7992 8.62814 38.5462C8.62814 34.3237 8.65455 34.1266 9.19304 33.5637L9.72948 32.9785L9.8514 34.027C9.94894 34.7606 10.144 35.1751 10.5829 35.4941H10.585Z" fill="#F6CF54"/>
</svg>
