<svg width="50" height="68" viewBox="0 0 50 68" fill="none" xmlns="http://www.w3.org/2000/svg">
<path d="M16.1031 52.4293C16.1031 52.4293 13.5125 53.9358 17.9469 54.4456C23.3191 55.0584 26.0646 54.9706 31.9849 53.85C31.9849 53.85 33.5415 54.826 35.715 55.6714C22.4437 61.3592 5.67893 55.3418 16.1031 52.4293ZM14.4814 45.0068C14.4814 45.0068 11.5757 47.1578 16.0134 47.6167C21.7521 48.2087 26.2841 48.2572 34.1263 46.7471C34.1263 46.7471 35.211 47.8467 36.9165 48.4482C20.8704 53.1403 2.998 48.8182 14.4814 45.0068Z" fill="#5382A1"/>
<path d="M28.153 32.4169C31.4231 36.1817 27.2938 39.5697 27.2938 39.5697C27.2938 39.5697 35.597 35.2833 31.7837 29.9156C28.2222 24.9102 25.4909 22.4228 40.2768 13.8477C40.2768 13.8477 17.0679 19.6441 28.153 32.4167" fill="#E76F00"/>
<path d="M45.7055 57.9201C45.7055 57.9201 47.6227 59.4997 43.594 60.7218C35.9336 63.0425 11.7103 63.7433 4.98109 60.8142C2.56221 59.7621 7.09847 58.3017 8.5253 57.9951C10.0134 57.6724 10.8639 57.7327 10.8639 57.7327C8.17374 55.8375 -6.52404 61.4537 3.39821 63.0619C30.4573 67.4502 52.7242 61.0861 45.7055 57.9201ZM17.3487 37.3171C17.3487 37.3171 5.02741 40.2438 12.9856 41.3063C16.3457 41.7562 23.0441 41.6545 29.2835 41.1316C34.3827 40.7017 39.503 39.787 39.503 39.787C39.503 39.787 37.7049 40.557 36.4041 41.4453C23.8918 44.7361 -0.279673 43.2052 6.67899 39.839C12.564 36.9944 17.3489 37.3171 17.3489 37.3171H17.3487ZM39.4521 49.672C52.1717 43.0625 46.2906 36.7109 42.1858 37.5668C41.1797 37.776 40.7311 37.9574 40.7311 37.9574C40.7311 37.9574 41.1047 37.3724 41.818 37.1192C49.9385 34.2642 56.1838 45.5395 39.1965 50.0051C39.1965 50.0053 39.3934 49.8294 39.4521 49.672Z" fill="#5382A1"/>
<path d="M31.7837 0.000196287C31.7837 0.000196287 38.828 7.047 25.1026 17.8824C14.0965 26.5745 22.5929 31.5304 25.0981 37.1928C18.6735 31.3963 13.9587 26.2936 17.1219 21.5446C21.7643 14.5729 34.6258 11.193 31.7837 0" fill="#E76F00"/>
<path d="M18.5987 67.5807C30.8078 68.3623 49.556 67.1471 50 61.3701C50 61.3701 49.1466 63.5603 39.9099 65.2994C29.4893 67.2603 16.637 67.0315 9.0141 65.7746C9.0143 65.7746 10.5746 67.0662 18.5989 67.5807" fill="#5382A1"/>
</svg>
