<svg width="51" height="50" viewBox="0 0 51 50" fill="none" xmlns="http://www.w3.org/2000/svg">
<path d="M40.1966 39.6417C41.9981 38.8797 44.146 38.6024 46.9175 38.6715C46.8395 38.1529 45.8492 37.537 45.1236 37.0858C44.8801 36.9343 44.6664 36.8014 44.527 36.697C43.4184 35.9003 42.2405 35.0685 41.0627 34.3413C40.6833 34.1095 40.137 33.916 39.6114 33.7299C39.2732 33.6101 38.9435 33.4934 38.6723 33.3714C38.3951 33.2584 38.0177 33.1455 37.6101 33.0235C36.6421 32.7339 35.5045 32.3935 35.1386 31.8818C34.1967 30.6571 33.5393 29.1762 32.8828 27.6975C32.815 27.5447 32.7472 27.3919 32.6791 27.2395C32.3355 26.454 31.9532 25.653 31.5687 24.8475C31.1394 23.9479 30.7073 23.0426 30.3234 22.1469C30.1561 21.7821 30.0289 21.4372 29.9037 21.0977C29.7436 20.6636 29.5867 20.2382 29.3534 19.7913C26.8243 14.9067 23.0831 10.8186 18.5448 7.9433C17.0549 7.00789 15.3923 6.1416 13.5561 5.55284C12.9953 5.38469 12.3741 5.35762 11.7468 5.33029C11.2114 5.30696 10.6716 5.28344 10.1611 5.17186H9.43348C9.01344 5.05517 8.64054 4.71835 8.29366 4.40503C8.12561 4.25324 7.96367 4.10696 7.80543 3.99391C6.73137 3.26649 5.65752 2.78118 4.37569 2.26176C3.92538 2.05398 2.64355 1.56889 2.19323 1.9501C1.91591 2.01943 1.77747 2.12332 1.70814 2.40041C1.43104 2.81618 1.6738 3.43971 1.8468 3.82069C2.19018 4.55326 2.62438 5.0892 3.06931 5.63839C3.29771 5.92031 3.52894 6.20573 3.75217 6.52302C3.85879 6.67351 3.96995 6.8274 4.08297 6.98388C4.5943 7.69179 5.14383 8.45259 5.48432 9.19036C5.9648 10.2254 6.30727 11.3196 6.6485 12.4098C6.94688 13.3631 7.24431 14.3133 7.63223 15.2183C7.94388 15.946 8.42897 16.7773 8.87929 17.4356C9.02052 17.6282 9.20465 17.8018 9.39104 17.9775C9.70744 18.2758 10.0304 18.5802 10.1611 18.9945C10.498 19.556 9.8795 21.1637 9.50369 22.1406C9.41572 22.3693 9.34105 22.5633 9.29505 22.7014C8.3942 25.5419 8.56741 29.4913 9.6067 31.9509C9.64385 32.0375 9.68072 32.1256 9.71786 32.2143C10.0964 33.1184 10.5027 34.0888 11.5121 34.3413C11.5435 34.3099 11.5465 34.2999 11.5532 34.295C11.5614 34.2892 11.575 34.291 11.6507 34.272C11.7014 33.8738 11.7446 33.4786 11.7871 33.089C11.9481 31.6143 12.1003 30.2193 12.6207 29.041C12.8686 28.4326 13.2777 27.9414 13.6764 27.4626C13.8906 27.2053 14.1019 26.9517 14.2835 26.6853C14.5034 26.8172 14.5837 27.1164 14.6662 27.4238C14.7137 27.6007 14.7619 27.7804 14.8379 27.9324C14.8706 28.0103 14.9035 28.0889 14.9366 28.1679C15.3591 29.1768 15.8136 30.2621 16.3275 31.258C17.4707 33.4752 18.7528 35.6229 20.2076 37.5631C20.6925 38.2559 21.3855 39.0181 22.0091 39.6416C22.1039 39.7246 22.2028 39.7955 22.3001 39.8652C22.4873 39.9992 22.669 40.1294 22.8058 40.3345H22.8752V40.4386C22.2174 40.1974 21.7124 39.6786 21.2194 39.1723C20.9334 38.8785 20.6514 38.5889 20.346 38.36C18.7871 37.1821 16.9165 35.4151 15.8425 33.7178C15.5042 32.9891 15.1464 32.28 14.7837 31.5611C14.6635 31.323 14.5429 31.0838 14.4222 30.8425C14.4222 30.8425 14.4224 30.8077 14.4222 30.7731C14.2898 30.9497 14.2699 31.1262 14.246 31.3386C14.2323 31.4596 14.2174 31.5922 14.1796 31.7431C14.0512 32.237 13.9876 32.7506 13.9261 33.2471C13.772 34.4915 13.6312 35.6277 12.5168 36.0735C10.7501 36.8011 9.43349 34.8953 8.87929 34.0294C7.11259 31.1541 6.6275 26.3041 7.87456 22.3895C7.97104 22.0882 8.03816 21.7659 8.10509 21.4445C8.23055 20.8422 8.35534 20.2431 8.67152 19.7913C8.60201 19.3749 8.36275 19.1593 8.12893 18.9485C8.01256 18.8436 7.89753 18.7399 7.80545 18.6133C7.32036 17.9552 6.90482 17.193 6.52361 16.4656C5.96971 15.3843 5.53646 14.1422 5.11658 12.9385C4.98489 12.561 4.85451 12.1872 4.72213 11.8234C4.60388 11.5194 4.52685 11.2153 4.45085 10.9152C4.37097 10.5998 4.29223 10.2889 4.16793 9.98733C3.84045 9.27774 3.29816 8.5683 2.79471 7.90965C2.659 7.73211 2.52611 7.55826 2.40101 7.38909C2.26605 7.19542 2.08736 6.97094 1.88816 6.72071C0.911374 5.49364 -0.558411 3.64727 0.21855 1.77689C1.6736 -1.7913 6.76639 0.910596 8.74064 2.15788C8.93807 2.28481 9.14698 2.46908 9.36268 2.65935C9.67698 2.93659 10.0057 3.22655 10.3344 3.37038C10.7675 3.38777 11.2007 3.41375 11.6338 3.43973C12.0668 3.46569 12.4997 3.49166 12.9326 3.50904C13.0744 3.54223 13.2154 3.57489 13.3556 3.60734C14.8245 3.94751 16.1967 4.26526 17.3668 4.92931C23.3255 8.42839 27.2055 11.9966 30.7737 17.8859C31.2581 18.6785 31.5887 19.5131 31.9253 20.3631C32.1183 20.8504 32.3133 21.3429 32.5404 21.8353C33.4065 23.8445 34.3769 25.9574 35.3812 27.863C35.5075 28.1156 35.6256 28.3764 35.7439 28.6377C36.0476 29.3082 36.3528 29.9821 36.8017 30.5306C36.963 30.7612 37.324 30.8842 37.6699 31.0021C37.8437 31.0613 38.0137 31.1193 38.1526 31.1889C38.6007 31.4197 39.086 31.6292 39.5753 31.8404C40.3342 32.168 41.1025 32.4997 41.7556 32.921C43.7648 34.1681 45.705 35.6575 47.4717 37.1821C47.8288 37.5016 48.1248 37.8925 48.4204 38.2828C48.6697 38.612 48.9187 38.9408 49.2038 39.2261V39.5378C48.6496 39.711 48.0952 39.8842 47.541 40.0229C46.938 40.1779 46.3692 40.2386 45.8049 40.2989C45.2346 40.3598 44.6688 40.4203 44.0767 40.5771C44.0021 40.5984 43.9256 40.6205 43.8476 40.643C43.1657 40.8397 42.3703 41.0693 41.6863 41.1315C41.7208 41.166 41.7556 41.2006 41.7556 41.2006C42.0895 42.1511 43.5093 42.9682 44.6729 43.6379C45.0785 43.8714 45.453 44.0869 45.7395 44.2839C47.0907 45.2539 48.3378 46.4318 49.3425 47.7828C49.5152 47.9555 49.688 48.1196 49.8607 48.2837C50.0345 48.4487 50.2082 48.6138 50.3818 48.7875C50.4991 48.9552 50.5759 49.1473 50.6514 49.3362C50.7318 49.5375 50.8109 49.7352 50.936 49.8961V50C50.6329 49.8918 50.4246 49.6753 50.2179 49.4605C50.0938 49.3316 49.9704 49.2032 49.8274 49.0994C49.5011 48.8769 49.1749 48.6353 48.8486 48.3938C48.4128 48.071 47.977 47.7483 47.541 47.4711C46.8707 47.0477 46.1464 46.7142 45.4186 46.379C44.7171 46.0559 44.0122 45.7313 43.3491 45.3232C42.5871 44.8381 41.8595 44.2839 41.1321 43.7297C40.4738 43.2446 39.7466 42.309 39.3306 41.6164C39.2257 41.4517 39.1598 41.2741 39.0962 41.103C39.0128 40.8784 38.9336 40.6652 38.7762 40.5077C38.828 40.0156 39.3061 39.8914 39.7613 39.7731C39.9148 39.7332 40.0656 39.6941 40.1966 39.6417Z" fill="#00546B"/>
<path d="M10.161 8.74004C10.5767 8.63615 10.9923 8.5666 11.5812 8.5666C11.691 8.67649 11.8281 8.76999 11.9664 8.86441C12.1773 9.00828 12.3912 9.15427 12.5166 9.36357C12.5936 9.47133 12.6432 9.57909 12.6928 9.68685C12.7548 9.82163 12.8168 9.95642 12.9324 10.0912C12.9324 10.9225 12.6901 11.4767 12.2048 11.8234C12.2048 11.8234 12.1702 11.8579 12.1357 11.8927C11.9972 11.6159 11.8675 11.3391 11.7377 11.0623C11.6076 10.7847 11.4776 10.5071 11.3387 10.2296C11.2038 10.0408 11.0479 9.86774 10.8915 9.69404C10.6463 9.42166 10.3996 9.14777 10.2303 8.80937H10.161V8.74004Z" fill="#00546B"/>
</svg>
