<svg width="49" height="50" viewBox="0 0 49 50" fill="none" xmlns="http://www.w3.org/2000/svg">
<path fill-rule="evenodd" clip-rule="evenodd" d="M48.3692 29.951C48.0777 29.0683 47.3141 28.4534 46.3266 28.3058C45.861 28.2363 45.3277 28.2659 44.6967 28.3961C43.5969 28.623 42.7809 28.7093 42.1854 28.7261C44.4331 24.931 46.2609 20.6031 47.3131 16.5292C49.0145 9.94193 48.1053 6.94099 47.0429 5.58351C44.2311 1.99078 40.1288 0.0605923 35.1795 0.00142462C32.5395 -0.0307976 30.2217 0.490484 29.0127 0.86525C27.8869 0.666752 26.6764 0.555827 25.4063 0.535281C23.0258 0.497333 20.9222 1.01626 19.1249 2.08285C18.1296 1.74648 16.5327 1.27213 14.6884 0.969327C10.3506 0.257182 6.8547 0.812145 4.29757 2.61861C1.2011 4.80591 -0.23442 8.60611 0.0311044 13.9138C0.115309 15.599 1.05806 20.7262 2.54231 25.5888C3.39535 28.3836 4.30499 30.7046 5.24594 32.4877C6.5803 35.0162 8.00807 36.5053 9.61099 37.0399C10.5095 37.3394 12.1418 37.5489 13.8588 36.1192C14.0764 36.3826 14.3666 36.6445 14.7521 36.8877C15.2413 37.1963 15.8398 37.4485 16.4373 37.5979C18.591 38.1364 20.6083 38.0017 22.3293 37.2471C22.3399 37.5531 22.3481 37.8456 22.355 38.0981C22.3665 38.5078 22.3777 38.9094 22.3928 39.2849C22.4947 41.8248 22.6675 43.7995 23.1795 45.1811C23.2075 45.2573 23.2454 45.373 23.2853 45.4957C23.5406 46.2778 23.9678 47.5869 25.0543 48.6123C26.1796 49.6743 27.5406 50.0001 28.787 50C29.4122 50 30.0087 49.918 30.5317 49.8059C32.3967 49.4063 34.5146 48.7973 36.0467 46.6159C37.4951 44.5535 38.1993 41.4474 38.3267 36.553C38.3432 36.4147 38.3585 36.2825 38.3732 36.1566C38.3831 36.0716 38.3932 35.9847 38.4034 35.898L38.7447 35.928L38.8326 35.9339C40.7321 36.0205 43.0545 35.6177 44.4808 34.9551C45.6079 34.4321 49.2195 32.5254 48.3692 29.951Z" fill="black"/>
<path fill-rule="evenodd" clip-rule="evenodd" d="M45.1215 30.4522C39.4739 31.6172 39.0857 29.7051 39.0857 29.7051C45.0486 20.8571 47.5413 9.6259 45.3901 6.87713C39.5216 -0.620996 29.363 2.92513 29.1935 3.0172L29.1389 3.02696C28.0231 2.79535 26.7744 2.65736 25.371 2.63446C22.8156 2.59258 20.8772 3.30439 19.4063 4.41982C19.4063 4.41982 1.28429 -3.04575 2.12712 13.8092C2.30642 17.3949 7.26651 40.9406 13.1827 33.8287C15.3451 31.2282 17.4344 29.0293 17.4344 29.0293C18.4721 29.7187 19.7144 30.0703 21.0168 29.944L21.1179 29.8581C21.0865 30.181 21.1008 30.4968 21.1584 30.8707C19.6343 32.5735 20.0822 32.8725 17.0355 33.4997C13.9526 34.135 15.7636 35.2662 16.9461 35.5618C18.3796 35.9203 21.696 36.4281 23.9369 33.2912L23.8475 33.6491C24.4447 34.1274 24.864 36.7603 24.7937 39.147C24.7234 41.5338 24.6765 43.1724 25.147 44.4523C25.6176 45.7322 26.0865 48.612 30.0917 47.7538C33.4385 47.0366 35.1728 45.178 35.414 42.0778C35.5852 39.8738 35.9727 40.1996 35.9972 38.2291L36.3079 37.2963C36.6663 34.3086 36.3649 33.3447 38.4268 33.793L38.9278 33.837C40.4454 33.9061 42.4316 33.593 43.5974 33.0511C46.1075 31.8862 47.5963 29.9412 45.1212 30.4522H45.1215Z" fill="#336791"/>
<path fill-rule="evenodd" clip-rule="evenodd" d="M20.4671 15.4118C19.9583 15.341 19.4973 15.4066 19.2641 15.5831C19.1328 15.6824 19.0923 15.7975 19.0814 15.8768C19.0521 16.0866 19.1992 16.3186 19.2894 16.4382C19.545 16.777 19.9184 17.0098 20.288 17.0611C20.3416 17.0685 20.3948 17.0721 20.4478 17.0721C21.0641 17.0721 21.6244 16.5923 21.6738 16.2381C21.7355 15.7945 21.0915 15.4987 20.4671 15.4118Z" fill="white"/>
<path fill-rule="evenodd" clip-rule="evenodd" d="M37.327 15.4263H37.3269C37.2784 15.0786 36.6596 14.9795 36.0724 15.0611C35.4861 15.1428 34.9174 15.4074 34.9649 15.7559C35.0031 16.027 35.4923 16.4896 36.0716 16.4895C36.1204 16.4895 36.1698 16.4863 36.2196 16.4793C36.6063 16.4258 36.89 16.1802 37.0247 16.0386C37.23 15.8231 37.3487 15.5826 37.327 15.4263Z" fill="white"/>
<path fill-rule="evenodd" clip-rule="evenodd" d="M47.0008 30.3188C46.7855 29.6676 46.0924 29.458 44.9408 29.6959C41.5217 30.4015 40.2972 29.9127 39.8951 29.6166C42.5528 25.5678 44.7391 20.674 45.9185 16.1078C46.4773 13.9448 46.7859 11.9362 46.8111 10.299C46.8389 8.50174 46.533 7.1813 45.9016 6.37462C43.3565 3.12254 39.6213 1.37816 35.0998 1.33022C31.9914 1.2953 29.3651 2.09086 28.856 2.31451C27.7838 2.04786 26.6149 1.88417 25.3425 1.86329C23.0089 1.82556 20.992 2.38423 19.3219 3.5229C18.5965 3.253 16.7218 2.60945 14.4293 2.24019C10.4656 1.60192 7.31603 2.08547 5.06833 3.67784C2.38636 5.57794 1.14822 8.97441 1.38815 13.7727C1.46887 15.3872 2.38861 20.3533 3.84029 25.1094C5.75106 31.3692 7.82799 34.913 10.0135 35.6418C10.2692 35.7272 10.5643 35.7869 10.8894 35.7869C11.6867 35.7869 12.664 35.4275 13.681 34.205C15.3701 32.1728 16.9472 30.47 17.5286 29.8513C18.3877 30.3125 19.3313 30.5699 20.2968 30.5958C20.2984 30.621 20.301 30.6463 20.3033 30.6714C20.1096 30.9011 19.9507 31.1024 19.8153 31.2743C19.1465 32.1233 19.0073 32.3 16.8544 32.7434C16.242 32.8697 14.6153 33.205 14.5916 34.3451C14.5657 35.5908 16.5142 36.1139 16.7363 36.1694C17.5099 36.3631 18.2552 36.4586 18.966 36.4586C20.6948 36.4585 22.2159 35.8904 23.4317 34.7912C23.3942 39.2321 23.5795 43.6081 24.1127 44.9415C24.5493 46.0329 25.6162 48.7005 28.9863 48.7003C29.4807 48.7003 30.0251 48.6428 30.6238 48.5145C34.1409 47.7603 35.6681 46.2059 36.259 42.7789C36.5752 40.9474 37.1178 36.5737 37.3729 34.2278C37.9114 34.3957 38.6048 34.4726 39.3544 34.4725C40.9176 34.4725 42.7214 34.1404 43.8527 33.6153C45.1234 33.0252 47.4167 31.5769 47.0008 30.3188ZM38.6251 14.4659C38.6135 15.1585 38.5182 15.7872 38.4171 16.4435C38.3084 17.1494 38.1959 17.8792 38.1676 18.7651C38.1397 19.6272 38.2473 20.5236 38.3515 21.3904C38.5619 23.1412 38.7778 24.9437 37.942 26.7223C37.8121 26.4916 37.6867 26.2399 37.5717 25.9611C37.4678 25.7093 37.2423 25.3048 36.9301 24.7449C35.7148 22.5656 32.8692 17.4624 34.3259 15.38C34.7597 14.76 35.8609 14.1229 38.6251 14.4659ZM35.2746 2.73272C39.3258 2.8222 42.5304 4.33777 44.7995 7.2371C46.5397 9.46099 44.6234 19.5801 39.0759 28.3099C39.0211 28.2403 38.9653 28.17 38.9076 28.0979C38.8846 28.0691 38.8611 28.0397 38.8375 28.0101C40.2709 25.6426 39.9906 23.3003 39.7411 21.2235C39.6386 20.3712 39.5419 19.5662 39.5664 18.8102C39.5919 18.0085 39.6979 17.3213 39.8003 16.6567C39.9264 15.8375 40.0545 14.9901 40.0191 13.991C40.0455 13.8862 40.0562 13.7624 40.0424 13.6154C39.9521 12.6573 38.8583 9.79018 36.6288 7.19477C35.4094 5.77542 33.6309 4.18688 31.2027 3.11546C32.2472 2.899 33.6755 2.69713 35.2746 2.73272ZM12.6048 33.3102C11.4845 34.6572 10.7107 34.3991 10.4563 34.3144C8.79836 33.7613 6.87479 30.2574 5.1788 24.7009C3.71129 19.8931 2.85364 15.0585 2.78583 13.7028C2.5715 9.41532 3.6108 6.42719 5.87501 4.82147C9.55979 2.20832 15.618 3.77239 18.0523 4.56571C18.0173 4.60018 17.9809 4.63251 17.9462 4.66754C13.9517 8.70183 14.0464 15.5945 14.0562 16.0157C14.0559 16.1783 14.0694 16.4084 14.0882 16.7251C14.1569 17.8843 14.2848 20.0419 13.9431 22.4854C13.6255 24.756 14.3254 26.9785 15.8631 28.5828C16.0223 28.7489 16.1885 28.9048 16.3601 29.0516C15.6756 29.7846 14.1881 31.4055 12.6048 33.3102ZM16.8736 27.6144C15.6342 26.3214 15.0714 24.5227 15.3291 22.6792C15.69 20.0979 15.5567 17.8499 15.4852 16.6421C15.4752 16.4732 15.4663 16.3251 15.4611 16.2082C16.0447 15.6909 18.749 14.2418 20.6775 14.6837C21.5577 14.8853 22.0938 15.4845 22.3168 16.5154C23.4707 21.852 22.4696 24.0764 21.6651 25.8638C21.4993 26.232 21.3427 26.5801 21.2089 26.9402L21.1052 27.2186C20.8427 27.9224 20.5985 28.5767 20.4472 29.1982C19.1298 29.1941 17.8481 28.6314 16.8736 27.6144ZM17.0758 34.8117C16.6911 34.7156 16.3451 34.5486 16.1421 34.4102C16.3116 34.3304 16.6134 34.2219 17.1367 34.1141C19.6695 33.5926 20.0605 33.2247 20.9147 32.1401C21.1106 31.8916 21.3326 31.6097 21.64 31.2663C21.6401 31.2661 21.6402 31.266 21.6403 31.2659C22.0983 30.7532 22.3077 30.8401 22.6875 30.9977C22.9953 31.1251 23.2951 31.5109 23.4167 31.9355C23.4742 32.136 23.5389 32.5167 23.3274 32.8128C21.5431 35.3111 18.9431 35.2789 17.0758 34.8117ZM30.3304 47.1461C27.2321 47.8099 26.135 46.229 25.4121 44.4218C24.9455 43.2549 24.7163 37.9935 24.8789 32.1833C24.8811 32.1059 24.8701 32.0313 24.8487 31.9611C24.8302 31.8256 24.8017 31.6885 24.7622 31.5505C24.5201 30.7051 23.9306 29.9979 23.2233 29.7048C22.9422 29.5883 22.4263 29.3747 21.8065 29.5332C21.9387 28.9886 22.168 28.3736 22.4165 27.7076L22.5208 27.4274C22.6382 27.1116 22.7854 26.7844 22.9412 26.4382C23.783 24.5679 24.936 22.0064 23.6847 16.2196C23.216 14.0522 21.6509 12.9938 19.2782 13.2395C17.8557 13.3867 16.5545 13.9607 15.9054 14.2897C15.7659 14.3605 15.6382 14.4287 15.519 14.4953C15.7001 12.3114 16.3846 8.23015 18.9449 5.64799C20.5568 4.02229 22.7037 3.21942 25.3194 3.26265C30.4733 3.34708 33.7782 5.992 35.6434 8.19602C37.2506 10.0953 38.1209 12.0085 38.4683 13.0402C35.8563 12.7747 34.0798 13.2904 33.1791 14.5778C31.22 17.3783 34.251 22.8141 35.7077 25.4265C35.9748 25.9053 36.2054 26.3191 36.278 26.4949C36.7523 27.6445 37.3665 28.412 37.8149 28.9724C37.9523 29.1441 38.0857 29.3106 38.1871 29.456C37.396 29.6841 35.975 30.211 36.1044 32.845C36 34.1668 35.2572 40.3548 34.88 42.5411C34.3819 45.4294 33.319 46.5053 30.3304 47.1461ZM43.2633 32.346C42.4544 32.7215 41.1006 33.0032 39.8146 33.0636C38.3941 33.1302 37.6711 32.9045 37.501 32.7658C37.421 31.1243 38.0321 30.9528 38.6787 30.7712C38.7803 30.7426 38.8794 30.7149 38.9751 30.6814C39.0346 30.7298 39.0997 30.7779 39.171 30.8249C40.3127 31.5785 42.3491 31.6598 45.2239 31.0664C45.2344 31.0642 45.245 31.0621 45.2554 31.06C44.8677 31.4225 44.2042 31.9091 43.2633 32.346Z" fill="white"/>
</svg>
