<svg width="50" height="50" viewBox="0 0 50 50" fill="none" xmlns="http://www.w3.org/2000/svg">
<g clip-path="url(#clip0_1219_303)">
<path d="M24.76 0.195312C12.0975 0.195313 12.8882 5.68656 12.8882 5.68656L12.9023 11.3754H24.9859V13.0835H8.10277C8.10277 13.0835 0 12.1646 0 24.9412C-9.03125e-07 37.7178 7.07228 37.2648 7.07228 37.2648H11.2931V31.3359C11.2931 31.3359 11.0655 24.2636 18.2524 24.2636H30.2372C30.2372 24.2636 36.9706 24.3725 36.9706 17.756V6.81587C36.9706 6.81586 37.993 0.195312 24.76 0.195312ZM18.0971 4.02083C19.2993 4.02083 20.271 4.99252 20.271 6.19475C20.271 7.39697 19.2993 8.36866 18.0971 8.36866C16.8949 8.36866 15.9232 7.39697 15.9232 6.19475C15.9232 4.99252 16.8949 4.02083 18.0971 4.02083Z" fill="url(#paint0_linear_1219_303)"/>
<path d="M25.1196 49.8156C37.7822 49.8156 36.9915 44.3243 36.9915 44.3243L36.9774 38.6355H24.8938V36.9274H41.7769C41.7769 36.9274 49.8797 37.8463 49.8797 25.0697C49.8797 12.293 42.8074 12.7461 42.8074 12.7461H38.5866V18.675C38.5866 18.675 38.8141 25.7473 31.6273 25.7473H19.6425C19.6425 25.7473 12.909 25.6384 12.909 32.2549V43.195C12.909 43.195 11.8867 49.8156 25.1196 49.8156ZM31.7825 45.9901C30.5803 45.9901 29.6086 45.0184 29.6086 43.8161C29.6086 42.6139 30.5803 41.6422 31.7825 41.6422C32.9848 41.6422 33.9565 42.6139 33.9565 43.8161C33.9565 45.0184 32.9848 45.9901 31.7825 45.9901Z" fill="url(#paint1_linear_1219_303)"/>
</g>
<defs>
<linearGradient id="paint0_linear_1219_303" x1="4.79353" y1="4.65849" x2="29.5121" y2="29.1304" gradientUnits="userSpaceOnUse">
<stop stop-color="#387EB8"/>
<stop offset="1" stop-color="#366994"/>
</linearGradient>
<linearGradient id="paint1_linear_1219_303" x1="19.9658" y1="20.3731" x2="46.5109" y2="45.467" gradientUnits="userSpaceOnUse">
<stop stop-color="#FFE052"/>
<stop offset="1" stop-color="#FFC331"/>
</linearGradient>
<clipPath id="clip0_1219_303">
<rect width="50" height="50" fill="white"/>
</clipPath>
</defs>
</svg>
