<svg width="51" height="50" viewBox="0 0 51 50" fill="none" xmlns="http://www.w3.org/2000/svg">
<path d="M25.6533 29.408C28.0879 29.408 30.0614 27.4344 30.0614 24.9999C30.0614 22.5654 28.0879 20.5918 25.6533 20.5918C23.2188 20.5918 21.2452 22.5654 21.2452 24.9999C21.2452 27.4344 23.2188 29.408 25.6533 29.408Z" fill="#61DAFB"/>
<path d="M25.6533 34.0313C38.7167 34.0313 49.3066 29.9878 49.3066 25C49.3066 20.0122 38.7167 15.9688 25.6533 15.9688C12.5899 15.9688 2 20.0122 2 25C2 29.9878 12.5899 34.0313 25.6533 34.0313Z" stroke="#61DAFB" stroke-width="3"/>
<path d="M17.832 29.5156C24.3636 40.8288 33.1603 47.9783 37.4799 45.4844C41.7995 42.9904 40.0063 31.7976 33.4746 20.4844C26.9429 9.17116 18.1462 2.02172 13.8266 4.51563C9.50703 7.00955 11.3003 18.2024 17.832 29.5156Z" stroke="#61DAFB" stroke-width="3"/>
<path d="M17.832 20.4844C11.3003 31.7976 9.50705 42.9904 13.8266 45.4844C18.1462 47.9783 26.9429 40.8288 33.4746 29.5156C40.0063 18.2024 41.7995 7.00953 37.48 4.51562C33.1604 2.0217 24.3637 9.17115 17.832 20.4844Z" stroke="#61DAFB" stroke-width="3"/>
</svg>
