<svg width="67" height="50" viewBox="0 0 67 50" fill="none" xmlns="http://www.w3.org/2000/svg">
<path d="M57.4098 28.743C55.0838 28.7552 53.0623 29.3154 51.3696 30.1435C50.7485 28.9135 50.1274 27.8175 50.0178 27.0138C49.896 26.0761 49.7499 25.5037 49.896 24.3834C50.0422 23.263 50.6998 21.6677 50.6876 21.5459C50.6754 21.4241 50.5415 20.8518 49.2019 20.8396C47.8623 20.8274 46.7054 21.0953 46.5715 21.4485C46.4375 21.8016 46.1818 22.6054 46.0113 23.4335C45.7799 24.6513 43.3321 28.9988 41.9317 31.276C41.4811 30.3871 41.0914 29.6077 41.0062 28.9866C40.8844 28.0489 40.7383 27.4765 40.8844 26.3562C41.0305 25.2358 41.6881 23.6405 41.676 23.5187C41.6638 23.397 41.5298 22.8246 40.1902 22.8124C38.8507 22.8002 37.6938 23.0681 37.5598 23.4213C37.4259 23.7745 37.2797 24.6026 36.9996 25.4063C36.7195 26.21 33.468 33.4681 32.6156 35.3435C32.1772 36.3055 31.7997 37.0727 31.5318 37.5964C31.5318 37.5964 31.5196 37.6329 31.4831 37.6938C31.2517 38.1444 31.1177 38.3879 31.1177 38.3879C31.1177 38.3879 31.1177 38.3879 31.1177 38.4001C30.935 38.7289 30.7402 39.0334 30.6428 39.0334C30.5697 39.0334 30.4358 38.1566 30.6671 36.9631C31.1543 34.4423 32.3111 30.521 32.299 30.3871C32.299 30.314 32.5182 29.632 31.5439 29.2789C30.5941 28.9257 30.2531 29.5103 30.1678 29.5103C30.0826 29.5103 30.0217 29.7173 30.0217 29.7173C30.0217 29.7173 31.0812 25.3089 28.0002 25.3089C26.0761 25.3089 23.4213 27.4157 22.1061 29.3154C21.278 29.766 19.5122 30.728 17.6246 31.7632C16.9061 32.165 16.1633 32.5669 15.4691 32.9444C15.4204 32.8957 15.3717 32.8348 15.323 32.7861C11.5965 28.8039 4.70386 25.9908 4.99613 20.6447C5.10573 18.6963 5.77551 13.5816 18.2335 7.37084C28.4873 2.31701 36.6465 3.71747 38.0591 6.82283C40.0806 11.2556 33.6873 19.4878 23.0925 20.6813C19.0494 21.1319 16.9305 19.5731 16.3946 18.9886C15.8345 18.3797 15.7492 18.3431 15.5422 18.4649C15.2012 18.6476 15.4204 19.1956 15.5422 19.5122C15.8588 20.3403 17.1618 21.8016 19.366 22.5201C21.3145 23.1534 26.0517 23.5066 31.7875 21.2902C38.2052 18.8059 43.2225 11.901 41.749 6.11652C40.2755 0.24677 30.5332 -1.68952 21.3145 1.58634C15.8345 3.5348 9.89164 6.60363 5.6172 10.598C0.53902 15.3474 -0.264721 19.4757 0.0640825 21.2049C1.24534 27.3426 9.70898 31.3369 13.0944 34.2962C12.9239 34.3936 12.7656 34.4788 12.6317 34.5519C10.9389 35.3922 4.48466 38.7655 2.87718 42.3336C1.05049 46.3766 3.16945 49.275 4.5699 49.6647C8.91741 50.8703 13.3867 48.7026 15.7857 45.1223C18.1848 41.542 17.8925 36.8901 16.7843 34.7589C16.7722 34.7346 16.76 34.7102 16.7356 34.6859C17.174 34.4301 17.6246 34.1622 18.063 33.9065C18.9276 33.395 19.7801 32.9201 20.5108 32.5304C20.0967 33.6629 19.7923 35.0147 19.6461 36.9631C19.4635 39.2526 20.4012 42.224 21.6311 43.3931C22.1791 43.9045 22.8246 43.9167 23.2386 43.9167C24.6756 43.9167 25.321 42.7233 26.0395 41.3106C26.9163 39.5814 27.7079 37.572 27.7079 37.572C27.7079 37.572 26.7215 43.0034 29.4006 43.0034C30.3749 43.0034 31.3613 41.7369 31.7997 41.0914C31.7997 41.1036 31.7997 41.1036 31.7997 41.1036C31.7997 41.1036 31.824 41.0671 31.8727 40.9818C31.9702 40.8235 32.0311 40.7261 32.0311 40.7261C32.0311 40.7261 32.0311 40.7139 32.0311 40.7017C32.4207 40.0198 33.2976 38.4732 34.6006 35.9036C36.2811 32.5913 37.9008 28.4508 37.9008 28.4508C37.9008 28.4508 38.0469 29.4615 38.5462 31.1421C38.8385 32.1285 39.4474 33.2123 39.9345 34.2596C39.5448 34.8076 39.3013 35.1121 39.3013 35.1121C39.3013 35.1121 39.3013 35.1121 39.3134 35.1243C38.9968 35.5383 38.6558 35.9889 38.2783 36.4273C36.9509 38.0104 35.3678 39.8249 35.1486 40.3486C34.8929 40.9697 34.9538 41.4202 35.4409 41.7856C35.794 42.0535 36.4273 42.09 37.0727 42.0535C38.2661 41.9682 39.1064 41.676 39.5205 41.4933C40.1659 41.2619 40.9209 40.9088 41.6272 40.3851C42.9303 39.4231 43.7218 38.047 43.6488 36.2325C43.6122 35.2339 43.2834 34.2353 42.8816 33.2976C43.0033 33.1271 43.1129 32.9566 43.2347 32.7861C45.2928 29.7782 46.8881 26.478 46.8881 26.478C46.8881 26.478 47.0342 27.4887 47.5335 29.1693C47.7771 30.0217 48.2764 30.9472 48.7148 31.8484C46.7785 33.4194 45.5851 35.246 45.1588 36.4395C44.3916 38.6559 44.9883 39.6544 46.1209 39.8858C46.6324 39.9954 47.363 39.7519 47.8989 39.5205C48.5808 39.3013 49.3846 38.9238 50.1518 38.3636C51.4548 37.4015 52.7091 36.062 52.6361 34.2475C52.5995 33.4194 52.3803 32.6034 52.0759 31.8119C53.7199 31.1299 55.8388 30.7524 58.5423 31.069C64.339 31.751 65.4837 35.3678 65.2645 36.8901C65.0453 38.4123 63.8275 39.2404 63.4257 39.4961C63.0238 39.7519 62.8898 39.8371 62.9264 40.0198C62.9751 40.2877 63.1699 40.2755 63.5109 40.2268C63.9859 40.1416 66.5554 38.9968 66.665 36.1959C66.8477 32.6156 63.4379 28.7065 57.4098 28.743ZM12.6926 43.8193C10.7685 45.9139 8.08932 46.7054 6.93242 46.0357C5.69027 45.3172 6.17739 42.224 8.5399 40.0076C9.97689 38.6559 11.8279 37.4015 13.0579 36.6343C13.338 36.4638 13.752 36.2203 14.2513 35.9158C14.3366 35.8671 14.3853 35.8428 14.3853 35.8428C14.4827 35.7819 14.5801 35.721 14.6776 35.6601C15.5422 38.8263 14.7141 41.6151 12.6926 43.8193ZM26.6971 34.2962C26.0274 35.928 24.6269 40.105 23.7744 39.8736C23.0438 39.6788 22.5932 36.5125 23.6283 33.3828C24.152 31.8119 25.2601 29.9365 25.9056 29.2058C26.9529 28.0367 28.1098 27.647 28.3899 28.122C28.743 28.743 27.1112 33.2732 26.6971 34.2962ZM38.254 39.8249C37.9739 39.9711 37.706 40.0685 37.5842 39.9954C37.4989 39.9467 37.706 39.7519 37.706 39.7519C37.706 39.7519 39.1551 38.1931 39.7275 37.4868C40.0563 37.0727 40.446 36.5856 40.86 36.0376C40.86 36.0863 40.86 36.1472 40.86 36.1959C40.86 38.0591 39.0577 39.3135 38.254 39.8249ZM47.1682 37.7912C46.9612 37.6451 46.9977 37.158 47.6918 35.6357C47.9597 35.039 48.593 34.0404 49.6768 33.0784C49.7986 33.4681 49.8839 33.8456 49.8717 34.1987C49.8595 36.5491 48.1789 37.4259 47.1682 37.7912Z" fill="#CD6799"/>
</svg>
