<svg width="84" height="50" viewBox="0 0 84 50" fill="none" xmlns="http://www.w3.org/2000/svg">
<path d="M41.678 0C30.5635 0 23.6174 5.55567 20.8385 16.666C25.0068 11.1103 29.8693 9.02771 35.4261 10.4161C38.5969 11.2083 40.8629 13.5087 43.3718 16.0541C47.4578 20.2005 52.1869 24.9995 62.5176 24.9995C73.631 24.9995 80.5782 19.4438 83.3561 8.33247C79.1888 13.8881 74.3263 15.9718 68.7685 14.5834C65.5987 13.7912 63.3327 11.4908 60.8238 8.94536C56.7378 4.79893 52.0076 0 41.678 0ZM20.8385 24.9995C9.72505 24.9995 2.77784 30.5552 0 41.6665C4.16728 36.1108 9.02981 34.0272 14.5876 35.4166C17.7573 36.2098 20.0234 38.5092 22.5323 41.0536C26.6183 45.2 31.3484 50 41.678 50C52.7925 50 59.7387 44.4443 62.5176 33.333C58.3492 38.8887 53.4867 40.9723 47.93 39.5829C44.7592 38.7917 42.4931 36.4902 39.9842 33.9459C35.8982 29.7995 31.1691 24.9995 20.8385 24.9995Z" fill="#06B6D4"/>
</svg>
