<svg width="1381" height="721" viewBox="0 0 1381 721" fill="none" xmlns="http://www.w3.org/2000/svg">
<path d="M1322.34 178C1326.19 171.333 1335.81 171.333 1339.66 178L1365.64 223C1369.49 229.667 1364.68 238 1356.98 238H1305.02C1297.32 238 1292.51 229.667 1296.36 223L1322.34 178Z" fill="#30495F"/>
<path d="M447.34 6C451.189 -0.666663 460.811 -0.666668 464.66 6L490.641 51C494.49 57.6667 489.679 66 481.981 66H430.019C422.321 66 417.51 57.6667 421.359 51L447.34 6Z" fill="#30495F"/>
<path d="M41.3397 616C45.1887 609.333 54.8113 609.333 58.6603 616L84.641 661C88.49 667.667 83.6788 676 75.9808 676H24.0192C16.3212 676 11.51 667.667 15.359 661L41.3397 616Z" fill="#30495F"/>
<circle cx="276" cy="391" r="30" fill="#30495F"/>
<circle cx="1343" cy="691" r="30" fill="#30495F"/>
<circle cx="780" cy="208" r="30" fill="#30495F"/>
<rect x="651" y="577" width="50" height="50" rx="10" fill="#30495F"/>
<rect x="21" y="173" width="50" height="50" rx="10" fill="#30495F"/>
</svg>
