<svg width="201" height="14" viewBox="0 0 201 14" fill="none" xmlns="http://www.w3.org/2000/svg">
<path fill-rule="evenodd" clip-rule="evenodd" d="M151.538 0.0533243C123.279 0.204732 115.199 0.303226 99.52 0.687705C83.2714 1.08615 71.6431 1.48554 53.1928 2.27892C48.9156 2.46284 44.3358 2.63739 38.9668 2.82105C19.2442 3.49572 15.4062 3.6755 9.0304 4.22312C5.87137 4.49451 3.13936 4.68231 1.60815 4.7335C0.24679 4.77896 0 4.80758 0 4.91997C0 5.0193 2.17732 5.10632 3.36822 5.05455C3.79499 5.03607 4.95126 4.99074 5.9378 4.95395C6.92434 4.91711 9.09535 4.81823 10.7623 4.73421C14.6875 4.53626 16.5721 4.47385 23.3182 4.31836C34.659 4.05698 43.2262 3.80581 53.7494 3.42617C57.6276 3.28624 62.7768 3.10047 65.1921 3.01333C83.5107 2.3523 105.887 1.76286 119.56 1.58123C136.153 1.36072 187.663 1.16577 186.793 1.32668C186.449 1.39049 180.554 1.86511 177.021 2.11361C173.775 2.3419 168.352 2.67117 161.681 3.04501C158.518 3.22236 154.176 3.4678 152.032 3.59046C143.981 4.05131 141.329 4.19424 136.755 4.41411C115.682 5.42692 101.762 6.30948 82.3869 7.86104C70.8707 8.78325 61.4315 9.84197 50.8976 11.393C44.9086 12.2747 44.325 12.4314 44.9145 12.9991C45.2981 13.3685 48.32 13.4163 54.4149 13.1495C65.5533 12.662 76.0203 12.2839 86.1599 12.0028C92.5201 11.8265 93.3625 11.7969 99.8292 11.5231C102.245 11.4209 106.42 11.2715 109.107 11.1912L113.993 11.0451L107.499 10.9876C97.6576 10.9003 87.1007 10.9056 83.624 10.9995C72.1136 11.3106 65.8529 11.5501 55.6267 12.0702C53.1892 12.1942 51.1329 12.285 51.0569 12.272C50.3246 12.1462 66.7162 10.2447 74.5359 9.54845C92.188 7.97656 110.366 6.80374 138.301 5.43425C140.853 5.30917 145.974 5.03556 149.682 4.82626C153.39 4.61691 159.235 4.28731 162.671 4.0937C175.896 3.34865 179.836 3.07115 192.545 1.98962C200.686 1.2969 200.729 1.29098 200.951 0.835416C201.195 0.334528 200.543 0.107259 198.675 0.0422971C196.9 -0.0194771 163.67 -0.0117013 151.538 0.0533243ZM114.521 10.9946C114.674 11.0098 114.897 11.0092 115.015 10.9933C115.134 10.9774 115.008 10.9649 114.736 10.9656C114.463 10.9663 114.367 10.9793 114.521 10.9946Z" fill="#1DCFF7"/>
</svg>
