<svg width="535" height="450" viewBox="0 0 535 450" fill="none" xmlns="http://www.w3.org/2000/svg">
<path d="M0 244.07C0 313.369 41.1465 374.676 104.223 411.995C144.665 435.928 194.127 450 247.534 450C318.682 450 372.954 423.449 413.779 382.777C451.408 345.298 477.61 295.818 495.068 244.07C573.006 13.0242 442.81 -50.0082 247.534 38.1397C123.201 94.27 0 130.341 0 244.07Z" fill="#30495F" fill-opacity="0.1"/>
<path d="M347.658 307.577C344.337 307.572 341.153 304.974 338.806 300.353C336.458 295.732 335.14 289.467 335.14 282.935C335.14 276.402 336.458 270.137 338.806 265.516C341.153 260.895 344.337 258.297 347.658 258.292H533.73C532.794 254.913 531.413 252.091 529.731 250.125C528.05 248.158 526.13 247.119 524.173 247.116H154.311C149.486 247.127 144.86 250.905 141.45 257.622C138.04 264.338 136.125 273.442 136.125 282.935C136.128 292.425 138.044 301.526 141.453 308.241C144.862 314.956 149.487 318.736 154.311 318.753H524.173C526.13 318.75 528.05 317.711 529.731 315.744C531.413 313.777 532.794 310.956 533.73 307.577L347.658 307.577Z" fill="#566778"/>
<path d="M533.977 271.871H357.066C356.795 271.87 356.536 271.657 356.345 271.28C356.153 270.903 356.046 270.392 356.046 269.859C356.046 269.327 356.153 268.816 356.345 268.439C356.536 268.061 356.795 267.849 357.066 267.848H533.977C534.248 267.849 534.508 268.061 534.699 268.439C534.89 268.816 534.998 269.327 534.998 269.859C534.998 270.392 534.89 270.903 534.699 271.28C534.508 271.657 534.248 271.87 533.977 271.871Z" fill="#566778"/>
<path d="M533.977 284.946H357.066C356.795 284.946 356.535 284.734 356.343 284.357C356.151 283.98 356.043 283.468 356.043 282.934C356.043 282.401 356.151 281.889 356.343 281.512C356.535 281.135 356.795 280.923 357.066 280.923H533.977C534.249 280.923 534.509 281.135 534.701 281.512C534.892 281.889 535 282.401 535 282.934C535 283.468 534.892 283.98 534.701 284.357C534.509 284.734 534.249 284.946 533.977 284.946Z" fill="#566778"/>
<path d="M533.977 298.021H357.066C356.795 298.02 356.536 297.808 356.345 297.431C356.153 297.054 356.046 296.543 356.046 296.01C356.046 295.477 356.153 294.966 356.345 294.589C356.536 294.212 356.795 294 357.066 293.998H533.977C534.248 294 534.508 294.212 534.699 294.589C534.89 294.966 534.998 295.477 534.998 296.01C534.998 296.543 534.89 297.054 534.699 297.431C534.508 297.808 534.248 298.02 533.977 298.021Z" fill="#566778"/>
<path d="M299.595 238.176C296.274 238.172 293.09 235.574 290.743 230.953C288.396 226.332 287.077 220.067 287.077 213.534C287.077 207.002 288.396 200.736 290.743 196.116C293.09 191.495 296.274 188.897 299.595 188.892H485.668C484.732 185.513 483.35 182.691 481.669 180.725C479.987 178.758 478.067 177.719 476.111 177.716H106.249C101.423 177.727 96.7972 181.505 93.3872 188.221C89.9772 194.937 88.062 204.042 88.0625 213.534C88.065 223.025 89.9811 232.126 93.3905 238.841C96.7999 245.555 101.424 249.336 106.249 249.353H476.111C478.067 249.35 479.987 248.31 481.669 246.344C483.35 244.377 484.732 241.556 485.668 238.176L299.595 238.176Z" fill="#1DCFF6"/>
<path d="M485.915 202.47H309.003C308.733 202.469 308.473 202.257 308.282 201.88C308.091 201.502 307.983 200.991 307.983 200.459C307.983 199.926 308.091 199.415 308.282 199.038C308.473 198.661 308.733 198.449 309.003 198.447H485.915C486.186 198.447 486.446 198.659 486.638 199.036C486.83 199.414 486.937 199.925 486.937 200.459C486.937 200.992 486.83 201.504 486.638 201.881C486.446 202.258 486.186 202.47 485.915 202.47Z" fill="#566778"/>
<path d="M485.915 215.546H309.003C308.732 215.546 308.472 215.334 308.28 214.957C308.089 214.579 307.981 214.068 307.981 213.534C307.981 213.001 308.089 212.489 308.28 212.112C308.472 211.735 308.732 211.523 309.003 211.523H485.915C486.186 211.523 486.446 211.735 486.638 212.112C486.83 212.489 486.937 213.001 486.937 213.534C486.937 214.068 486.83 214.579 486.638 214.957C486.446 215.334 486.186 215.546 485.915 215.546Z" fill="#566778"/>
<path d="M485.915 228.621H309.003C308.733 228.62 308.473 228.408 308.282 228.03C308.091 227.653 307.983 227.142 307.983 226.61C307.983 226.077 308.091 225.566 308.282 225.189C308.473 224.812 308.733 224.599 309.003 224.598H485.915C486.049 224.598 486.183 224.649 486.307 224.75C486.431 224.851 486.544 224.999 486.639 225.186C486.735 225.372 486.81 225.594 486.862 225.839C486.913 226.083 486.94 226.345 486.94 226.61C486.94 226.874 486.913 227.136 486.862 227.381C486.81 227.625 486.735 227.847 486.639 228.034C486.544 228.221 486.431 228.369 486.307 228.47C486.183 228.57 486.049 228.622 485.915 228.621Z" fill="#566778"/>
<path d="M251.533 166.461C248.212 166.456 245.028 163.858 242.68 159.237C240.333 154.616 239.014 148.351 239.014 141.818C239.014 135.286 240.333 129.021 242.68 124.4C245.028 119.779 248.212 117.181 251.533 117.176H437.605C436.669 113.797 435.288 110.976 433.606 109.009C431.924 107.042 430.005 106.003 428.048 106H58.1858C53.3603 106.011 48.7344 109.789 45.3245 116.505C41.9145 123.222 39.9994 132.326 40 141.818C40.0024 151.309 41.9185 160.41 45.3278 167.125C48.7371 173.84 53.3613 177.62 58.1858 177.637H428.048C430.005 177.634 431.925 176.595 433.606 174.628C435.288 172.661 436.669 169.84 437.605 166.461L251.533 166.461Z" fill="#566778"/>
<path d="M437.852 130.755H260.941C260.67 130.753 260.41 130.541 260.219 130.164C260.028 129.787 259.921 129.276 259.921 128.743C259.921 128.21 260.028 127.699 260.219 127.322C260.41 126.945 260.67 126.733 260.941 126.731H437.852C438.123 126.731 438.383 126.943 438.575 127.321C438.767 127.698 438.875 128.21 438.875 128.743C438.875 129.277 438.767 129.788 438.575 130.166C438.383 130.543 438.123 130.755 437.852 130.755Z" fill="#566778"/>
<path d="M437.852 143.83H260.941C260.806 143.83 260.673 143.778 260.549 143.677C260.425 143.576 260.313 143.428 260.218 143.241C260.123 143.054 260.047 142.832 259.996 142.588C259.945 142.344 259.918 142.083 259.918 141.819C259.918 141.554 259.945 141.293 259.996 141.049C260.047 140.805 260.123 140.583 260.218 140.396C260.313 140.209 260.425 140.061 260.549 139.96C260.673 139.859 260.806 139.807 260.941 139.807H437.852C437.986 139.807 438.119 139.859 438.243 139.96C438.367 140.061 438.48 140.209 438.575 140.396C438.67 140.583 438.745 140.805 438.797 141.049C438.848 141.293 438.875 141.554 438.875 141.819C438.875 142.083 438.848 142.344 438.797 142.588C438.745 142.832 438.67 143.054 438.575 143.241C438.48 143.428 438.367 143.576 438.243 143.677C438.119 143.778 437.986 143.83 437.852 143.83Z" fill="#566778"/>
<path d="M437.852 156.905H260.941C260.67 156.905 260.409 156.693 260.218 156.316C260.026 155.939 259.918 155.427 259.918 154.894C259.918 154.36 260.026 153.848 260.218 153.471C260.409 153.094 260.67 152.882 260.941 152.882H437.852C437.986 152.882 438.119 152.934 438.243 153.035C438.367 153.136 438.48 153.284 438.575 153.471C438.67 153.658 438.745 153.88 438.797 154.124C438.848 154.368 438.875 154.629 438.875 154.894C438.875 155.158 438.848 155.419 438.797 155.663C438.745 155.908 438.67 156.129 438.575 156.316C438.48 156.503 438.367 156.651 438.243 156.752C438.119 156.853 437.986 156.905 437.852 156.905Z" fill="#566778"/>
</svg>
