<svg width="934" height="822" viewBox="0 0 934 822" fill="none" xmlns="http://www.w3.org/2000/svg">
<path d="M0 445.567C0 572.077 74.17 683.997 187.87 752.127C260.77 795.817 349.93 821.507 446.2 821.507C574.45 821.507 672.28 773.037 745.87 698.787C813.7 630.367 860.93 540.037 892.4 445.567C1032.89 23.7766 798.2 -91.2934 446.2 69.6266C222.08 172.097 0 237.947 0 445.567Z" fill="#30495F" fill-opacity="0.1"/>
<path d="M571.623 554.739L554.091 716.038H675.065L680.325 703.765L687.338 716.038H801.299C801.299 716.038 792.533 549.479 776.754 544.219C760.974 538.96 571.623 554.739 571.623 554.739Z" fill="#2F2E41"/>
<path d="M675.065 200.582C708.955 200.582 736.429 173.109 736.429 139.219C736.429 105.328 708.955 77.8547 675.065 77.8547C641.175 77.8547 613.701 105.328 613.701 139.219C613.701 173.109 641.175 200.582 675.065 200.582Z" fill="#FFB8B8"/>
<path d="M640 177.79C640 177.79 645.26 233.894 640 237.4C634.74 240.907 724.156 239.154 724.156 239.154C724.156 239.154 711.883 188.309 724.156 163.764L640 177.79Z" fill="#FFB8B8"/>
<path d="M671.559 225.128C671.559 225.128 716.672 232.154 720.414 218.121L743.442 249.673L745.195 565.258C745.195 565.258 557.597 588.051 550.584 551.232C543.571 514.414 622.468 223.374 622.468 223.374L642.33 222.089C642.33 222.089 668.052 225.128 671.559 225.128Z" fill="#D0CDE1"/>
<path d="M642.031 207.69L611.948 218.115L526.039 239.154L529.545 449.544C529.545 449.544 455.909 659.934 489.22 675.713C522.532 691.493 569.87 654.674 583.896 628.376C597.922 602.077 647.013 237.401 647.013 230.388C647.013 223.375 642.031 207.69 642.031 207.69Z" fill="#3F3D56"/>
<path d="M719.287 207.69L731.169 218.115L815.325 256.686L773.247 468.83C773.247 468.83 829.351 661.687 808.312 672.207C787.273 682.726 755.715 712.532 748.702 694.999C741.689 677.467 700.392 227.071 719.287 207.69Z" fill="#3F3D56"/>
<path d="M767.987 488.115C767.987 488.115 689.091 454.804 687.338 484.609C685.585 514.414 776.754 535.453 776.754 526.687C776.754 517.921 767.987 488.115 767.987 488.115Z" fill="#FFB8B8"/>
<path d="M575.13 475.843C575.13 475.843 666.299 544.22 631.234 561.752C596.169 579.285 550.584 500.388 550.584 500.388L575.13 475.843Z" fill="#FFB8B8"/>
<path d="M702.308 49.3301C702.596 48.72 703.061 48.21 703.641 47.8656C704.221 47.5212 704.891 47.3582 705.565 47.3974C677.471 45.7169 647.88 48.9913 624.377 64.4727C617.795 68.8084 611.648 74.1103 604.154 76.5537L610.237 81.3238L602.969 83.5392L613.665 90.4519C612.585 91.6797 611.199 92.6001 609.649 93.1195C608.098 93.639 606.438 93.739 604.836 93.4096C609.484 94.7676 612.907 98.904 614.645 103.424C616.383 107.944 616.695 112.866 616.989 117.7C618.786 110.725 626.397 106.62 633.587 106.203C640.777 105.785 647.789 108.158 654.786 109.863C670.026 113.567 685.854 114.175 701.334 111.654C696.077 122.203 700.512 134.785 704.974 145.694L713.883 167.475C718.829 167.972 722.325 163.053 726.052 159.763C729.448 156.764 715.926 183.139 718.02 182.173C720.74 180.918 749.441 149.229 750.785 146.552C756.917 134.338 760.596 120.714 760.043 107.059C759.49 93.4029 754.493 79.7404 745.08 69.8312C738.69 63.1041 729.849 61.9259 723.334 56.3349C720.77 54.1343 720.761 52.4152 717.237 51.1321C716.067 50.706 702.502 48.9006 702.308 49.3301Z" fill="#2F2E41"/>
<path d="M538.311 244.414L526.039 239.154L427.857 400.453C427.857 400.453 410.324 442.531 441.883 461.817C473.441 481.103 547.078 538.96 547.078 538.96L589.156 474.089C589.156 474.089 503.246 433.765 508.506 417.985C513.766 402.206 541.818 360.128 541.818 360.128L538.311 244.414Z" fill="#3F3D56"/>
<path d="M792.533 253.18L815.325 256.686C815.325 256.686 910.001 442.531 887.208 477.596C864.416 512.661 771.494 561.752 771.494 561.752C771.494 561.752 769.741 503.895 753.961 482.856L808.312 461.817L778.507 346.102L792.533 253.18Z" fill="#3F3D56"/>
</svg>
