<svg id="canvas" width="414.778" height="282.334" viewBox="370.546 166.250 414.778 282.334" preserveAspectRatio="xMidYMid meet" class="h-full w-full max-w-4xl text-primary transition-opacity duration-300 opacity-100" xmlns="http://www.w3.org/2000/svg"><g id="canvas-strokes"><path d="M 393.28,217.50 C 392.40 219.14, 392.00 221.39, 391.37 226.12 C 390.75 230.85, 390.60 233.89, 390.18 241.16 C 389.75 248.43, 389.41 253.36, 389.24 262.49 C 389.08 271.62, 389.40 276.95, 389.34 286.82 C 389.27 296.69, 389.03 301.92, 388.94 311.83 C 388.84 321.74, 388.85 327.13, 388.85 336.38 C 388.86 345.64, 388.71 350.41, 388.95 358.10 C 389.18 365.78, 389.33 369.37, 390.04 374.83 C 390.74 380.29, 391.37 383.20, 392.46 385.40 C 393.56 387.60, 394.85 385.87, 395.50 385.85 C 396.15 385.82, 395.78 385.56, 395.72 385.26 C 395.66 384.97, 395.74 386.54, 395.19 384.37 C 394.64 382.20, 393.75 379.69, 392.95 374.42 C 392.15 369.14, 391.62 365.61, 391.20 358.00 C 390.77 350.39, 390.90 345.61, 390.83 336.38 C 390.76 327.15, 390.73 321.76, 390.83 311.85 C 390.94 301.94, 391.19 296.70, 391.35 286.84 C 391.50 276.99, 391.26 271.65, 391.59 262.55 C 391.92 253.46, 392.39 248.57, 393.00 241.36 C 393.62 234.16, 394.09 231.21, 394.64 226.53 C 395.20 221.85, 396.07 219.75, 395.79 217.95 C 395.52 216.14, 394.16 215.87, 393.28 217.50" style="stroke: black; fill: black;"/><path d="M 429.52,240.76 C 428.78 241.34, 428.37 241.61, 427.98 243.74 C 427.59 245.87, 427.31 247.28, 427.55 251.42 C 427.80 255.57, 428.58 258.30, 429.20 264.47 C 429.81 270.63, 430.05 274.59, 430.62 282.24 C 431.19 289.89, 431.60 294.32, 432.05 302.73 C 432.50 311.13, 432.75 316.44, 432.87 324.28 C 432.99 332.13, 432.61 336.19, 432.66 341.96 C 432.71 347.72, 432.69 349.73, 433.10 353.11 C 433.52 356.49, 434.09 357.76, 434.73 358.86 C 435.38 359.96, 436.01 359.83, 436.32 358.63 C 436.62 357.42, 436.40 356.19, 436.25 352.85 C 436.09 349.50, 435.72 347.62, 435.54 341.90 C 435.37 336.18, 435.58 332.09, 435.37 324.23 C 435.16 316.37, 434.89 311.03, 434.49 302.60 C 434.09 294.17, 433.71 289.75, 433.37 282.08 C 433.02 274.40, 432.93 270.39, 432.76 264.24 C 432.59 258.08, 432.48 255.35, 432.53 251.30 C 432.57 247.25, 433.17 246.09, 432.99 244.00 C 432.82 241.90, 432.35 241.48, 431.65 240.83 C 430.96 240.18, 430.25 240.18, 429.52 240.76" style="stroke: black; fill: black;"/><path d="M 375.89,300.71 C 375.19 300.15, 374.35 300.93, 374.00 301.83 C 373.65 302.73, 373.12 304.25, 374.14 305.22 C 375.15 306.19, 375.98 306.89, 379.07 306.69 C 382.17 306.49, 384.44 305.42, 389.61 304.23 C 394.78 303.05, 398.37 302.30, 404.91 300.77 C 411.45 299.24, 415.29 298.10, 422.32 296.57 C 429.34 295.04, 433.15 294.46, 440.05 293.11 C 446.94 291.76, 450.40 291.20, 456.78 289.83 C 463.16 288.45, 466.57 287.41, 471.94 286.24 C 477.30 285.06, 480.22 284.51, 483.60 283.93 C 486.98 283.35, 488.10 283.06, 488.84 283.34 C 489.58 283.63, 488.76 283.48, 487.30 285.35 C 485.85 287.23, 484.60 289.07, 481.55 292.71 C 478.49 296.35, 476.04 299.01, 472.01 303.56 C 467.99 308.11, 465.34 310.78, 461.42 315.46 C 457.50 320.14, 455.45 322.63, 452.42 326.96 C 449.39 331.30, 447.87 333.57, 446.27 337.14 C 444.67 340.70, 443.91 342.31, 444.41 344.79 C 444.91 347.26, 446.28 348.56, 448.77 349.50 C 451.26 350.44, 453.44 350.53, 456.87 349.49 C 460.31 348.46, 462.17 347.18, 465.94 344.31 C 469.72 341.43, 471.95 339.27, 475.74 335.12 C 479.53 330.96, 481.60 328.30, 484.89 323.55 C 488.17 318.80, 489.66 315.62, 492.17 311.37 C 494.68 307.11, 496.16 304.92, 497.44 302.28 C 498.73 299.64, 498.56 298.31, 498.60 298.17 C 498.63 298.04, 497.45 299.18, 497.61 301.60 C 497.77 304.02, 498.35 306.45, 499.41 310.28 C 500.47 314.11, 500.98 316.88, 502.90 320.75 C 504.83 324.62, 506.08 326.99, 509.02 329.63 C 511.97 332.27, 513.79 333.10, 517.63 333.96 C 521.48 334.83, 523.68 334.73, 528.24 333.97 C 532.81 333.21, 535.58 332.38, 540.45 330.18 C 545.33 327.98, 548.03 326.48, 552.61 322.99 C 557.19 319.50, 559.31 317.08, 563.36 312.73 C 567.40 308.37, 569.58 305.52, 572.85 301.23 C 576.13 296.93, 578.01 294.43, 579.74 291.25 C 581.48 288.07, 581.61 286.24, 581.55 285.32 C 581.49 284.39, 580.12 284.61, 579.44 286.64 C 578.75 288.66, 578.51 291.16, 578.12 295.44 C 577.72 299.72, 577.45 303.18, 577.47 308.04 C 577.49 312.90, 577.56 315.64, 578.23 319.75 C 578.89 323.85, 579.33 325.86, 580.79 328.56 C 582.25 331.27, 583.35 332.20, 585.52 333.28 C 587.69 334.36, 589.10 334.77, 591.64 333.96 C 594.18 333.16, 595.59 332.15, 598.22 329.26 C 600.86 326.38, 602.01 323.98, 604.83 319.55 C 607.64 315.12, 609.35 311.83, 612.31 307.12 C 615.27 302.42, 617.08 299.45, 619.61 296.04 C 622.15 292.62, 623.71 291.30, 625.00 290.05 C 626.28 288.80, 625.80 288.57, 626.05 289.79 C 626.30 291.01, 626.03 292.71, 626.25 296.14 C 626.47 299.57, 626.75 302.37, 627.13 306.94 C 627.51 311.51, 627.67 314.39, 628.15 318.99 C 628.63 323.58, 628.58 326.12, 629.54 329.91 C 630.50 333.69, 630.94 335.30, 632.94 337.93 C 634.95 340.56, 636.39 342.02, 639.58 343.04 C 642.76 344.06, 645.11 344.03, 648.87 343.03 C 652.62 342.02, 654.57 340.72, 658.37 338.01 C 662.17 335.29, 664.20 333.39, 667.87 329.47 C 671.54 325.56, 673.60 322.77, 676.72 318.42 C 679.83 314.06, 681.55 311.18, 683.44 307.69 C 685.32 304.20, 685.93 302.63, 686.15 300.97 C 686.37 299.31, 685.41 298.73, 684.54 299.39 C 683.66 300.04, 682.34 301.11, 681.79 304.23 C 681.24 307.35, 681.43 310.26, 681.79 314.98 C 682.15 319.70, 682.49 322.90, 683.60 327.83 C 684.71 332.76, 685.47 335.51, 687.34 339.65 C 689.22 343.78, 690.35 346.00, 692.98 348.51 C 695.62 351.02, 697.69 351.63, 700.53 352.20 C 703.37 352.77, 705.27 352.20, 707.19 351.35 C 709.11 350.51, 709.80 349.00, 710.14 347.98 C 710.48 346.97, 709.72 346.42, 708.88 346.26 C 708.04 346.11, 707.39 347.03, 705.93 347.22 C 704.47 347.40, 703.52 347.63, 701.58 347.19 C 699.64 346.76, 698.28 346.90, 696.21 345.04 C 694.15 343.17, 692.90 341.49, 691.25 337.87 C 689.60 334.25, 688.79 331.57, 687.98 326.95 C 687.16 322.32, 687.19 319.22, 687.17 314.75 C 687.14 310.28, 688.01 307.70, 687.86 304.62 C 687.70 301.53, 687.31 300.39, 686.39 299.34 C 685.48 298.29, 684.71 298.14, 683.29 299.35 C 681.88 300.55, 681.29 302.01, 679.32 305.38 C 677.36 308.74, 676.31 311.88, 673.45 316.16 C 670.59 320.44, 668.53 323.12, 665.02 326.78 C 661.51 330.43, 659.39 332.12, 655.91 334.42 C 652.43 336.71, 650.58 337.50, 647.62 338.24 C 644.66 338.99, 643.27 338.80, 641.11 338.14 C 638.96 337.48, 638.27 336.83, 636.84 334.96 C 635.42 333.09, 634.82 332.06, 633.99 328.78 C 633.16 325.50, 633.07 323.00, 632.70 318.56 C 632.33 314.12, 632.39 311.21, 632.14 306.60 C 631.89 301.98, 632.14 299.19, 631.45 295.48 C 630.77 291.77, 630.39 289.76, 628.71 288.04 C 627.03 286.32, 625.55 285.79, 623.04 286.87 C 620.54 287.94, 619.02 289.80, 616.19 293.43 C 613.36 297.05, 611.91 300.24, 608.91 304.98 C 605.91 309.72, 604.09 312.97, 601.19 317.12 C 598.28 321.28, 596.63 323.24, 594.37 325.76 C 592.10 328.28, 591.25 328.87, 589.86 329.71 C 588.47 330.55, 588.32 330.64, 587.43 329.97 C 586.54 329.29, 586.32 328.53, 585.42 326.34 C 584.51 324.14, 583.49 322.65, 582.92 319.00 C 582.35 315.35, 582.46 312.73, 582.58 308.09 C 582.69 303.45, 583.29 300.10, 583.49 295.81 C 583.69 291.53, 584.23 289.05, 583.59 286.68 C 582.96 284.32, 581.85 283.55, 580.32 284.00 C 578.79 284.44, 578.02 285.89, 575.94 288.91 C 573.86 291.93, 572.93 294.78, 569.93 299.09 C 566.93 303.41, 564.81 306.26, 560.94 310.49 C 557.06 314.73, 554.97 317.02, 550.57 320.27 C 546.17 323.51, 543.54 324.79, 538.95 326.73 C 534.36 328.66, 531.68 329.33, 527.61 329.93 C 523.54 330.53, 521.69 330.47, 518.61 329.73 C 515.54 329.00, 514.41 328.50, 512.23 326.26 C 510.06 324.03, 509.18 322.05, 507.74 318.54 C 506.29 315.03, 506.04 312.41, 505.01 308.72 C 503.97 305.04, 503.87 302.57, 502.58 300.11 C 501.28 297.66, 500.33 296.50, 498.52 296.44 C 496.70 296.39, 495.45 297.25, 493.50 299.85 C 491.55 302.46, 491.10 305.13, 488.78 309.46 C 486.47 313.80, 485.10 316.91, 481.94 321.52 C 478.77 326.12, 476.70 328.68, 472.97 332.49 C 469.23 336.30, 466.83 338.21, 463.27 340.57 C 459.71 342.94, 457.88 343.34, 455.17 344.32 C 452.45 345.31, 451.17 345.49, 449.70 345.51 C 448.23 345.52, 447.75 345.72, 447.82 344.40 C 447.90 343.08, 448.56 341.99, 450.06 338.90 C 451.56 335.80, 452.54 333.18, 455.32 328.92 C 458.10 324.67, 460.08 322.18, 463.97 317.62 C 467.87 313.06, 470.62 310.51, 474.80 306.10 C 478.97 301.69, 481.57 299.29, 484.86 295.58 C 488.16 291.86, 490.20 290.35, 491.29 287.51 C 492.38 284.67, 491.96 282.89, 490.32 281.38 C 488.68 279.86, 486.92 279.59, 483.09 279.94 C 479.26 280.29, 476.56 281.68, 471.18 283.12 C 465.79 284.56, 462.51 285.67, 456.18 287.15 C 449.85 288.63, 446.43 289.19, 439.54 290.53 C 432.66 291.86, 428.81 292.43, 421.75 293.83 C 414.69 295.23, 410.81 296.33, 404.23 297.52 C 397.66 298.72, 394.05 299.27, 388.88 299.80 C 383.71 300.32, 381.34 299.70, 378.38 300.15 C 375.41 300.59, 374.67 301.01, 374.05 302.03 C 373.42 303.05, 374.55 304.72, 375.25 305.24 C 375.94 305.76, 377.39 305.53, 377.52 304.62 C 377.65 303.72, 376.60 301.27, 375.89 300.71" style="stroke: black; fill: black;"/><path d="M 679.08,248.26 C 678.82 249.49, 679.30 251.27, 680.32 252.48 C 681.34 253.68, 682.97 254.36, 684.20 254.30 C 685.42 254.24, 686.26 253.37, 686.45 252.20 C 686.64 251.03, 686.10 249.63, 685.14 248.46 C 684.18 247.28, 682.86 246.38, 681.65 246.34 C 680.44 246.30, 679.35 247.03, 679.08 248.26" style="stroke: black; fill: black;"/><path d="M 760.93,271.49 C 762.29 271.31, 764.13 270.96, 766.09 268.71 C 768.05 266.47, 768.63 264.45, 770.74 260.27 C 772.84 256.09, 774.61 253.61, 776.61 247.80 C 778.61 242.00, 779.60 238.05, 780.74 231.22 C 781.88 224.40, 782.22 220.50, 782.30 213.67 C 782.39 206.84, 782.27 203.15, 781.16 197.07 C 780.06 191.00, 779.16 188.15, 776.78 183.30 C 774.39 178.45, 772.82 175.63, 769.24 172.83 C 765.66 170.03, 763.22 169.00, 758.87 169.30 C 754.52 169.59, 752.02 170.75, 747.49 174.31 C 742.96 177.87, 740.30 180.25, 736.22 187.12 C 732.14 193.98, 730.36 198.69, 727.10 208.64 C 723.84 218.59, 722.33 224.51, 719.93 236.87 C 717.53 249.22, 716.35 256.17, 715.10 270.41 C 713.86 284.64, 713.98 292.81, 713.70 308.04 C 713.41 323.27, 713.54 331.50, 713.69 346.57 C 713.83 361.64, 714.04 369.64, 714.41 383.39 C 714.78 397.13, 715.37 404.67, 715.52 415.30 C 715.67 425.94, 715.59 430.83, 715.16 436.56 C 714.73 442.29, 714.27 443.28, 713.37 443.94 C 712.48 444.60, 712.56 443.37, 710.69 439.86 C 708.81 436.34, 706.65 432.45, 704.00 426.37 C 701.35 420.30, 699.73 416.24, 697.43 409.47 C 695.13 402.71, 694.00 398.98, 692.50 392.55 C 691.01 386.12, 690.37 383.16, 689.97 377.32 C 689.56 371.48, 689.73 368.52, 690.47 363.35 C 691.20 358.19, 691.65 355.60, 693.65 351.48 C 695.65 347.35, 697.06 345.85, 700.45 342.74 C 703.85 339.62, 705.80 338.39, 710.62 335.89 C 715.45 333.39, 718.29 332.36, 724.59 330.24 C 730.89 328.11, 735.22 327.09, 742.12 325.25 C 749.03 323.40, 753.37 322.37, 759.10 321.00 C 764.82 319.64, 767.34 319.27, 770.75 318.43 C 774.16 317.60, 774.85 317.30, 776.16 316.83 C 777.47 316.36, 777.06 316.36, 777.30 316.08 C 777.55 315.80, 777.65 315.77, 777.38 315.43 C 777.10 315.10, 777.42 314.59, 775.92 314.40 C 774.42 314.21, 773.40 313.80, 769.88 314.50 C 766.35 315.19, 764.00 316.31, 758.30 317.89 C 752.59 319.48, 748.29 320.51, 741.36 322.43 C 734.43 324.34, 730.09 325.32, 723.66 327.46 C 717.22 329.59, 714.29 330.53, 709.20 333.10 C 704.11 335.67, 701.92 336.90, 698.21 340.29 C 694.51 343.68, 692.83 345.52, 690.67 350.05 C 688.52 354.58, 688.13 357.45, 687.43 362.94 C 686.72 368.44, 686.68 371.48, 687.16 377.53 C 687.65 383.57, 688.37 386.58, 689.85 393.16 C 691.32 399.74, 692.34 403.51, 694.55 410.42 C 696.76 417.34, 698.21 421.49, 700.90 427.72 C 703.59 433.95, 705.34 438.08, 707.99 441.59 C 710.64 445.10, 712.29 446.22, 714.15 445.25 C 716.01 444.28, 716.68 442.74, 717.28 436.74 C 717.87 430.75, 717.45 425.95, 717.14 415.27 C 716.83 404.59, 716.18 397.09, 715.74 383.35 C 715.30 369.60, 715.08 361.62, 714.93 346.56 C 714.77 331.50, 714.65 323.27, 714.96 308.06 C 715.26 292.86, 715.16 284.71, 716.47 270.53 C 717.77 256.35, 718.99 249.43, 721.48 237.18 C 723.98 224.92, 725.57 219.01, 728.94 209.26 C 732.31 199.50, 734.24 194.91, 738.32 188.40 C 742.40 181.89, 745.19 179.84, 749.34 176.71 C 753.50 173.58, 755.55 172.98, 759.10 172.75 C 762.65 172.52, 764.11 173.16, 767.08 175.55 C 770.05 177.95, 771.69 180.32, 773.94 184.73 C 776.18 189.13, 777.22 191.82, 778.32 197.60 C 779.43 203.38, 779.58 207.01, 779.47 213.63 C 779.35 220.25, 779.00 224.11, 777.76 230.70 C 776.52 237.28, 775.45 241.08, 773.27 246.57 C 771.09 252.05, 769.14 254.35, 766.85 258.13 C 764.57 261.91, 763.37 263.16, 761.85 265.46 C 760.33 267.76, 759.44 268.41, 759.25 269.62 C 759.07 270.82, 759.56 271.67, 760.93 271.49" style="stroke: black; fill: black;"/></g></svg>