<svg id="canvas" width="478.771" height="169.775" viewBox="377.775 242.237 478.771 169.775" preserveAspectRatio="xMidYMid meet" class="h-full w-full max-w-4xl text-primary transition-opacity duration-300 opacity-100" xmlns="http://www.w3.org/2000/svg"><g id="canvas-strokes"><path d="M 382.49,313.55 C 383.82 313.43, 385.09 312.83, 387.56 311.00 C 390.03 309.17, 391.30 307.48, 394.84 304.40 C 398.37 301.33, 400.71 299.29, 405.24 295.62 C 409.77 291.94, 412.38 289.89, 417.48 286.04 C 422.58 282.19, 425.38 280.09, 430.74 276.36 C 436.10 272.63, 439.02 270.70, 444.29 267.38 C 449.55 264.05, 452.31 262.35, 457.06 259.74 C 461.81 257.14, 464.22 255.94, 468.05 254.35 C 471.88 252.76, 473.77 252.49, 476.19 251.80 C 478.61 251.10, 479.30 250.65, 480.14 250.88 C 480.98 251.11, 480.72 251.30, 480.41 252.95 C 480.10 254.60, 479.88 255.77, 478.59 259.15 C 477.31 262.52, 476.51 264.92, 473.98 269.81 C 471.45 274.70, 469.71 277.68, 465.93 283.59 C 462.15 289.49, 459.79 292.86, 455.07 299.34 C 450.35 305.83, 447.55 309.44, 442.32 315.99 C 437.09 322.54, 434.17 326.06, 428.91 332.08 C 423.64 338.11, 420.83 341.16, 415.99 346.12 C 411.15 351.09, 408.72 353.42, 404.70 356.92 C 400.68 360.42, 398.65 361.68, 395.90 363.63 C 393.15 365.58, 392.11 366.04, 390.97 366.65 C 389.82 367.27, 389.89 367.28, 390.18 366.70 C 390.46 366.11, 391.28 365.69, 392.39 363.73 C 393.51 361.77, 393.87 360.05, 395.75 356.91 C 397.62 353.76, 398.85 351.56, 401.76 347.99 C 404.67 344.41, 406.55 342.48, 410.29 339.03 C 414.04 335.59, 416.19 333.86, 420.49 330.75 C 424.79 327.63, 427.14 326.20, 431.81 323.47 C 436.48 320.73, 438.96 319.51, 443.84 317.06 C 448.72 314.61, 451.26 313.50, 456.18 311.22 C 461.11 308.94, 463.54 307.91, 468.48 305.66 C 473.42 303.41, 475.89 302.32, 480.88 299.98 C 485.87 297.64, 488.41 296.49, 493.43 293.97 C 498.46 291.45, 501.04 290.16, 506.02 287.39 C 511.00 284.62, 513.60 283.10, 518.34 280.12 C 523.08 277.13, 525.44 275.51, 529.71 272.45 C 533.98 269.39, 536.09 267.73, 539.71 264.82 C 543.33 261.91, 545.09 260.41, 547.82 257.89 C 550.54 255.36, 552.01 254.32, 553.34 252.17 C 554.68 250.03, 554.95 248.51, 554.49 247.14 C 554.03 245.78, 552.95 244.90, 551.05 245.36 C 549.15 245.82, 547.89 246.80, 544.99 249.46 C 542.10 252.13, 540.52 254.25, 536.59 258.69 C 532.65 263.12, 530.19 265.95, 525.30 271.64 C 520.41 277.33, 517.49 280.68, 512.14 287.13 C 506.79 293.57, 503.82 297.19, 498.55 303.87 C 493.29 310.55, 490.50 314.16, 485.81 320.53 C 481.11 326.90, 478.83 330.18, 475.07 335.72 C 471.32 341.27, 469.60 343.93, 467.04 348.27 C 464.49 352.61, 463.15 354.33, 462.29 357.43 C 461.43 360.54, 461.70 361.92, 462.74 363.80 C 463.78 365.67, 465.00 366.55, 467.50 366.81 C 469.99 367.07, 471.73 366.59, 475.20 365.10 C 478.67 363.61, 480.58 362.07, 484.86 359.37 C 489.13 356.66, 491.60 354.89, 496.58 351.56 C 501.57 348.23, 504.41 346.26, 509.78 342.72 C 515.16 339.17, 518.14 337.19, 523.46 333.84 C 528.78 330.49, 531.56 328.75, 536.39 325.97 C 541.22 323.20, 543.60 321.90, 547.63 319.98 C 551.65 318.06, 553.58 317.51, 556.52 316.38 C 559.46 315.26, 560.64 315.00, 562.33 314.37 C 564.01 313.74, 564.45 313.61, 564.94 313.23 C 565.42 312.86, 565.21 312.70, 564.77 312.50 C 564.33 312.30, 563.69 312.04, 562.73 312.25 C 561.76 312.45, 561.25 312.75, 559.95 313.52 C 558.65 314.29, 557.99 314.92, 556.22 316.10 C 554.46 317.28, 553.33 317.82, 551.13 319.41 C 548.94 321.00, 547.68 322.05, 545.24 324.05 C 542.79 326.04, 541.39 327.16, 538.91 329.39 C 536.42 331.62, 535.00 332.84, 532.81 335.20 C 530.63 337.56, 529.43 338.82, 527.98 341.19 C 526.52 343.56, 525.93 344.84, 525.55 347.06 C 525.18 349.28, 525.25 350.52, 526.10 352.28 C 526.94 354.05, 527.79 354.99, 529.76 355.88 C 531.74 356.77, 533.20 357.16, 535.98 356.74 C 538.75 356.32, 540.34 355.44, 543.63 353.77 C 546.93 352.11, 548.73 350.83, 552.45 348.40 C 556.16 345.98, 558.30 344.45, 562.21 341.65 C 566.11 338.85, 568.32 337.13, 571.99 334.41 C 575.65 331.68, 578.13 330.36, 580.52 328.03 C 582.91 325.71, 583.70 324.23, 583.94 322.78 C 584.17 321.34, 583.29 320.71, 581.70 320.79 C 580.10 320.88, 578.40 321.37, 575.97 323.22 C 573.54 325.07, 572.01 327.08, 569.54 330.03 C 567.08 332.99, 565.52 334.97, 563.64 338.01 C 561.76 341.04, 560.74 342.59, 560.16 345.22 C 559.58 347.86, 559.75 349.24, 560.74 351.19 C 561.73 353.14, 562.74 354.21, 565.11 354.98 C 567.47 355.75, 569.24 355.78, 572.56 355.05 C 575.89 354.31, 577.72 353.14, 581.73 351.30 C 585.75 349.45, 588.08 348.18, 592.65 345.81 C 597.22 343.45, 599.88 341.97, 604.58 339.48 C 609.28 336.99, 611.90 335.46, 616.16 333.36 C 620.41 331.25, 623.00 330.43, 625.85 328.96 C 628.69 327.49, 629.73 326.70, 630.39 326.01 C 631.05 325.31, 630.39 324.96, 629.16 325.47 C 627.92 325.99, 626.42 326.68, 624.21 328.58 C 622.00 330.48, 620.58 332.41, 618.13 334.96 C 615.67 337.52, 613.73 338.88, 611.95 341.36 C 610.17 343.83, 609.44 345.35, 609.25 347.34 C 609.05 349.33, 609.45 350.39, 610.97 351.31 C 612.49 352.24, 613.97 352.67, 616.84 351.94 C 619.71 351.22, 621.40 349.68, 625.33 347.69 C 629.26 345.69, 631.75 344.21, 636.47 341.96 C 641.20 339.71, 644.10 338.29, 648.94 336.43 C 653.78 334.57, 656.78 333.72, 660.68 332.66 C 664.58 331.61, 666.42 331.53, 668.43 331.15 C 670.44 330.77, 670.70 330.49, 670.73 330.76 C 670.77 331.03, 669.95 331.34, 668.63 332.49 C 667.31 333.64, 665.75 334.55, 664.15 336.50 C 662.54 338.45, 661.47 339.91, 660.61 342.25 C 659.75 344.58, 659.46 346.12, 659.83 348.17 C 660.20 350.23, 660.70 351.37, 662.46 352.52 C 664.21 353.66, 665.66 354.27, 668.61 353.90 C 671.55 353.54, 673.27 352.40, 677.18 350.67 C 681.09 348.94, 683.42 347.60, 688.15 345.25 C 692.89 342.90, 695.77 341.40, 700.84 338.91 C 705.91 336.42, 709.05 334.78, 713.50 332.80 C 717.96 330.81, 720.51 330.14, 723.14 328.97 C 725.76 327.81, 726.36 327.19, 726.64 326.95 C 726.91 326.72, 726.04 326.78, 724.53 327.80 C 723.02 328.83, 721.35 329.97, 719.08 332.08 C 716.81 334.20, 715.09 335.81, 713.18 338.38 C 711.27 340.96, 710.20 342.51, 709.53 344.95 C 708.87 347.40, 708.85 348.84, 709.87 350.63 C 710.90 352.41, 712.03 353.50, 714.67 353.89 C 717.31 354.29, 719.06 353.76, 723.08 352.60 C 727.09 351.45, 729.45 350.32, 734.74 348.12 C 740.03 345.93, 743.23 344.50, 749.52 341.62 C 755.81 338.73, 759.40 337.04, 766.21 333.68 C 773.01 330.33, 776.75 328.45, 783.54 324.83 C 790.32 321.21, 793.92 319.25, 800.11 315.57 C 806.31 311.89, 809.31 309.96, 814.51 306.44 C 819.70 302.93, 822.11 301.16, 826.08 298.00 C 830.04 294.85, 831.84 293.44, 834.35 290.68 C 836.86 287.91, 837.87 286.59, 838.62 284.16 C 839.36 281.74, 839.14 280.41, 838.08 278.56 C 837.02 276.71, 835.82 275.62, 833.33 274.92 C 830.83 274.23, 829.06 274.19, 825.62 275.09 C 822.17 275.99, 820.24 277.06, 816.12 279.42 C 812.00 281.77, 809.65 283.21, 805.01 286.85 C 800.36 290.50, 797.85 292.73, 792.90 297.63 C 787.95 302.53, 785.25 305.40, 780.25 311.37 C 775.25 317.34, 772.66 320.76, 767.90 327.49 C 763.14 334.22, 760.79 338.01, 756.45 345.04 C 752.12 352.07, 749.99 355.85, 746.22 362.64 C 742.45 369.43, 740.71 372.96, 737.60 378.97 C 734.49 384.97, 733.09 387.96, 730.67 392.65 C 728.25 397.35, 726.78 399.50, 725.49 402.43 C 724.20 405.36, 724.18 406.25, 724.21 407.29 C 724.25 408.33, 724.80 408.44, 725.65 407.62 C 726.49 406.80, 727.65 405.75, 728.43 403.20 C 729.21 400.64, 729.09 398.46, 729.55 394.84 C 730.01 391.21, 730.15 388.88, 730.73 385.08 C 731.31 381.27, 731.73 379.23, 732.47 375.81 C 733.21 372.39, 733.61 370.71, 734.45 367.98 C 735.29 365.25, 735.53 364.05, 736.67 362.17 C 737.82 360.29, 738.29 359.81, 740.19 358.59 C 742.09 357.38, 743.09 356.97, 746.18 356.10 C 749.27 355.22, 751.22 354.84, 755.64 354.21 C 760.06 353.58, 762.81 353.40, 768.28 352.93 C 773.75 352.46, 776.92 352.28, 782.99 351.88 C 789.06 351.48, 792.39 351.31, 798.63 350.93 C 804.86 350.55, 808.22 350.37, 814.15 349.98 C 820.09 349.59, 823.08 349.36, 828.28 348.98 C 833.48 348.61, 836.20 348.40, 840.15 348.11 C 844.11 347.82, 845.68 348.00, 848.08 347.53 C 850.48 347.06, 851.09 346.39, 852.16 345.78 C 853.23 345.17, 853.25 344.95, 853.45 344.49 C 853.65 344.03, 853.53 343.78, 853.16 343.49 C 852.79 343.19, 852.73 343.16, 851.58 343.01 C 850.43 342.87, 849.79 342.56, 847.41 342.75 C 845.04 342.95, 843.59 343.44, 839.70 344.00 C 835.82 344.57, 833.13 345.01, 827.97 345.59 C 822.82 346.18, 819.84 346.45, 813.93 346.91 C 808.03 347.37, 804.68 347.55, 798.45 347.90 C 792.22 348.25, 788.89 348.39, 782.81 348.66 C 776.73 348.94, 773.57 349.03, 768.04 349.28 C 762.51 349.53, 759.79 349.53, 755.16 349.90 C 750.54 350.27, 748.48 350.30, 744.91 351.13 C 741.33 351.96, 739.82 352.41, 737.27 354.05 C 734.73 355.69, 733.78 356.86, 732.18 359.33 C 730.58 361.79, 730.21 363.30, 729.26 366.38 C 728.31 369.46, 728.21 371.19, 727.45 374.72 C 726.69 378.26, 726.33 380.28, 725.46 384.07 C 724.59 387.86, 723.96 390.07, 723.11 393.67 C 722.26 397.28, 721.26 399.27, 721.22 402.09 C 721.18 404.92, 721.95 406.47, 722.91 407.78 C 723.87 409.08, 724.74 409.33, 726.04 408.63 C 727.35 407.94, 727.93 407.23, 729.42 404.30 C 730.92 401.38, 731.42 398.84, 733.52 394.00 C 735.61 389.17, 736.95 386.17, 739.90 380.12 C 742.85 374.08, 744.56 370.54, 748.26 363.76 C 751.95 356.98, 754.07 353.21, 758.37 346.22 C 762.68 339.23, 765.02 335.47, 769.78 328.83 C 774.54 322.18, 777.14 318.81, 782.16 312.98 C 787.18 307.16, 789.89 304.36, 794.88 299.69 C 799.86 295.02, 802.42 292.89, 807.07 289.63 C 811.72 286.37, 814.15 285.16, 818.14 283.39 C 822.13 281.62, 824.14 281.46, 827.03 280.80 C 829.91 280.14, 830.93 280.17, 832.57 280.08 C 834.21 279.99, 834.78 279.86, 835.22 280.37 C 835.65 280.88, 835.54 281.13, 834.74 282.64 C 833.94 284.15, 833.35 285.35, 831.20 287.92 C 829.05 290.50, 827.63 292.26, 823.98 295.51 C 820.32 298.76, 817.97 300.60, 812.93 304.18 C 807.90 307.76, 804.93 309.71, 798.82 313.41 C 792.71 317.10, 789.13 319.07, 782.38 322.65 C 775.63 326.24, 771.88 328.10, 765.07 331.34 C 758.26 334.58, 754.65 336.23, 748.32 338.87 C 741.98 341.52, 738.71 342.80, 733.41 344.57 C 728.11 346.33, 725.55 346.86, 721.82 347.69 C 718.09 348.52, 716.65 348.42, 714.78 348.71 C 712.91 349.01, 712.57 349.42, 712.48 349.18 C 712.38 348.95, 713.01 348.71, 714.30 347.53 C 715.60 346.34, 716.91 345.39, 718.96 343.26 C 721.02 341.14, 722.68 339.52, 724.57 336.92 C 726.46 334.32, 727.82 332.57, 728.42 330.25 C 729.01 327.93, 728.92 326.47, 727.56 325.32 C 726.20 324.16, 724.77 323.69, 721.62 324.47 C 718.47 325.24, 716.29 326.98, 711.81 329.20 C 707.33 331.42, 704.29 333.10, 699.21 335.57 C 694.14 338.03, 691.21 339.47, 686.43 341.51 C 681.65 343.56, 679.13 344.57, 675.32 345.79 C 671.51 347.00, 669.68 346.96, 667.39 347.60 C 665.09 348.24, 664.50 348.81, 663.83 349.01 C 663.17 349.21, 663.44 349.21, 664.07 348.60 C 664.71 347.98, 665.66 347.44, 667.01 345.94 C 668.36 344.45, 669.52 343.34, 670.81 341.14 C 672.10 338.93, 673.04 337.23, 673.46 334.91 C 673.88 332.59, 673.95 331.16, 672.92 329.52 C 671.88 327.89, 670.96 326.94, 668.27 326.73 C 665.59 326.52, 663.65 327.26, 659.50 328.47 C 655.35 329.68, 652.47 330.84, 647.53 332.77 C 642.58 334.71, 639.63 336.10, 634.77 338.13 C 629.90 340.15, 627.22 341.33, 623.19 342.88 C 619.16 344.43, 617.00 344.68, 614.63 345.87 C 612.25 347.06, 611.73 348.15, 611.32 348.81 C 610.91 349.46, 611.40 349.68, 612.57 349.14 C 613.75 348.60, 615.05 347.94, 617.18 346.09 C 619.32 344.25, 620.79 342.46, 623.26 339.90 C 625.72 337.35, 627.75 335.88, 629.52 333.33 C 631.29 330.77, 631.98 329.07, 632.11 327.11 C 632.25 325.16, 631.87 324.07, 630.21 323.54 C 628.55 323.01, 626.99 323.19, 623.81 324.45 C 620.62 325.70, 618.49 327.46, 614.29 329.80 C 610.09 332.15, 607.51 333.68, 602.82 336.15 C 598.13 338.63, 595.44 340.04, 590.86 342.16 C 586.27 344.28, 583.82 345.37, 579.89 346.75 C 575.95 348.13, 573.97 348.37, 571.18 349.06 C 568.38 349.74, 567.34 350.03, 565.91 350.17 C 564.48 350.31, 564.16 350.38, 564.00 349.75 C 563.85 349.11, 564.19 348.64, 565.13 346.99 C 566.07 345.34, 566.78 343.97, 568.71 341.50 C 570.63 339.03, 572.27 337.25, 574.74 334.63 C 577.21 332.00, 579.27 330.68, 581.05 328.37 C 582.84 326.05, 583.45 324.53, 583.66 323.05 C 583.86 321.57, 583.43 320.80, 582.08 320.97 C 580.73 321.14, 579.49 321.92, 576.93 323.91 C 574.36 325.91, 572.70 328.09, 569.26 330.93 C 565.82 333.78, 563.60 335.48, 559.74 338.15 C 555.88 340.82, 553.68 342.25, 549.97 344.29 C 546.27 346.34, 544.27 347.16, 541.20 348.35 C 538.13 349.55, 536.68 349.68, 534.64 350.25 C 532.61 350.82, 532.00 351.09, 531.03 351.19 C 530.06 351.29, 529.91 351.27, 529.79 350.74 C 529.68 350.21, 529.81 349.76, 530.46 348.53 C 531.12 347.31, 531.71 346.45, 533.08 344.61 C 534.45 342.77, 535.34 341.48, 537.31 339.34 C 539.27 337.21, 540.52 335.95, 542.89 333.93 C 545.26 331.90, 546.70 330.92, 549.16 329.20 C 551.61 327.47, 552.94 326.70, 555.14 325.29 C 557.34 323.88, 558.31 323.31, 560.15 322.16 C 561.99 321.00, 563.00 320.67, 564.34 319.51 C 565.67 318.34, 566.27 317.67, 566.84 316.33 C 567.41 315.00, 567.48 314.02, 567.18 312.82 C 566.87 311.61, 566.50 310.89, 565.29 310.31 C 564.09 309.73, 563.28 309.56, 561.17 309.91 C 559.06 310.27, 557.78 310.73, 554.73 312.09 C 551.69 313.46, 549.94 314.50, 545.95 316.73 C 541.96 318.97, 539.60 320.33, 534.78 323.25 C 529.97 326.17, 527.20 327.94, 521.87 331.32 C 516.53 334.70, 513.55 336.68, 508.12 340.15 C 502.69 343.62, 499.81 345.55, 494.73 348.65 C 489.64 351.75, 487.03 353.35, 482.70 355.65 C 478.36 357.94, 476.13 358.75, 473.04 360.11 C 469.95 361.48, 468.79 361.96, 467.24 362.46 C 465.69 362.95, 465.48 363.36, 465.30 362.61 C 465.12 361.86, 465.44 361.26, 466.35 358.70 C 467.26 356.14, 467.67 354.12, 469.85 349.81 C 472.02 345.49, 473.67 342.73, 477.23 337.14 C 480.80 331.56, 483.05 328.27, 487.67 321.89 C 492.29 315.52, 495.06 311.91, 500.32 305.27 C 505.58 298.63, 508.56 295.02, 513.98 288.67 C 519.40 282.32, 522.34 278.99, 527.41 273.53 C 532.48 268.06, 535.10 265.37, 539.33 261.33 C 543.56 257.29, 545.77 255.88, 548.55 253.34 C 551.33 250.81, 552.40 249.98, 553.22 248.66 C 554.04 247.33, 553.45 246.66, 552.66 246.72 C 551.88 246.78, 550.89 247.38, 549.28 248.96 C 547.66 250.55, 546.99 252.06, 544.59 254.65 C 542.19 257.24, 540.64 258.92, 537.26 261.92 C 533.88 264.93, 531.83 266.60, 527.69 269.70 C 523.56 272.79, 521.25 274.40, 516.60 277.38 C 511.96 280.36, 509.39 281.86, 504.47 284.60 C 499.55 287.35, 497.00 288.62, 492.01 291.11 C 487.02 293.61, 484.49 294.75, 479.52 297.07 C 474.55 299.39, 472.08 300.47, 467.14 302.71 C 462.20 304.95, 459.77 305.98, 454.82 308.27 C 449.87 310.56, 447.31 311.68, 442.38 314.14 C 437.44 316.61, 434.92 317.85, 430.14 320.61 C 425.37 323.37, 422.97 324.82, 418.50 327.94 C 414.03 331.07, 411.82 332.80, 407.80 336.22 C 403.79 339.64, 401.78 341.52, 398.43 345.04 C 395.07 348.56, 393.35 350.52, 391.01 353.82 C 388.68 357.13, 387.47 358.82, 386.77 361.56 C 386.07 364.30, 386.52 365.87, 387.51 367.53 C 388.49 369.19, 389.54 369.97, 391.69 369.85 C 393.83 369.72, 395.21 369.03, 398.22 366.89 C 401.23 364.75, 402.82 362.94, 406.74 359.14 C 410.65 355.33, 413.03 352.97, 417.81 347.86 C 422.59 342.75, 425.38 339.68, 430.65 333.59 C 435.91 327.51, 438.83 323.98, 444.11 317.43 C 449.39 310.88, 452.21 307.27, 457.06 300.82 C 461.91 294.38, 464.33 291.04, 468.37 285.21 C 472.41 279.38, 474.31 276.52, 477.28 271.67 C 480.25 266.83, 481.69 264.72, 483.22 260.97 C 484.75 257.23, 485.23 255.54, 484.91 252.94 C 484.59 250.33, 483.57 249.12, 481.61 247.94 C 479.64 246.77, 478.11 246.48, 475.08 247.06 C 472.05 247.65, 470.37 248.89, 466.45 250.87 C 462.53 252.85, 460.22 254.15, 455.47 256.96 C 450.73 259.77, 447.99 261.51, 442.71 264.91 C 437.44 268.32, 434.52 270.27, 429.11 274.00 C 423.69 277.72, 420.87 279.80, 415.65 283.56 C 410.44 287.31, 407.74 289.26, 403.02 292.75 C 398.30 296.23, 395.80 298.12, 392.05 300.98 C 388.30 303.85, 386.49 304.95, 384.26 307.08 C 382.02 309.21, 381.23 310.34, 380.87 311.63 C 380.52 312.93, 381.15 313.68, 382.49 313.55" style="stroke: black; fill: black;"/></g></svg>