<svg id="canvas" width="363.015" height="231.305" viewBox="372.619 206.349 363.015 231.305" preserveAspectRatio="xMidYMid meet" class="h-full w-full max-w-4xl text-primary transition-opacity duration-300 opacity-100" xmlns="http://www.w3.org/2000/svg"><g id="canvas-strokes"><path d="M 392.81,210.71 C 392.04 212.66, 392.05 215.30, 391.53 220.70 C 391.01 226.11, 390.88 229.74, 390.20 237.75 C 389.52 245.77, 388.96 250.86, 388.11 260.79 C 387.26 270.72, 386.93 276.33, 385.96 287.41 C 384.98 298.49, 384.41 304.58, 383.23 316.18 C 382.04 327.78, 381.25 334.49, 380.03 345.42 C 378.80 356.34, 377.96 361.79, 377.10 370.81 C 376.24 379.83, 375.88 384.37, 375.75 390.50 C 375.61 396.63, 375.36 399.49, 376.40 401.47 C 377.44 403.45, 379.38 402.48, 380.95 400.40 C 382.51 398.31, 383.24 395.09, 384.24 391.06 C 385.24 387.02, 386.49 382.56, 385.94 380.22 C 385.39 377.88, 382.86 377.42, 381.49 379.36 C 380.11 381.31, 379.82 385.97, 379.07 389.93 C 378.33 393.89, 377.87 396.96, 377.76 399.15 C 377.66 401.35, 378.46 402.65, 378.56 400.92 C 378.66 399.20, 378.18 396.54, 378.27 390.55 C 378.37 384.56, 378.34 379.97, 379.03 370.98 C 379.72 361.99, 380.55 356.53, 381.72 345.60 C 382.89 334.68, 383.68 327.96, 384.88 316.35 C 386.08 304.75, 386.65 298.65, 387.72 287.57 C 388.78 276.50, 389.19 270.90, 390.19 260.98 C 391.20 251.07, 391.88 245.99, 392.73 238.00 C 393.58 230.00, 393.93 226.39, 394.45 220.99 C 394.98 215.59, 395.69 213.05, 395.36 210.99 C 395.03 208.94, 393.57 208.77, 392.81 210.71" style="stroke: black; fill: black;"/><path d="M 441.86,244.48 C 441.46 245.77, 442.15 246.77, 442.17 250.47 C 442.18 254.18, 442.35 256.86, 441.93 262.99 C 441.52 269.13, 441.19 273.04, 440.09 281.16 C 438.99 289.27, 438.02 294.29, 436.44 303.57 C 434.85 312.85, 433.79 318.11, 432.16 327.55 C 430.52 336.99, 429.62 342.47, 428.26 350.76 C 426.89 359.05, 426.46 363.63, 425.32 369.00 C 424.18 374.38, 422.80 375.79, 422.57 377.63 C 422.34 379.47, 423.17 379.83, 424.18 378.20 C 425.18 376.58, 426.35 374.93, 427.61 369.51 C 428.87 364.09, 429.16 359.44, 430.48 351.12 C 431.79 342.79, 432.57 337.34, 434.19 327.90 C 435.81 318.47, 436.88 313.22, 438.58 303.95 C 440.28 294.68, 441.35 289.68, 442.68 281.54 C 444.02 273.41, 444.55 269.53, 445.26 263.29 C 445.97 257.05, 446.45 254.20, 446.23 250.35 C 446.01 246.50, 445.04 245.21, 444.17 244.04 C 443.30 242.86, 442.26 243.19, 441.86 244.48" style="stroke: black; fill: black;"/><path d="M 392.03,318.06 C 393.12 319.08, 394.58 320.34, 397.83 320.67 C 401.08 321.00, 406.21 320.79, 408.29 319.71 C 410.36 318.62, 410.26 316.27, 408.22 315.25 C 406.17 314.23, 401.24 314.55, 398.08 314.61 C 394.91 314.68, 393.60 314.88, 392.39 315.57 C 391.18 316.26, 390.94 317.03, 392.03 318.06" style="stroke: black; fill: black;"/><path d="M 494.52,296.90 C 494.37 295.85, 494.18 294.62, 492.31 293.54 C 490.44 292.47, 488.63 291.13, 485.17 291.52 C 481.70 291.91, 479.18 292.72, 474.98 295.51 C 470.77 298.29, 468.32 300.44, 464.15 305.43 C 459.99 310.42, 457.68 313.97, 454.16 320.43 C 450.63 326.89, 448.71 331.17, 446.54 337.72 C 444.36 344.27, 443.40 347.81, 443.28 353.18 C 443.16 358.55, 443.67 361.55, 445.93 364.57 C 448.18 367.59, 450.52 368.45, 454.57 368.26 C 458.62 368.08, 461.30 366.51, 466.17 363.64 C 471.04 360.76, 473.95 358.65, 478.92 353.90 C 483.89 349.15, 486.81 345.58, 491.02 339.89 C 495.23 334.19, 497.11 330.69, 499.98 325.43 C 502.84 320.17, 504.11 317.46, 505.34 313.59 C 506.57 309.71, 506.82 307.72, 506.12 306.06 C 505.42 304.39, 503.51 303.80, 501.85 305.28 C 500.19 306.76, 499.11 309.03, 497.82 313.44 C 496.53 317.86, 496.07 321.30, 495.39 327.35 C 494.71 333.41, 494.42 337.31, 494.40 343.72 C 494.39 350.14, 494.53 353.86, 495.32 359.43 C 496.10 364.99, 496.56 367.68, 498.35 371.53 C 500.13 375.38, 501.38 377.27, 504.24 378.69 C 507.10 380.10, 509.23 379.85, 512.65 378.61 C 516.08 377.36, 517.89 375.61, 521.37 372.48 C 524.84 369.34, 526.59 367.45, 530.03 362.93 C 533.47 358.40, 535.29 355.28, 538.58 349.85 C 541.86 344.42, 543.58 340.97, 546.46 335.79 C 549.34 330.60, 551.26 327.55, 552.97 323.94 C 554.69 320.33, 555.13 318.68, 555.03 317.74 C 554.92 316.81, 553.46 317.24, 552.45 319.27 C 551.45 321.30, 551.19 323.73, 550.00 327.90 C 548.81 332.06, 547.74 335.38, 546.51 340.08 C 545.28 344.79, 544.51 347.59, 543.84 351.41 C 543.18 355.24, 542.72 357.02, 543.20 359.20 C 543.68 361.38, 544.56 362.47, 546.23 362.33 C 547.90 362.19, 549.11 361.31, 551.55 358.50 C 553.98 355.69, 555.08 352.85, 558.40 348.28 C 561.72 343.71, 564.07 340.36, 568.15 335.66 C 572.24 330.95, 574.82 328.28, 578.83 324.76 C 582.85 321.23, 585.35 319.77, 588.21 318.05 C 591.08 316.33, 591.97 315.85, 593.17 316.15 C 594.37 316.45, 593.91 317.41, 594.21 319.55 C 594.52 321.69, 594.57 323.39, 594.69 326.87 C 594.80 330.36, 594.91 332.69, 594.79 336.96 C 594.66 341.23, 594.23 343.98, 594.08 348.23 C 593.93 352.47, 593.44 354.84, 594.05 358.20 C 594.66 361.55, 595.38 363.40, 597.13 364.99 C 598.88 366.59, 600.32 367.08, 602.78 366.18 C 605.25 365.28, 606.60 363.81, 609.45 360.50 C 612.30 357.20, 613.69 354.74, 617.03 349.67 C 620.37 344.60, 622.36 340.98, 626.17 335.15 C 629.98 329.33, 632.62 325.29, 636.08 320.53 C 639.54 315.78, 641.84 313.56, 643.47 311.39 C 645.10 309.23, 644.43 308.65, 644.24 309.72 C 644.05 310.79, 643.48 312.69, 642.52 316.74 C 641.56 320.78, 640.65 324.62, 639.44 329.95 C 638.23 335.28, 637.19 338.89, 636.47 343.39 C 635.75 347.89, 635.45 349.80, 635.85 352.44 C 636.25 355.07, 637.51 355.79, 638.47 356.57 C 639.43 357.35, 640.23 356.56, 640.65 356.34 C 641.07 356.11, 640.67 355.60, 640.56 355.43 C 640.45 355.25, 640.11 356.10, 640.11 355.46 C 640.11 354.82, 640.38 354.50, 640.57 352.23 C 640.76 349.97, 640.37 348.39, 641.07 344.14 C 641.77 339.88, 642.90 336.31, 644.05 330.98 C 645.21 325.64, 646.40 321.86, 646.85 317.46 C 647.30 313.06, 647.50 310.75, 646.29 308.98 C 645.09 307.21, 643.44 306.73, 640.82 308.63 C 638.21 310.53, 636.70 313.55, 633.22 318.49 C 629.75 323.44, 627.30 327.55, 623.44 333.36 C 619.59 339.17, 617.45 342.72, 613.95 347.54 C 610.45 352.36, 608.58 354.46, 605.95 357.47 C 603.33 360.47, 602.06 361.46, 600.83 362.55 C 599.60 363.64, 600.08 363.92, 599.80 362.91 C 599.52 361.91, 599.60 360.44, 599.43 357.53 C 599.26 354.61, 598.88 352.43, 598.95 348.36 C 599.02 344.28, 599.57 341.50, 599.79 337.16 C 600.01 332.82, 600.25 330.45, 600.05 326.64 C 599.85 322.84, 600.00 320.85, 598.80 318.13 C 597.59 315.41, 596.53 313.76, 594.02 313.04 C 591.51 312.33, 589.78 312.73, 586.27 314.54 C 582.76 316.35, 580.64 318.36, 576.48 322.10 C 572.32 325.85, 569.76 328.56, 565.47 333.27 C 561.18 337.99, 558.61 341.25, 555.02 345.68 C 551.43 350.12, 549.48 352.48, 547.53 355.46 C 545.58 358.43, 545.40 359.75, 545.29 360.55 C 545.18 361.34, 546.26 361.05, 546.98 359.44 C 547.70 357.82, 547.98 356.08, 548.88 352.47 C 549.77 348.86, 550.23 346.04, 551.46 341.39 C 552.70 336.74, 554.04 333.49, 555.05 329.21 C 556.06 324.92, 556.72 322.48, 556.50 319.97 C 556.27 317.46, 555.35 316.24, 553.92 316.65 C 552.49 317.06, 551.46 318.50, 549.36 322.00 C 547.26 325.50, 546.14 328.92, 543.42 334.15 C 540.70 339.38, 539.03 342.84, 535.77 348.14 C 532.52 353.45, 530.59 356.44, 527.15 360.67 C 523.72 364.90, 521.83 366.56, 518.59 369.31 C 515.35 372.06, 513.48 373.26, 510.96 374.42 C 508.44 375.59, 507.83 376.01, 505.99 375.12 C 504.16 374.22, 503.27 373.18, 501.80 369.94 C 500.34 366.71, 499.47 364.17, 498.66 358.93 C 497.86 353.69, 497.63 349.97, 497.76 343.76 C 497.89 337.55, 498.41 333.70, 499.33 327.88 C 500.25 322.07, 501.26 318.86, 502.34 314.69 C 503.42 310.52, 504.43 308.76, 504.73 307.05 C 505.03 305.33, 504.44 305.07, 503.82 306.12 C 503.20 307.18, 502.96 308.75, 501.63 312.32 C 500.31 315.88, 499.79 318.80, 497.19 323.97 C 494.60 329.13, 492.74 332.61, 488.65 338.13 C 484.56 343.66, 481.60 347.09, 476.75 351.60 C 471.91 356.10, 468.91 358.04, 464.42 360.65 C 459.93 363.26, 457.42 364.26, 454.29 364.64 C 451.15 365.02, 450.30 364.82, 448.73 362.54 C 447.16 360.26, 446.33 358.04, 446.45 353.25 C 446.56 348.47, 447.24 344.91, 449.29 338.63 C 451.35 332.35, 453.25 328.05, 456.72 321.85 C 460.20 315.65, 462.58 312.14, 466.68 307.62 C 470.78 303.11, 473.40 301.26, 477.22 299.26 C 481.03 297.26, 483.10 297.82, 485.74 297.64 C 488.39 297.45, 488.97 298.11, 490.43 298.34 C 491.89 298.57, 492.23 299.06, 493.05 298.77 C 493.87 298.49, 494.67 297.94, 494.52 296.90" style="stroke: black; fill: black;"/><path d="M 653.87,258.04 C 653.40 257.18, 652.72 256.89, 652.31 257.08 C 651.90 257.27, 651.77 258.12, 651.81 259.01 C 651.84 259.89, 652.10 260.73, 652.50 261.51 C 652.90 262.30, 653.37 262.96, 653.81 262.94 C 654.24 262.91, 654.66 262.37, 654.67 261.39 C 654.68 260.41, 654.34 258.91, 653.87 258.04" style="stroke: black; fill: black;"/><path d="M 731.41,261.59 C 732.18 260.77, 732.68 259.73, 732.63 257.76 C 732.58 255.80, 732.39 254.16, 731.15 251.78 C 729.92 249.40, 728.90 247.84, 726.46 245.86 C 724.02 243.89, 722.36 242.84, 718.93 241.89 C 715.51 240.94, 713.33 240.28, 709.36 241.09 C 705.38 241.91, 703.06 242.68, 699.06 245.97 C 695.05 249.25, 692.59 251.61, 689.32 257.51 C 686.06 263.42, 685.00 267.38, 682.71 275.49 C 680.43 283.60, 679.29 288.42, 677.90 298.05 C 676.52 307.67, 676.26 313.08, 675.79 323.62 C 675.31 334.16, 675.69 340.05, 675.53 350.77 C 675.37 361.49, 675.36 367.10, 674.99 377.22 C 674.61 387.33, 674.45 392.80, 673.65 401.36 C 672.85 409.91, 672.19 414.06, 670.98 420.00 C 669.77 425.95, 668.57 428.85, 667.60 431.10 C 666.63 433.34, 666.94 432.64, 666.13 431.21 C 665.32 429.79, 664.80 427.05, 663.56 423.95 C 662.32 420.86, 661.41 417.09, 659.92 415.72 C 658.44 414.35, 656.36 415.03, 656.12 417.10 C 655.88 419.18, 657.15 422.79, 658.74 426.09 C 660.32 429.38, 661.72 432.25, 664.05 433.58 C 666.39 434.91, 668.53 435.38, 670.42 432.76 C 672.31 430.14, 672.47 426.72, 673.52 420.47 C 674.57 414.23, 675.02 410.17, 675.67 401.53 C 676.33 392.89, 676.47 387.43, 676.80 377.28 C 677.12 367.13, 677.12 361.51, 677.28 350.79 C 677.45 340.08, 677.09 334.20, 677.62 323.71 C 678.14 313.22, 678.43 307.86, 679.91 298.35 C 681.39 288.84, 682.62 284.04, 685.02 276.17 C 687.41 268.29, 688.62 264.44, 691.89 258.99 C 695.15 253.54, 697.71 251.57, 701.35 248.92 C 704.99 246.28, 706.96 246.07, 710.09 245.77 C 713.22 245.48, 714.63 246.39, 716.99 247.46 C 719.35 248.52, 720.28 249.53, 721.87 251.09 C 723.45 252.66, 723.91 253.65, 724.92 255.27 C 725.93 256.90, 726.13 257.89, 726.91 259.21 C 727.68 260.53, 727.90 261.38, 728.80 261.86 C 729.70 262.34, 730.65 262.41, 731.41 261.59" style="stroke: black; fill: black;"/><path d="M 647.96,327.36 C 649.04 327.87, 649.75 327.99, 652.79 327.72 C 655.84 327.45, 658.47 326.69, 663.20 325.99 C 667.94 325.30, 671.01 324.70, 676.48 324.26 C 681.94 323.82, 684.94 323.83, 690.52 323.78 C 696.10 323.72, 699.20 323.58, 704.37 323.99 C 709.54 324.40, 712.23 325.09, 716.39 325.82 C 720.54 326.55, 722.33 327.18, 725.15 327.64 C 727.98 328.11, 729.31 328.41, 730.50 328.15 C 731.69 327.89, 731.97 327.28, 731.11 326.33 C 730.24 325.39, 728.99 324.33, 726.17 323.43 C 723.35 322.53, 721.32 322.43, 717.01 321.84 C 712.69 321.25, 709.90 320.78, 704.60 320.49 C 699.31 320.19, 696.18 320.37, 690.51 320.35 C 684.84 320.33, 681.82 320.18, 676.25 320.39 C 670.68 320.60, 667.53 320.97, 662.66 321.40 C 657.80 321.84, 654.97 321.79, 651.92 322.55 C 648.88 323.30, 648.23 324.21, 647.43 325.17 C 646.64 326.14, 646.89 326.85, 647.96 327.36" style="stroke: black; fill: black;"/></g></svg>