<svg id="canvas" width="426.205" height="144.560" viewBox="381.316 236.243 426.205 144.560" preserveAspectRatio="xMidYMid meet" class="h-full w-full max-w-4xl text-primary transition-opacity duration-300 opacity-100" xmlns="http://www.w3.org/2000/svg"><g id="canvas-strokes"><path d="M 389.16,239.51 C 388.42 240.01, 387.75 240.52, 387.34 242.42 C 386.93 244.32, 386.90 245.54, 387.11 249.01 C 387.32 252.48, 387.69 254.61, 388.38 259.77 C 389.06 264.92, 389.73 268.29, 390.53 274.79 C 391.34 281.30, 391.78 285.35, 392.42 292.28 C 393.05 299.21, 393.31 302.98, 393.71 309.45 C 394.11 315.92, 394.23 319.07, 394.42 324.65 C 394.61 330.22, 394.56 332.70, 394.65 337.32 C 394.73 341.93, 394.68 344.10, 394.84 347.71 C 395.00 351.33, 394.94 353.03, 395.45 355.40 C 395.95 357.77, 396.66 358.69, 397.36 359.58 C 398.05 360.48, 398.55 359.89, 398.92 359.86 C 399.28 359.84, 399.06 359.66, 399.18 359.47 C 399.30 359.28, 399.37 359.87, 399.50 358.93 C 399.64 357.99, 400.04 357.06, 399.85 354.75 C 399.66 352.44, 399.01 350.91, 398.57 347.40 C 398.12 343.88, 397.93 341.76, 397.62 337.19 C 397.30 332.62, 397.29 330.11, 396.98 324.53 C 396.68 318.95, 396.53 315.79, 396.11 309.30 C 395.69 302.80, 395.43 299.03, 394.88 292.07 C 394.32 285.11, 393.90 281.02, 393.31 274.49 C 392.72 267.97, 392.17 264.58, 391.92 259.44 C 391.66 254.31, 392.09 252.17, 392.03 248.82 C 391.98 245.46, 391.84 244.45, 391.64 242.67 C 391.44 240.89, 391.53 240.54, 391.03 239.91 C 390.53 239.27, 389.90 239.00, 389.16 239.51" style="stroke: black; fill: black;"/><path d="M 437.18,250.15 C 436.77 250.76, 436.79 251.01, 436.83 252.68 C 436.88 254.35, 436.90 255.08, 437.40 258.48 C 437.90 261.88, 438.58 264.55, 439.33 269.67 C 440.09 274.79, 440.26 278.11, 441.17 284.06 C 442.09 290.02, 442.78 293.46, 443.91 299.46 C 445.04 305.45, 445.77 308.44, 446.82 314.04 C 447.88 319.63, 448.44 322.52, 449.18 327.44 C 449.92 332.35, 450.02 334.42, 450.54 338.62 C 451.06 342.82, 451.32 345.10, 451.77 348.45 C 452.22 351.79, 452.20 353.20, 452.80 355.35 C 453.39 357.50, 454.05 358.48, 454.74 359.18 C 455.43 359.88, 455.92 359.72, 456.26 358.84 C 456.59 357.96, 456.50 356.98, 456.41 354.78 C 456.32 352.59, 456.33 351.19, 455.81 347.86 C 455.29 344.53, 454.57 342.30, 453.81 338.12 C 453.05 333.95, 452.88 331.89, 452.01 326.97 C 451.14 322.05, 450.55 319.13, 449.46 313.53 C 448.37 307.93, 447.61 304.95, 446.55 298.97 C 445.49 293.00, 444.85 289.60, 444.15 283.66 C 443.46 277.72, 443.41 274.45, 443.07 269.27 C 442.72 264.10, 442.89 261.28, 442.43 257.78 C 441.98 254.28, 441.49 253.42, 440.78 251.79 C 440.08 250.15, 439.63 249.92, 438.91 249.59 C 438.19 249.26, 437.60 249.53, 437.18 250.15" style="stroke: black; fill: black;"/><path d="M 384.92,313.25 C 385.66 313.87, 386.25 314.17, 388.45 314.39 C 390.64 314.62, 392.41 314.63, 395.91 314.37 C 399.41 314.10, 401.41 313.58, 405.95 313.07 C 410.48 312.56, 413.14 312.23, 418.59 311.80 C 424.05 311.37, 427.17 311.38, 433.20 310.94 C 439.24 310.50, 442.39 310.06, 448.78 309.60 C 455.16 309.13, 458.79 308.85, 465.14 308.62 C 471.49 308.38, 474.52 308.50, 480.51 308.43 C 486.50 308.37, 489.83 308.16, 495.10 308.28 C 500.38 308.41, 503.09 308.88, 506.89 309.04 C 510.70 309.20, 512.33 309.58, 514.14 309.10 C 515.94 308.61, 516.18 307.58, 515.93 306.63 C 515.69 305.68, 515.00 304.81, 512.92 304.35 C 510.84 303.90, 509.15 303.85, 505.54 304.37 C 501.92 304.88, 499.32 305.37, 494.85 306.93 C 490.38 308.48, 487.56 309.70, 483.19 312.15 C 478.82 314.60, 476.57 316.39, 473.00 319.18 C 469.43 321.96, 467.50 323.25, 465.33 326.07 C 463.17 328.88, 462.18 330.56, 462.19 333.24 C 462.20 335.91, 463.27 337.68, 465.38 339.43 C 467.49 341.19, 469.38 341.67, 472.75 342.02 C 476.13 342.37, 478.06 341.95, 482.26 341.20 C 486.45 340.45, 489.35 340.03, 493.73 338.25 C 498.11 336.48, 500.09 334.85, 504.15 332.34 C 508.21 329.83, 510.54 328.39, 514.04 325.71 C 517.54 323.02, 519.65 321.43, 521.65 318.90 C 523.64 316.38, 524.02 314.41, 524.00 313.08 C 523.98 311.76, 522.54 311.32, 521.54 312.28 C 520.53 313.24, 519.57 314.98, 518.98 317.89 C 518.39 320.81, 518.12 323.21, 518.57 326.85 C 519.02 330.50, 519.63 333.04, 521.23 336.10 C 522.83 339.16, 524.13 340.40, 526.57 342.15 C 529.01 343.90, 530.39 344.44, 533.45 344.84 C 536.50 345.23, 538.54 344.95, 541.84 344.13 C 545.15 343.32, 546.99 342.69, 549.96 340.76 C 552.94 338.84, 554.24 337.41, 556.74 334.49 C 559.23 331.58, 560.56 329.18, 562.44 326.18 C 564.33 323.17, 565.44 321.29, 566.18 319.46 C 566.93 317.62, 566.32 316.74, 566.17 316.99 C 566.01 317.25, 565.62 318.41, 565.42 320.72 C 565.22 323.02, 564.65 325.55, 565.17 328.51 C 565.69 331.47, 566.52 333.37, 568.03 335.51 C 569.53 337.65, 570.63 338.34, 572.70 339.22 C 574.78 340.09, 575.95 340.01, 578.39 339.90 C 580.83 339.79, 582.14 339.94, 584.90 338.68 C 587.66 337.42, 589.27 336.00, 592.19 333.59 C 595.10 331.18, 596.47 329.43, 599.48 326.63 C 602.49 323.84, 604.64 322.15, 607.25 319.62 C 609.86 317.10, 611.07 315.52, 612.52 314.01 C 613.97 312.50, 613.96 311.92, 614.50 312.08 C 615.04 312.23, 615.02 313.02, 615.20 314.77 C 615.38 316.52, 615.03 318.12, 615.39 320.83 C 615.75 323.54, 616.10 325.23, 616.98 328.32 C 617.86 331.41, 618.27 333.34, 619.79 336.30 C 621.31 339.26, 622.36 340.88, 624.58 343.13 C 626.80 345.37, 628.09 346.27, 630.91 347.54 C 633.72 348.82, 635.63 349.20, 638.64 349.50 C 641.65 349.80, 643.19 349.62, 645.97 349.04 C 648.76 348.45, 650.09 347.87, 652.58 346.57 C 655.07 345.26, 656.45 344.48, 658.42 342.52 C 660.39 340.55, 661.19 339.13, 662.45 336.74 C 663.71 334.35, 664.21 332.65, 664.72 330.57 C 665.24 328.49, 665.23 327.37, 665.04 326.33 C 664.86 325.29, 664.18 325.07, 663.80 325.36 C 663.42 325.66, 662.90 326.33, 663.14 327.81 C 663.38 329.30, 663.59 330.74, 664.99 332.81 C 666.40 334.87, 667.73 336.40, 670.15 338.15 C 672.58 339.89, 674.55 340.70, 677.13 341.54 C 679.70 342.38, 681.05 342.44, 683.03 342.34 C 685.02 342.23, 686.06 341.72, 687.04 341.01 C 688.01 340.29, 687.94 339.35, 687.91 338.76 C 687.88 338.17, 687.24 338.14, 686.87 338.07 C 686.49 338.00, 686.70 338.50, 686.04 338.41 C 685.38 338.32, 684.89 338.10, 683.57 337.62 C 682.24 337.14, 681.26 337.01, 679.43 336.01 C 677.60 335.02, 676.21 334.15, 674.43 332.63 C 672.64 331.11, 671.91 329.90, 670.49 328.43 C 669.07 326.95, 668.53 326.14, 667.33 325.26 C 666.12 324.38, 665.58 324.12, 664.47 324.05 C 663.35 323.97, 662.81 323.97, 661.76 324.89 C 660.72 325.80, 660.11 326.76, 659.24 328.63 C 658.36 330.51, 658.28 332.21, 657.38 334.27 C 656.47 336.32, 656.14 337.37, 654.71 338.91 C 653.27 340.46, 652.15 340.98, 650.20 342.00 C 648.24 343.01, 647.14 343.54, 644.93 343.98 C 642.72 344.43, 641.54 344.45, 639.14 344.24 C 636.75 344.02, 635.15 343.82, 632.97 342.88 C 630.78 341.95, 629.93 341.34, 628.22 339.57 C 626.52 337.79, 625.61 336.54, 624.46 334.02 C 623.30 331.51, 623.03 329.83, 622.45 326.98 C 621.87 324.13, 622.15 322.53, 621.56 319.76 C 620.96 316.99, 620.74 315.17, 619.46 313.13 C 618.18 311.10, 617.09 310.07, 615.17 309.57 C 613.26 309.06, 612.10 309.26, 609.88 310.60 C 607.65 311.95, 606.72 313.73, 604.04 316.28 C 601.36 318.84, 599.44 320.67, 596.48 323.38 C 593.52 326.08, 592.03 327.76, 589.24 329.80 C 586.44 331.84, 584.80 332.47, 582.51 333.56 C 580.22 334.66, 579.46 334.86, 577.79 335.28 C 576.13 335.70, 575.21 336.07, 574.18 335.66 C 573.14 335.25, 572.99 334.89, 572.62 333.23 C 572.25 331.58, 572.70 330.08, 572.32 327.38 C 571.95 324.68, 571.82 322.10, 570.76 319.73 C 569.69 317.35, 568.61 316.06, 567.00 315.50 C 565.40 314.94, 564.50 315.34, 562.73 316.93 C 560.97 318.52, 560.06 320.52, 558.17 323.46 C 556.28 326.40, 555.42 328.96, 553.28 331.63 C 551.15 334.29, 550.01 335.28, 547.48 336.80 C 544.96 338.32, 543.36 338.58, 540.65 339.23 C 537.94 339.87, 536.21 340.17, 533.92 340.04 C 531.63 339.91, 530.78 339.79, 529.20 338.58 C 527.62 337.36, 526.87 336.41, 526.00 333.96 C 525.12 331.51, 524.93 329.45, 524.82 326.34 C 524.71 323.22, 525.60 321.13, 525.45 318.40 C 525.30 315.66, 524.74 313.94, 524.06 312.64 C 523.37 311.34, 523.24 311.26, 522.03 311.89 C 520.83 312.52, 520.09 313.59, 518.02 315.78 C 515.95 317.97, 514.83 320.10, 511.69 322.82 C 508.55 325.54, 506.17 326.98, 502.31 329.37 C 498.45 331.76, 496.53 333.27, 492.39 334.79 C 488.25 336.31, 485.46 336.50, 481.61 336.99 C 477.76 337.47, 475.94 337.39, 473.15 337.23 C 470.36 337.08, 469.14 336.98, 467.64 336.21 C 466.14 335.44, 465.48 334.89, 465.66 333.37 C 465.83 331.85, 466.58 330.87, 468.50 328.60 C 470.42 326.33, 471.97 324.68, 475.25 322.02 C 478.54 319.36, 480.75 317.53, 484.92 315.31 C 489.08 313.09, 491.80 312.03, 496.07 310.92 C 500.34 309.80, 502.87 310.15, 506.25 309.73 C 509.64 309.31, 511.15 309.35, 513.00 308.83 C 514.85 308.31, 515.31 307.68, 515.51 307.12 C 515.72 306.56, 515.72 306.38, 514.03 306.02 C 512.33 305.67, 510.81 305.47, 507.03 305.35 C 503.25 305.23, 500.42 305.31, 495.11 305.42 C 489.79 305.53, 486.48 305.75, 480.47 305.90 C 474.45 306.05, 471.42 305.93, 465.05 306.17 C 458.68 306.41, 455.01 306.68, 448.60 307.10 C 442.20 307.51, 439.07 307.93, 433.03 308.25 C 427.00 308.57, 423.89 308.51, 418.42 308.71 C 412.95 308.90, 410.23 309.08, 405.67 309.20 C 401.12 309.33, 399.14 309.26, 395.66 309.34 C 392.18 309.43, 390.44 309.23, 388.26 309.62 C 386.08 310.01, 385.44 310.58, 384.77 311.30 C 384.10 312.03, 384.19 312.63, 384.92 313.25" style="stroke: black; fill: black;"/><path d="M 673.19,286.40 C 674.03 286.33, 674.50 285.93, 674.61 285.45 C 674.71 284.97, 674.34 284.49, 673.72 284.01 C 673.10 283.54, 672.32 283.09, 671.51 283.07 C 670.70 283.05, 669.86 283.36, 669.65 283.91 C 669.43 284.46, 669.74 285.30, 670.44 285.80 C 671.15 286.30, 672.36 286.47, 673.19 286.40" style="stroke: black; fill: black;"/><path d="M 758.06,301.93 C 758.46 301.11, 758.46 300.33, 758.13 298.65 C 757.79 296.97, 757.53 295.83, 756.38 293.53 C 755.24 291.23, 754.42 289.53, 752.40 287.13 C 750.38 284.73, 748.92 283.33, 746.29 281.53 C 743.65 279.73, 742.24 279.00, 739.23 278.14 C 736.21 277.28, 734.38 276.95, 731.22 277.25 C 728.06 277.55, 726.25 277.79, 723.43 279.65 C 720.62 281.51, 719.15 282.95, 717.16 286.54 C 715.17 290.13, 714.49 292.57, 713.50 297.59 C 712.51 302.62, 712.36 305.68, 712.21 311.67 C 712.05 317.66, 712.18 321.22, 712.73 327.54 C 713.27 333.85, 713.77 337.33, 714.92 343.22 C 716.06 349.11, 717.25 352.00, 718.46 356.98 C 719.67 361.97, 720.12 364.44, 720.96 368.14 C 721.79 371.84, 722.04 373.81, 722.64 375.48 C 723.24 377.14, 723.79 376.78, 723.96 376.46 C 724.14 376.14, 724.20 374.96, 723.52 373.88 C 722.84 372.81, 721.73 371.10, 720.56 371.09 C 719.39 371.08, 717.69 372.61, 717.68 373.82 C 717.67 375.03, 719.22 376.37, 720.50 377.12 C 721.78 377.87, 722.99 377.98, 724.08 377.56 C 725.17 377.14, 725.85 377.08, 725.95 375.03 C 726.04 372.97, 725.49 371.04, 724.55 367.28 C 723.61 363.53, 722.67 361.16, 721.26 356.24 C 719.85 351.33, 718.69 348.49, 717.51 342.71 C 716.33 336.92, 715.86 333.50, 715.38 327.32 C 714.90 321.13, 714.82 317.58, 715.10 311.78 C 715.38 305.97, 715.68 302.95, 716.78 298.30 C 717.87 293.65, 718.76 291.47, 720.58 288.53 C 722.40 285.59, 723.68 284.85, 725.88 283.59 C 728.08 282.34, 729.21 282.37, 731.58 282.27 C 733.95 282.17, 735.44 282.37, 737.72 283.11 C 740.00 283.86, 741.05 284.40, 742.98 285.99 C 744.92 287.58, 745.84 288.92, 747.41 291.06 C 748.97 293.21, 749.53 294.79, 750.81 296.73 C 752.09 298.66, 752.77 299.53, 753.83 300.73 C 754.89 301.93, 755.26 302.50, 756.11 302.74 C 756.95 302.98, 757.65 302.74, 758.06 301.93" style="stroke: black; fill: black;"/><path d="M 698.32,345.01 C 699.40 345.24, 700.19 345.11, 702.98 344.39 C 705.77 343.67, 707.61 342.58, 712.27 341.41 C 716.92 340.25, 720.11 339.52, 726.25 338.56 C 732.40 337.60, 736.10 337.04, 742.97 336.60 C 749.84 336.16, 753.76 336.23, 760.62 336.38 C 767.47 336.52, 771.32 336.82, 777.26 337.33 C 783.20 337.84, 786.00 338.32, 790.31 338.93 C 794.63 339.55, 796.18 340.02, 798.83 340.38 C 801.49 340.75, 802.57 340.98, 803.61 340.78 C 804.64 340.58, 804.83 340.12, 804.01 339.39 C 803.18 338.65, 802.15 337.81, 799.49 337.11 C 796.83 336.42, 795.10 336.37, 790.69 335.90 C 786.28 335.43, 783.46 335.16, 777.45 334.78 C 771.45 334.40, 767.59 334.14, 760.66 334.01 C 753.74 333.88, 749.80 333.80, 742.84 334.13 C 735.87 334.46, 732.13 334.92, 725.86 335.65 C 719.59 336.38, 716.33 336.90, 711.48 337.80 C 706.63 338.71, 704.40 339.09, 701.62 340.17 C 698.83 341.25, 698.22 342.23, 697.57 343.20 C 696.91 344.17, 697.24 344.77, 698.32 345.01" style="stroke: black; fill: black;"/></g></svg>