<svg width="200" height="43" viewBox="0 0 200 43" fill="none" xmlns="http://www.w3.org/2000/svg">
<path d="M14.327 13.2359V29.6808L1.25722 42.4082C0.793276 42.86 0 42.54 0 41.9011V30.398C0 30.0019 0.329726 29.6808 0.736463 29.6808H14.327L0.191525 14.5392C0.0682861 14.4072 0 14.2352 0 14.0568V0.718618C0 0.0796885 0.793276 -0.240288 1.25722 0.211503L14.1113 12.7288C14.2494 12.8633 14.327 13.0457 14.327 13.2359Z" fill="#1529C1"/>
<path d="M17.1589 29.3838V12.9389L30.2287 0.211492C30.6926 -0.2403 31.4859 0.0796773 31.4859 0.718605V12.2217C31.4859 12.6178 31.1562 12.9389 30.7494 12.9389H17.1589L31.2944 28.0805C31.4176 28.2125 31.4859 28.3845 31.4859 28.5629V41.9011C31.4859 42.54 30.6926 42.86 30.2287 42.4082L17.3746 29.8909C17.2365 29.7564 17.1589 29.574 17.1589 29.3838Z" fill="#1529C1"/>
<path d="M50.7705 32.0845C57.743 32.0845 62.1344 27.7937 62.1344 20.8546C62.1344 13.9155 57.743 9.6247 50.7705 9.6247H40.5462V32.0845H50.7705ZM50.7705 12.8763C55.9664 12.8763 58.3129 15.0888 58.3129 20.8546C58.3129 26.6204 55.9664 28.8329 50.7705 28.8329H44.1331V12.8763H50.7705Z" fill="#020412"/>
<path d="M72.542 32.4197C77.5033 32.4197 80.9896 29.9726 80.9896 26.4193V26.1176H77.3692V26.3857C77.3692 28.3635 75.9277 29.5033 72.4414 29.5033C68.5864 29.5033 67.0109 27.7937 66.8768 24.5755H81.0231C81.1237 24.0727 81.1572 23.6034 81.1572 23C81.1572 17.9382 77.6374 15.0888 72.475 15.0888C67.0444 15.0888 63.491 18.5751 63.491 23.771C63.491 29.3357 67.0779 32.4197 72.542 32.4197ZM72.4079 17.9382C75.9613 17.9382 77.7379 19.4131 77.7379 22.4972V22.5642H66.9103C67.1114 19.5808 68.7205 17.9382 72.4079 17.9382Z" fill="#020412"/>
<path d="M93.8919 32.0845L101.736 15.424H97.814L91.8806 28.5647H91.6124L85.679 15.424H81.6899L89.467 32.0845H93.8919Z" fill="#020412"/>
<path d="M113.851 32.0845V28.8329H110.834C108.756 28.8329 107.817 28.2965 107.817 26.2516V18.441H113.851V15.424H107.817V11.7701H104.23V15.424H101.414V18.441H104.23V26.4528C104.23 30.509 106.443 32.0845 110.029 32.0845H113.851Z" fill="#020412"/>
<path d="M119.065 32.0845V22.7318C119.065 19.7484 120.239 18.1728 123.088 18.1728C125.569 18.1728 126.574 19.2791 126.574 21.6591V23.1341H130.161V20.9552C130.161 17.8041 128.519 15.0888 124.731 15.0888C121.311 15.0888 119.501 17.2342 118.998 19.916H118.764V15.424H115.445V32.0845H119.065Z" fill="#020412"/>
<path d="M136.659 32.4197C140.447 32.4197 143.095 30.7436 143.967 27.9278H144.201V32.0845H147.52V21.9608C147.52 17.9717 145.14 15.0888 139.844 15.0888C134.547 15.0888 131.396 17.9382 131.396 21.7262V21.8603H134.983V21.7262C134.983 19.2791 136.491 18.2734 139.575 18.2734C142.76 18.2734 143.967 19.2455 143.967 21.9943V22.9665L136.391 23.771C133.106 24.1398 131.027 25.4806 131.027 28.0618C131.027 30.8107 133.206 32.4197 136.659 32.4197ZM134.648 27.8272C134.648 26.5198 135.553 26.084 137.43 25.8494L143.967 25.1119C143.967 28.3971 141.419 29.805 137.631 29.805C135.553 29.805 134.648 29.1681 134.648 27.8272Z" fill="#020412"/>
<path d="M153.702 32.0845V23.8381C153.702 20.2177 155.344 18.3404 158.998 18.3404C162.451 18.3404 163.859 19.916 163.859 23.0335V32.0845H167.479V22.0614C167.479 18.2064 165.2 15.0888 160.574 15.0888C156.35 15.0888 154.138 17.7706 153.635 20.5864H153.4V15.424H150.081V32.0845H153.702Z" fill="#020412"/>
<path d="M178.415 32.4197C183.377 32.4197 186.863 29.9726 186.863 26.4193V26.1176H183.243V26.3857C183.243 28.3635 181.801 29.5033 178.315 29.5033C174.46 29.5033 172.884 27.7937 172.75 24.5755H186.897C186.997 24.0727 187.031 23.6034 187.031 23C187.031 17.9382 183.511 15.0888 178.348 15.0888C172.918 15.0888 169.365 18.5751 169.365 23.771C169.365 29.3357 172.951 32.4197 178.415 32.4197ZM178.281 17.9382C181.835 17.9382 183.611 19.4131 183.611 22.4972V22.5642H172.784C172.985 19.5808 174.594 17.9382 178.281 17.9382Z" fill="#020412"/>
<path d="M200 32.0845V28.8329H196.983C194.905 28.8329 193.966 28.2965 193.966 26.2516V18.441H200V15.424H193.966V11.7701H190.379V15.424H187.563V18.441H190.379V26.4528C190.379 30.509 192.592 32.0845 196.178 32.0845H200Z" fill="#020412"/>
</svg>
