<svg width="841" height="802" viewBox="0 0 841 802" fill="none" xmlns="http://www.w3.org/2000/svg">
<g clip-path="url(#clip0_460:295)">
<path opacity="0.1" d="M456.35 125.35C408.47 123.69 362.87 108.24 319.35 91.3499C275.83 74.4599 232.65 55.7199 185.92 46.7199C155.86 40.9599 121.49 40.1399 97.27 56.2499C73.97 71.7599 66.43 98.5299 62.39 123.37C59.39 142.06 57.55 161.73 65.9 179.22C71.69 191.37 81.98 201.58 89.09 213.22C113.85 253.7 96.35 303.62 69.52 343.15C56.94 361.69 42.34 379.38 32.63 399.15C22.92 418.92 18.42 441.5 26.92 461.64C35.34 481.64 55.41 496.58 77.15 507.13C121.31 528.54 173.34 534.67 224.08 538.13C336.4 545.81 449.31 542.49 561.93 539.13C603.6 537.89 645.46 536.64 686.46 530.2C709.23 526.62 732.74 520.94 749.27 507.2C770.27 489.79 775.45 460.32 761.39 438.49C737.8 401.88 672.6 392.78 656.11 353.49C647.04 331.86 656.36 307.77 669.54 287.72C697.83 244.72 745.24 206.94 747.74 157.72C749.46 123.95 726.66 90.1199 691.42 74.1299C654.48 57.3799 603.25 59.4899 576 87.2199C547.94 115.84 498.62 126.82 456.35 125.35Z" fill="#30495F"/>
<path opacity="0.1" d="M361.25 801.44C529.128 801.44 665.22 783.03 665.22 760.32C665.22 737.61 529.128 719.2 361.25 719.2C193.372 719.2 57.28 737.61 57.28 760.32C57.28 783.03 193.372 801.44 361.25 801.44Z" fill="#30495F"/>
<path d="M436.27 209.6C436.27 209.6 426.86 191.03 428.13 185.51C429.4 179.99 421.51 168.2 421.51 168.2L422.02 148.64C422.02 148.64 420.93 150.64 415.25 152.39C414.77 151.76 414.25 151.14 413.71 150.55C411.653 148.408 409.366 146.5 406.89 144.86L396.89 123.28L387.22 108.47C387.22 108.47 371.97 77.4701 356.22 70.6301L353.74 65.7801C353.822 65.7318 353.882 65.6548 353.91 65.5642C353.938 65.4735 353.931 65.3758 353.89 65.2901L351.37 60.3601C351.325 60.2748 351.25 60.2093 351.16 60.176C351.069 60.1428 350.969 60.1442 350.88 60.1801L348.47 55.4601C347.55 49.3433 345.146 43.5447 341.47 38.5701C341.22 38.2201 340.95 37.9001 340.69 37.5701L344.61 37.4301C348.05 37.3001 351.89 37.0001 354.2 34.4301C355.028 33.4722 355.638 32.3464 355.99 31.1301C356.287 30.1769 356.482 29.1946 356.57 28.2001C356.57 28.0501 356.57 27.9001 356.57 27.7601C356.57 27.4201 356.57 27.0868 356.57 26.7601C356.57 26.4901 356.57 26.2301 356.57 25.9601C356.57 25.6901 356.57 25.5301 356.57 25.3201C356.57 25.1101 356.46 24.6301 356.4 24.3201C356.4 24.1901 356.4 24.0601 356.32 23.9301C356.237 23.5384 356.133 23.1512 356.01 22.7701C355.981 22.6954 355.957 22.6185 355.94 22.5401C355.8 22.1401 355.65 21.7401 355.48 21.3501C355.452 21.2987 355.429 21.2452 355.41 21.1901C355.23 20.8001 355.03 20.4201 354.82 20.0501L354.76 19.9301C354.686 19.7749 354.603 19.6246 354.51 19.4801C351.8 15.2201 347.04 12.7301 342.51 10.4801C338.283 8.2576 333.944 6.25493 329.51 4.48009C313.024 -1.70233 294.814 -1.44525 278.51 5.20009C276.9 5.80986 275.374 6.62313 273.97 7.62009C272.013 9.27657 270.341 11.2426 269.02 13.4401L261.27 24.8901C260.187 26.2829 259.339 27.8435 258.76 29.5101C257.31 34.9501 261.86 40.4001 261.35 46.0101C261.09 48.8001 259.59 51.3601 259.3 54.1501C258.93 57.7501 260.6 61.2201 262.23 64.4701L273.32 86.4701C272.73 89.3601 272.08 92.3201 271.37 95.1801C266.26 100.46 264.54 103.34 264.07 104.9L263.92 104.98C262.908 105.634 262.037 106.484 261.36 107.48L250.82 117.72C250.82 117.72 232.5 122.48 228.69 128.51C228.69 128.51 199.94 127.25 200.19 167.4C200.19 167.4 198.92 182.46 198.19 184.47C197.46 186.48 198.19 206.8 198.19 206.8L197.85 247.96C197.85 247.96 196.75 269.79 197.85 277.57C198.95 285.35 200.22 314.96 200.22 314.96C200.22 314.96 207.09 343.82 204.55 354.11C202.11 363.96 204.55 385.5 208.55 385.59C209.31 387.16 210.18 387.93 211.13 387.49C211.543 387.311 211.968 387.157 212.4 387.03V411.62C212.4 411.62 207.45 446.07 213 452.62C209.32 457.86 205 466.8 203.9 469.15L165 467.06L160.05 468.45L155.51 469.72L152.76 532.99L153.86 533.07L153.78 535L156.38 535.19L152.76 598.91L206.61 603.34C204.24 608.65 201.49 614.34 200.42 614.89C198.42 615.89 194.06 612.89 193.04 614.13C192.02 615.37 188.97 616.89 185.41 616.13C181.85 615.37 179.56 619.39 179.56 619.39C179.56 619.39 180.08 619.85 180.86 620.7C175.08 620 167.77 623.1 163.8 625.1C162.02 626 160.91 626.67 160.91 626.67H150.41L156.18 663.48L160.25 666.26L161.25 695.26C161.25 695.26 177.53 745.45 184.99 745.12C185.474 745.103 185.949 744.982 186.382 744.764C186.816 744.547 187.197 744.238 187.5 743.86C191.5 739.24 188.73 723.37 188.73 723.37V696.95C188.73 696.95 194.83 694.27 194.15 692.26C193.47 690.25 203.99 668.26 204.93 666.26C204.957 666.243 204.979 666.22 204.993 666.191C205.007 666.163 205.013 666.132 205.01 666.1C205.01 663.84 209.59 661.33 209.33 660.33C209.07 659.33 220.53 653.05 221.33 647.53C222.13 642.01 229.72 645.02 229.72 645.02L239.38 633.92C239.67 647.45 240.22 656.92 241.17 659.32C245.75 670.87 247.53 688.94 247.53 688.94C247.53 688.94 244.73 702.74 247.53 707.26C249.25 710.02 253.25 712.98 256.03 715.43C253.14 724.19 253.55 742.81 253.55 742.81V753.51L274.92 759.51C274.92 759.51 275.59 754.16 276.61 754.16C277.63 754.16 291.2 764.53 291.2 764.53C291.2 764.53 343.44 765.2 356.66 764.53C361.66 764.28 363.02 762.13 362.25 759.53C360.98 755.2 353.85 749.59 347.51 749.16C337.33 748.49 324.44 737.79 324.44 737.79C324.44 737.79 325.44 735.44 320.03 732.1C316.29 729.8 305.94 720.49 299.54 715.04C299.84 714.63 300.15 714.22 300.44 713.78C300.44 713.78 291.79 701.78 293.58 696.46C295.37 691.14 292.81 683.46 292.81 683.46C292.81 683.46 287.98 668.65 287.98 661.12C287.98 656.35 287.26 629.22 286.74 609.98L291.2 610.35L291.29 608.43L293.29 608.61L312.2 610.35L311.62 590.14C320.73 586.14 328.31 582.43 331.45 580.06C342.13 572.06 351.29 571.53 351.29 571.53C351.29 571.53 372.91 559.99 376.22 555.22C379.53 550.45 379.22 515.82 379.22 515.82L377.44 441.6V441.54C377.44 441.54 375.92 405.66 372.86 397.88C371.74 395 368.97 385.4 365.94 374.44C367.681 374.261 369.44 374.335 371.16 374.66C371.27 377.34 371.34 379.18 371.34 379.81C371.34 384.07 377.44 387.69 377.44 387.69L373.12 291.69V226.38C386.44 230.62 418.65 231.94 418.65 231.94C441.86 230.72 436.27 209.6 436.27 209.6ZM310.63 127.12H310.56C311.033 124.603 311.651 122.116 312.41 119.67L310.63 127.12ZM223.21 456.39C231.1 457.69 240.21 457.31 240.9 455.78C240.97 455.63 241.06 455.36 241.18 455.01C241.43 455.45 241.67 455.9 241.92 456.36L241.15 470.84V471.17L215.15 469.77C216.97 462.02 220.41 458.24 223.21 456.39ZM309.88 529.45L309.21 506C310.37 501.68 311.41 497.76 312.3 494.4C312.7 497.19 313.04 499.76 313.3 502.13C315.76 524.38 312.13 528.72 309.88 529.45ZM383.88 177.87C382.39 178.44 376.72 174.87 371.34 171.17C371.34 170.49 371.39 169.82 371.42 169.17C372.18 153.86 347.25 144.33 339.62 142.57C337.768 142.092 335.972 141.422 334.26 140.57C330.195 138.557 326.242 136.323 322.42 133.88L322.52 133.59C322.52 133.59 312.68 127.36 312.47 119.59C314.712 112.523 317.542 105.655 320.93 99.0601C321.12 98.6701 321.33 98.2601 321.53 97.8701C326.18 96.4238 330.521 94.1246 334.33 91.0901C335.86 111.09 364.8 128.3 364.8 128.3L367.89 133.3L368.62 134.48C367.06 135.4 366.31 136.14 366.84 136.57C369.04 138.33 374.36 148.29 376.56 152.5C377.16 153.64 377.56 154.35 377.56 154.35C377.56 154.35 382.29 167.22 385 177.99C384.64 177.84 384.244 177.798 383.86 177.87H383.88Z" fill="url(#paint0_linear_460:295)"/>
<path d="M395.06 126L394.72 126.45L393.56 128L371.31 143.72L366.59 135.96L363.59 130.96C363.59 130.96 319.24 104.36 338.31 78.7199C357.38 53.0799 385.56 111.22 385.56 111.22L395.06 126Z" fill="#FFC5D3"/>
<path d="M350.311 63.3623C350.216 63.1749 349.988 63.0994 349.801 63.1938C349.613 63.2882 349.538 63.5167 349.632 63.7041L352.106 68.6164C352.2 68.8038 352.429 68.8793 352.616 68.7849C352.804 68.6905 352.879 68.462 352.785 68.2745L350.311 63.3623Z" fill="#376768"/>
<path d="M324.92 70.2304L324.911 70.2349C324.807 70.2871 324.766 70.4133 324.818 70.5169L325.555 71.9816C325.608 72.0852 325.734 72.1269 325.837 72.0748L325.846 72.0703C325.95 72.0181 325.992 71.8918 325.939 71.7882L325.202 70.3235C325.15 70.2199 325.023 70.1782 324.92 70.2304Z" fill="#376768"/>
<path d="M326.939 73.6986C326.88 73.5802 326.735 73.5326 326.617 73.5922C326.499 73.6518 326.451 73.7962 326.511 73.9145L327.909 76.6922C327.969 76.8106 328.113 76.8582 328.232 76.7986C328.35 76.739 328.398 76.5947 328.338 76.4763L326.939 73.6986Z" fill="#376768"/>
<path d="M329.096 78.0222C329.039 77.9087 328.901 77.8631 328.787 77.9202C328.674 77.9773 328.628 78.1156 328.685 78.2291L330.106 81.0514C330.164 81.1649 330.302 81.2105 330.415 81.1534C330.529 81.0962 330.574 80.958 330.517 80.8445L329.096 78.0222Z" fill="#376768"/>
<path d="M342.551 53.717L323.866 63.1265C322.761 63.6829 322.317 65.0297 322.873 66.1347L344.076 108.237C344.632 109.342 345.979 109.787 347.084 109.23L365.769 99.8206C366.873 99.2642 367.318 97.9174 366.762 96.8125L345.559 54.7101C345.002 53.6051 343.655 53.1605 342.551 53.717Z" fill="#376768"/>
<path d="M340.16 56.3899C340.053 56.4429 339.957 56.5168 339.879 56.6071C339.801 56.6975 339.741 56.8025 339.704 56.916C339.667 57.0296 339.653 57.1495 339.662 57.2686C339.672 57.3877 339.705 57.5038 339.76 57.6099L339.84 57.7799C339.895 57.8868 339.928 58.0036 339.938 58.1235C339.948 58.2434 339.934 58.364 339.897 58.4783C339.859 58.5927 339.8 58.6986 339.721 58.7898C339.643 58.8811 339.547 58.9559 339.44 59.0099L329.82 63.8499C329.714 63.9048 329.598 63.938 329.479 63.9476C329.36 63.9572 329.24 63.943 329.126 63.9057C329.013 63.8685 328.908 63.809 328.817 63.7307C328.727 63.6525 328.653 63.557 328.6 63.4499L328.51 63.2799C328.457 63.1729 328.383 63.0774 328.293 62.9988C328.203 62.9203 328.098 62.8603 327.985 62.8222C327.872 62.7841 327.752 62.7688 327.633 62.7769C327.513 62.7851 327.397 62.8167 327.29 62.8699L325.42 63.8199C325.215 63.9208 325.032 64.0615 324.882 64.2338C324.732 64.4061 324.618 64.6065 324.546 64.8234C324.475 65.0403 324.447 65.2693 324.465 65.4971C324.482 65.7248 324.546 65.9468 324.65 66.1499L345.09 106.72C345.3 107.131 345.663 107.442 346.102 107.586C346.54 107.731 347.017 107.696 347.43 107.49L364.21 99.0399C364.621 98.8301 364.932 98.4666 365.076 98.0283C365.221 97.5901 365.186 97.1127 364.98 96.6999L344.53 56.1099C344.427 55.9055 344.285 55.7235 344.112 55.5741C343.938 55.4247 343.737 55.311 343.52 55.2395C343.302 55.168 343.073 55.1401 342.845 55.1573C342.617 55.1745 342.394 55.2366 342.19 55.3399L340.16 56.3899Z" fill="#30495F"/>
<path d="M334.57 59.4624L332.042 60.7353C331.865 60.8247 331.793 61.0412 331.882 61.2187C331.972 61.3963 332.188 61.4678 332.366 61.3783L334.893 60.1055C335.071 60.016 335.142 59.7996 335.053 59.622C334.964 59.4444 334.747 59.373 334.57 59.4624Z" fill="#E6E8EC"/>
<path d="M335.88 59.58C336.106 59.58 336.29 59.3964 336.29 59.17C336.29 58.9436 336.106 58.76 335.88 58.76C335.654 58.76 335.47 58.9436 335.47 59.17C335.47 59.3964 335.654 59.58 335.88 59.58Z" fill="#E6E8EC"/>
<path d="M354.56 212L348.31 379.72C348.31 379.72 369.31 372.72 372.56 377.97C375.81 383.22 369.06 293.97 369.06 293.97L354.56 212Z" fill="#112233"/>
<path opacity="0.15" d="M354.56 212L348.31 379.72C348.31 379.72 369.31 372.72 372.56 377.97C375.81 383.22 369.06 293.97 369.06 293.97L354.56 212Z" fill="black"/>
<path d="M355.56 764.83C342.56 765.5 291.23 764.83 291.23 764.83C291.23 764.83 277.89 754.5 276.89 754.5C275.89 754.5 275.23 759.83 275.23 759.83L254.23 753.83V743.17C254.23 743.17 253.56 712.82 259.89 711.5C266.22 710.18 294.23 711.5 294.23 711.5C295.23 711.17 314.23 729.17 319.56 732.5C324.89 735.83 323.89 738.17 323.89 738.17C323.89 738.17 336.56 748.83 346.56 749.5C352.79 749.92 359.8 755.5 361.05 759.83C361.81 762.44 360.46 764.58 355.56 764.83Z" fill="#112233"/>
<path opacity="0.1" d="M355.56 764.83C342.56 765.5 291.23 764.83 291.23 764.83C291.23 764.83 277.89 754.5 276.89 754.5C275.89 754.5 275.23 759.83 275.23 759.83L254.23 753.83V743.38L273.89 750.5L289.56 759.83H361.05C361.81 762.44 360.46 764.58 355.56 764.83Z" fill="black"/>
<g opacity="0.1">
<path d="M297.19 749.17C297.19 749.17 313.19 733.84 323.89 738.17L297.19 749.17Z" fill="black"/>
<path d="M297.19 749.17C297.19 749.17 313.19 733.84 323.89 738.17" stroke="black" stroke-miterlimit="10"/>
</g>
<path d="M195.89 692.83C196.56 694.83 190.56 697.5 190.56 697.5V723.83C190.56 723.83 193.28 739.64 189.35 744.25C189.055 744.624 188.682 744.93 188.257 745.145C187.833 745.361 187.366 745.482 186.89 745.5C179.56 745.83 163.56 695.83 163.56 695.83L162.56 666.94L158.56 664.17L152.89 627.5H163.23C163.23 627.5 164.32 626.83 166.07 625.93C171.07 623.38 181.54 618.93 187.23 623.17L206.56 666.72C206.56 666.72 195.23 690.83 195.89 692.83Z" fill="#112233"/>
<path opacity="0.1" d="M189.35 744.25C189.055 744.624 188.682 744.929 188.257 745.145C187.833 745.361 187.366 745.482 186.89 745.5C179.56 745.83 163.56 695.83 163.56 695.83L162.56 666.94L158.56 664.17L152.89 627.5H163.23C163.23 627.5 164.32 626.83 166.07 625.93L168.56 663.5L169.89 695.83C169.89 695.83 182.45 731.03 189.35 744.25Z" fill="#30495F"/>
<path d="M374.81 556.25C371.56 561 350.31 572.5 350.31 572.5C350.31 572.5 341.31 573 330.81 581C325.38 585.14 306.51 593.35 289.56 600.32C273.73 606.83 259.56 612.25 259.56 612.25L243.24 631.25L230.81 645.72C230.81 645.72 223.31 642.72 222.56 648.22C221.81 653.72 210.56 659.97 210.81 660.97C211.06 661.97 206.56 664.47 206.56 666.72C206.56 668.97 189.81 650.47 190.06 639.22C190.31 627.97 181.56 620.22 181.56 620.22C181.56 620.22 183.81 616.22 187.31 616.97C190.81 617.72 193.81 616.22 194.81 614.97C195.81 613.72 200.06 616.72 202.06 615.72C204.06 614.72 212.06 594.97 212.06 594.97L243.23 574.06L305.23 532.5L308.09 530.58C308.09 530.58 316.34 534.36 312.99 503.39C312.34 497.39 311.25 490.1 309.59 481.22C299.34 426.47 336.09 420.22 336.09 420.22L368.34 430.97L376.09 442.97V443.03L377.84 516.97C377.84 516.97 378.06 551.5 374.81 556.25Z" fill="#30495F"/>
<path opacity="0.1" d="M289.31 591.25C289.31 591.25 289.41 594.8 289.56 600.32C273.73 606.83 259.56 612.25 259.56 612.25L243.24 631.25C242.97 615.5 243.03 595.04 243.24 574.07L305.24 532.51C297.57 560.94 289.31 591.25 289.31 591.25Z" fill="black"/>
<path opacity="0.1" d="M376.06 443V443.06L327.56 444C327.56 444 319.06 477.25 317.81 484.25C317.5 485.97 315.62 493.32 312.96 503.42C312.31 497.42 311.22 490.13 309.56 481.25C299.31 426.5 336.06 420.25 336.06 420.25L368.31 431L376.06 443Z" fill="black"/>
<path d="M248.31 352.25L242.06 472.25C242.06 472.25 237.56 648.5 242.06 660C246.56 671.5 248.31 689.5 248.31 689.5C248.31 689.5 245.56 703.25 248.31 707.75C251.06 712.25 259.81 717.25 259.56 719.75C259.31 722.25 286.31 735.75 300.31 714.25C300.31 714.25 291.81 702.25 293.56 697C295.31 691.75 292.81 684 292.81 684C292.81 684 288.06 669.25 288.06 661.72C288.06 654.19 286.31 591.22 286.31 591.22C286.31 591.22 313.56 491.22 314.81 484.22C316.06 477.22 324.56 443.97 324.56 443.97L376.06 442.97C376.06 442.97 374.56 407.22 371.56 399.47C368.56 391.72 353.81 334.97 353.81 334.97L248.31 352.25Z" fill="#30495F"/>
<path d="M162.36 469.89L157.89 471.17L157.71 475.59L291.73 477.32V475.58L162.36 469.89Z" fill="#30495F"/>
<path d="M320.44 101.87C300.94 141.42 313.05 149.69 314.98 150.71C310.85 148.79 257.17 123.57 264.23 117.17C268.82 113 272.75 94.8599 275.06 81.8599C276.43 74.0999 277.23 68.1699 277.23 68.1699L333.56 78.4999C328.1 87.2999 323.76 95.0499 320.44 101.87Z" fill="#FFC5D3"/>
<path opacity="0.1" d="M394.76 126.45L393.6 128L371.31 143.72L366.59 135.96C373.46 131.96 394.06 124.96 394.06 124.96L394.76 126.45Z" fill="black"/>
<path d="M415.31 162.5C413.31 169.5 379.56 162.5 379.56 162.5L376.06 157C376.06 157 375.71 156.3 375.12 155.16C372.96 150.97 367.73 141.05 365.57 139.29C362.82 137.04 395.07 126.04 395.07 126.04L404.95 147.54C407.385 149.177 409.632 151.079 411.65 153.21C414.15 155.92 416.22 159.31 415.31 162.5Z" fill="#E5E8EF"/>
<path d="M359.31 165.72C359.31 165.72 379.31 181.5 382.31 180.36C385.31 179.22 433.81 211.97 433.81 211.97C433.81 211.97 439.31 232.97 416.56 234.22C416.56 234.22 368.31 232.22 366.31 225.22C364.31 218.22 359.31 165.72 359.31 165.72Z" fill="#112233"/>
<path opacity="0.1" d="M304.81 134L283.06 156.5L313.56 350.5L325.56 343.5C325.56 343.5 356.56 357.25 359.06 344.5C361.56 331.75 360.87 281.5 360.87 281.5L356.81 190.72C356.81 190.72 342.56 158.97 342.56 157.97C342.56 156.97 322.01 141.47 322.01 141.47L312.31 133.97L304.81 134Z" fill="black"/>
<path d="M304.81 131L283.06 153.5L313.56 347.5L325.56 340.5C325.56 340.5 356.56 354.25 359.06 341.5C361.56 328.75 360.87 278.5 360.87 278.5L356.81 187.72C356.81 187.72 342.56 155.97 342.56 154.97C342.56 153.97 322.01 138.47 322.01 138.47L312.31 130.97L304.81 131Z" fill="#E5E8EF"/>
<path opacity="0.1" d="M306.06 134.25L300.06 146.5L306.06 152.83C306.06 152.83 327.56 196.25 323.31 222L327.81 306.75L342.31 321L353.81 307.72L348.31 230.72C348.31 230.72 333.56 167.22 318.06 147.47L313.56 129.97L306.06 134.25Z" fill="black"/>
<path d="M306.06 132.25L300.06 144.5L306.06 150.83C306.06 150.83 327.56 194.25 323.31 220L327.81 304.75L342.31 319L353.81 305.72L348.31 228.72C348.31 228.72 333.56 165.22 318.06 145.47L313.56 127.97L306.06 132.25Z" fill="#1DCFF7"/>
<path opacity="0.1" d="M333.56 78.5001C328.1 87.3001 323.8 95.0501 320.44 101.87C316.901 102.914 313.23 103.443 309.54 103.44C297.18 103.44 290.06 94.8901 283.06 85.8101C281.46 83.7501 276.2 84.2301 275.06 81.8101C276.43 74.0501 277.23 68.1201 277.23 68.1201L333.56 78.5001Z" fill="black"/>
<path d="M347.87 64.0999C347.87 73.2286 344.611 82.0573 338.681 88.9975C332.751 95.9377 324.539 100.534 315.522 101.958C306.505 103.383 297.276 101.543 289.495 96.7687C281.714 91.9949 275.893 84.6007 273.078 75.9169C270.263 67.2331 270.64 57.8298 274.14 49.399C277.641 40.9683 284.036 34.0637 292.174 29.9278C300.311 25.7918 309.658 24.696 318.532 26.8376C327.406 28.9792 335.224 34.2175 340.58 41.6099C345.319 48.1512 347.87 56.0224 347.87 64.0999Z" fill="#FFC5D3"/>
<path opacity="0.1" d="M297.31 149.5L265.81 111.5C265.81 111.5 262.9 110.33 272.73 100.04C272.73 100.04 308.83 128.18 311.07 132.96C313.31 137.74 297.31 149.5 297.31 149.5Z" fill="black"/>
<path d="M296.31 147.5L264.81 109.5C264.81 109.5 261.9 108.33 271.73 98.04C271.73 98.04 307.83 126.18 310.07 130.96C312.31 135.74 296.31 147.5 296.31 147.5Z" fill="#E5E8EF"/>
<path d="M376.06 389.35C376.06 389.35 370.06 385.75 370.06 381.5C370.06 377.25 367.06 317.25 367.06 317.25C367.06 317.25 362.66 281.44 358.06 252.98C355.36 236.21 352.59 221.98 350.63 219.16L350.55 219.04C345.3 212.29 346.3 179.29 313.55 131.04C313.99 131.34 325.28 139.26 333.55 143.24C335.233 144.086 336.999 144.756 338.82 145.24C346.32 146.99 370.82 156.49 370.07 171.74C369.32 186.99 371.82 221.99 371.82 221.99V293.72L376.06 389.35Z" fill="#112233"/>
<path d="M376.06 157C376.06 157 386.56 186 385.06 193.25C383.56 200.5 409.31 229 409.31 229L433.81 212C433.81 212 424.56 193.5 425.81 188C427.06 182.5 419.31 170.75 419.31 170.75L419.81 151.27C419.81 151.27 415.31 159.72 376.06 157Z" fill="#112233"/>
<path opacity="0.1" d="M340.58 41.6099L321.58 42.3299C319.724 42.3178 317.875 42.5498 316.08 43.0199C309.29 45.1099 306.16 52.3299 305.91 58.8199C305.66 65.3099 301.91 72.5799 294.64 73.1499C293.916 73.2728 293.173 73.1077 292.57 72.6899C292.109 72.1994 291.803 71.5837 291.69 70.9199C290.647 67.1383 289.035 63.5371 286.91 60.2399C283.91 60.7799 281.69 63.6299 280.91 66.6099C280.13 69.5899 280.34 72.7299 280.35 75.8199C280.359 79.7443 279.981 83.66 279.22 87.5099C276.12 83.4856 273.851 78.8852 272.544 73.9761C271.238 69.0671 270.92 63.9473 271.61 58.9144C272.3 53.8816 273.983 49.036 276.562 44.6594C279.141 40.2828 282.564 36.4626 286.633 33.4207C290.701 30.3787 295.334 28.1759 300.261 26.9402C305.188 25.7045 310.312 25.4605 315.335 26.2225C320.357 26.9845 325.178 28.7372 329.517 31.3788C333.856 34.0204 337.627 37.4982 340.61 41.6099H340.58Z" fill="black"/>
<path d="M315.09 42.0201C316.885 41.5499 318.734 41.318 320.59 41.3301L343.66 40.4701C347.04 40.3401 350.81 40.0401 353.08 37.5301C353.895 36.5717 354.495 35.4499 354.84 34.2401C355.434 32.3073 355.608 30.2698 355.351 28.2641C355.094 26.2585 354.412 24.3308 353.35 22.6101C350.68 18.3601 346 15.8901 341.54 13.6101C337.389 11.3925 333.127 9.38982 328.77 7.61012C312.587 1.46447 294.67 1.72197 278.67 8.33012C277.089 8.93689 275.591 9.73984 274.21 10.7201C272.282 12.3725 270.639 14.3323 269.35 16.5201L261.76 27.9601C260.713 29.357 259.905 30.9183 259.37 32.5801C257.94 38.0101 262.37 43.4401 261.91 49.0301C261.65 51.8101 260.18 54.3601 259.91 57.1401C259.55 60.7301 261.19 64.1401 262.8 67.4101L276.14 94.3201C278.294 88.0451 279.386 81.4546 279.37 74.8201C279.37 71.7301 279.11 68.5901 279.93 65.6101C280.75 62.6301 282.93 59.7801 285.93 59.2401C288.061 62.5357 289.676 66.1372 290.72 69.9201C290.83 70.5846 291.137 71.201 291.6 71.6901C292.203 72.1089 292.946 72.2741 293.67 72.1501C300.98 71.5801 304.67 64.3801 304.94 57.8201C305.21 51.2601 308.3 44.1101 315.09 42.0201Z" fill="#8F7080"/>
<path d="M157.89 471.17L167.23 468.5L308.06 476.17L292.56 478.17L157.89 471.17Z" fill="#30495F"/>
<path opacity="0.1" d="M157.89 471.17L167.23 468.5L308.06 476.17L292.56 478.17L157.89 471.17Z" fill="black"/>
<path d="M311.89 611.17L293.31 609.44L286.79 608.84V505.5L288.51 481.51L288.89 476.17H308.06L311.89 611.17Z" fill="#30495F"/>
<path opacity="0.1" d="M306.81 607.5L291.99 605.86L286.79 605.29V507.31L288.16 484.57L288.46 479.5H303.75L306.81 607.5Z" fill="black"/>
<path d="M205.18 471.17C205.18 471.17 214.43 450.88 218.31 450.25C222.19 449.62 229.31 450.25 229.31 450.25L228.68 456.13C228.68 456.13 219.18 456.88 216.18 472.75L205.18 471.17Z" fill="#30495F"/>
<path opacity="0.1" d="M205.18 471.17C205.18 471.17 214.43 450.88 218.31 450.25C222.19 449.62 229.31 450.25 229.31 450.25L228.68 456.13C228.68 456.13 219.18 456.88 216.18 472.75L205.18 471.17Z" fill="black"/>
<path d="M241.06 448.13C241.06 448.13 265.93 460.5 262.68 475L249.18 474.25C249.18 474.25 242.68 452.63 237.56 451.5C232.44 450.37 241.06 448.13 241.06 448.13Z" fill="#30495F"/>
<path d="M333.56 252.25V252.98L333.06 336.25C333.06 336.25 320.31 406.25 316.81 409C313.31 411.75 236.56 404.25 236.56 404.25L201.81 170C201.56 130 229.81 131.25 229.81 131.25C233.56 125.25 251.56 120.5 251.56 120.5L261.56 110.75L261.88 110.3C262.544 109.309 263.401 108.462 264.4 107.81C266.46 106.62 267.77 108.19 268.52 109.74C268.858 110.468 269.119 111.228 269.3 112.01C309.81 141.72 333.56 252.25 333.56 252.25Z" fill="#112233"/>
<path opacity="0.1" d="M332.56 253.25V253.98C319.99 230.98 271.56 143.84 258.31 139.5L263.41 136C263.41 136 266.81 134 260.56 132C260.56 132 250.81 133.25 250.56 121.5L260.88 111.3L263.4 108.81L267.52 110.74C267.858 111.468 268.119 112.229 268.3 113.01C308.81 142.72 332.56 253.25 332.56 253.25Z" fill="black"/>
<path d="M333.56 252.25V252.98C320.99 229.98 272.56 142.84 259.31 138.5L264.41 135C264.41 135 267.81 133 261.56 131C261.56 131 251.81 132.25 251.56 120.5L261.88 110.3L264.4 107.81L268.52 109.74C268.858 110.468 269.119 111.229 269.3 112.01C309.81 141.72 333.56 252.25 333.56 252.25Z" fill="#30495F"/>
<path opacity="0.1" d="M351.64 220.12L351.56 220C346.31 213.25 347.31 180.25 314.56 132C315 132.3 326.29 140.22 334.56 144.2L332.25 151.82L337.25 154.49L351.64 220.12Z" fill="black"/>
<path d="M350.64 219.12L350.56 219C345.31 212.25 346.31 179.25 313.56 131C314 131.3 325.29 139.22 333.56 143.2L331.25 150.82L336.25 153.49L350.64 219.12Z" fill="#30495F"/>
<path opacity="0.1" d="M312.12 123.3L310.07 131.96C310.07 131.96 311.57 140.63 320.56 141.38L322.01 137.25C322.01 137.25 312.31 131.03 312.12 123.3Z" fill="black"/>
<path d="M312.12 122.3L310.07 130.96C310.07 130.96 311.57 139.63 320.56 140.38L322.01 136.25C322.01 136.25 312.31 130.03 312.12 122.3Z" fill="#E5E8EF"/>
<path opacity="0.1" d="M299.19 477.57L293.31 609.44L286.79 608.84V505.5L288.51 481.51L299.19 477.57Z" fill="black"/>
<path d="M159.23 528.5L155.23 599.83L291.23 611.17L297.19 477.57L159.23 528.5Z" fill="#30495F"/>
<path opacity="0.1" d="M156.23 536.17L158.89 473.17L298.19 479.57L291.56 546.17L156.23 536.17Z" fill="black"/>
<path d="M155.23 534.17L157.89 471.17L297.19 477.57L290.56 544.17L155.23 534.17Z" fill="#30495F"/>
<path d="M230.56 534.25H213.81V553.75H230.56V534.25Z" fill="#C3BBC8"/>
<path d="M216.31 406.5L213.81 413.25C213.81 413.25 208.56 450.25 215.06 454.75C221.56 459.25 240.81 459.5 241.81 457.25C242.81 455 249.81 429.5 249.81 429.5C249.81 429.5 256.06 448.25 259.31 446.75C262.56 445.25 251.81 409.61 251.81 409.61L216.31 406.5Z" fill="#FFC5D3"/>
<path opacity="0.1" d="M213.81 378.5V414.25C213.81 414.25 240.31 419.25 251.81 410.61C251.81 410.61 241.06 376 245.06 367.25C249.06 358.5 213.81 378.5 213.81 378.5Z" fill="black"/>
<path d="M213.81 377.5V413.25C213.81 413.25 240.31 418.25 251.81 409.61C251.81 409.61 241.06 375 245.06 366.25C249.06 357.5 213.81 377.5 213.81 377.5Z" fill="#E5E8EF"/>
<path opacity="0.1" d="M210.81 168.25L203.81 172C203.81 172 202.56 187 201.81 189C201.06 191 201.81 211.25 201.81 211.25L201.47 252.25C201.47 252.25 200.39 274 201.47 281.75C202.55 289.5 203.76 319 203.76 319C203.76 319 210.52 347.75 208.02 358C205.52 368.25 208.27 391.25 212.52 389.25C216.77 387.25 256.02 379.5 258.02 378C260.02 376.5 259.02 362.5 258.02 360.75C257.02 359 251.02 335.25 251.52 329.75C252.02 324.25 249.77 276 249.77 276C249.77 276 253.52 224.5 255.02 212.5C256.52 200.5 252.02 165.25 248.02 164.75C244.02 164.25 232.31 137 210.81 168.25Z" fill="black"/>
<path d="M208.81 166.25L201.81 170C201.81 170 200.56 185 199.81 187C199.06 189 199.81 209.25 199.81 209.25L199.47 250.25C199.47 250.25 198.39 272 199.47 279.75C200.55 287.5 201.76 317 201.76 317C201.76 317 208.52 345.75 206.02 356C203.52 366.25 206.27 389.25 210.52 387.25C214.77 385.25 254.02 377.5 256.02 376C258.02 374.5 257.02 360.5 256.02 358.75C255.02 357 249.02 333.25 249.52 327.75C250.02 322.25 247.77 274 247.77 274C247.77 274 251.52 222.5 253.02 210.5C254.52 198.5 250.02 163.25 246.02 162.75C242.02 162.25 230.31 135 208.81 166.25Z" fill="#112233"/>
<g opacity="0.1">
<path opacity="0.1" d="M284.42 55.49C281.42 56.03 279.2 58.88 278.42 61.86C277.64 64.84 277.85 67.98 277.86 71.07C277.879 77.7039 276.791 84.2945 274.64 90.57L261.29 63.66C261.03 63.13 260.76 62.58 260.5 62.03C261.118 63.8819 261.884 65.681 262.79 67.41L276.14 94.32C278.291 88.0445 279.379 81.4539 279.36 74.82C279.36 71.73 279.11 68.59 279.92 65.61C280.73 62.63 282.92 59.78 285.92 59.24C286.888 60.7568 287.754 62.337 288.51 63.97C287.494 60.9885 286.121 58.1411 284.42 55.49Z" fill="black"/>
<path opacity="0.1" d="M353.59 23.04C354.177 25.5002 354.094 28.0727 353.35 30.49C353.001 31.7004 352.398 32.8222 351.58 33.78C349.31 36.29 345.58 36.59 342.16 36.72L319.1 37.58C317.241 37.5678 315.389 37.7998 313.59 38.27C306.81 40.36 303.67 47.58 303.42 54.07C303.17 60.56 299.42 67.83 292.15 68.4C291.426 68.5229 290.683 68.3578 290.08 67.94C290.31 68.59 290.53 69.25 290.72 69.94C290.823 70.6049 291.126 71.2225 291.59 71.71C292.193 72.1278 292.936 72.2929 293.66 72.17C300.98 71.6 304.66 64.4 304.93 57.84C305.2 51.28 308.32 44.13 315.1 42.04C316.899 41.5698 318.751 41.3378 320.61 41.35L343.67 40.49C347.05 40.36 350.82 40.06 353.09 37.55C353.908 36.5922 354.511 35.4704 354.86 34.26C355.427 32.4024 355.607 30.4482 355.388 28.5184C355.17 26.5885 354.558 24.724 353.59 23.04Z" fill="black"/>
</g>
<path opacity="0.1" d="M316.04 433.19C316.04 433.19 324.7 428.69 328.04 428.94C331.38 429.19 361.37 467.33 361.37 467.33L316.04 433.19Z" fill="black"/>
<path opacity="0.1" d="M227.21 175.07C227.21 175.07 211.38 181.83 211.8 186.5C212.22 191.17 227.21 175.07 227.21 175.07Z" fill="black"/>
<path opacity="0.1" d="M219.5 197.17C219.5 197.17 202.89 218.41 206.56 219.12C210.23 219.83 219.5 197.17 219.5 197.17Z" fill="black"/>
<path opacity="0.1" d="M275.06 229C275.06 229 276.58 276.5 264.4 282.5L275.06 229Z" fill="black"/>
<path opacity="0.1" d="M211.76 355.83C211.76 355.83 223.48 349.17 226.17 350.5C228.86 351.83 211.76 355.83 211.76 355.83Z" fill="black"/>
<path opacity="0.1" d="M213.81 365.04C213.81 365.04 221.21 365.57 224.72 364.04C228.23 362.51 213.81 365.04 213.81 365.04Z" fill="black"/>
<path opacity="0.1" d="M390.46 190.13C390.46 190.13 399.64 216.5 404.93 216.5L390.46 190.13Z" fill="black"/>
<path opacity="0.1" d="M259.92 695.17C259.92 695.17 277.14 690.5 279.68 695.17C282.22 699.84 259.92 695.17 259.92 695.17Z" fill="black"/>
<path opacity="0.1" d="M205.18 625.93C205.18 625.93 200.89 632.5 206.56 634.5C212.23 636.5 205.18 625.93 205.18 625.93Z" fill="black"/>
<path opacity="0.1" d="M319.56 534.25C319.56 534.25 332.56 545.83 338.7 546.17C344.84 546.51 319.56 534.25 319.56 534.25Z" fill="black"/>
<path opacity="0.1" d="M813.6 727.43C828.473 727.43 840.53 725.393 840.53 722.88C840.53 720.367 828.473 718.33 813.6 718.33C798.727 718.33 786.67 720.367 786.67 722.88C786.67 725.393 798.727 727.43 813.6 727.43Z" fill="#30495F"/>
<path opacity="0.1" d="M-6.07 659.7C8.80303 659.7 20.86 657.663 20.86 655.15C20.86 652.637 8.80303 650.6 -6.07 650.6C-20.943 650.6 -33 652.637 -33 655.15C-33 657.663 -20.943 659.7 -6.07 659.7Z" fill="#30495F"/>
<path opacity="0.1" d="M794.86 639.3C809.733 639.3 821.79 637.263 821.79 634.75C821.79 632.237 809.733 630.2 794.86 630.2C779.987 630.2 767.93 632.237 767.93 634.75C767.93 637.263 779.987 639.3 794.86 639.3Z" fill="#30495F"/>
<path opacity="0.1" d="M98.09 684.11C112.963 684.11 125.02 682.073 125.02 679.56C125.02 677.047 112.963 675.01 98.09 675.01C83.217 675.01 71.16 677.047 71.16 679.56C71.16 682.073 83.217 684.11 98.09 684.11Z" fill="#30495F"/>
<path opacity="0.1" d="M674.82 688.02C689.693 688.02 701.75 685.983 701.75 683.47C701.75 680.957 689.693 678.92 674.82 678.92C659.947 678.92 647.89 680.957 647.89 683.47C647.89 685.983 659.947 688.02 674.82 688.02Z" fill="#30495F"/>
<path d="M754.66 778.44C776.867 778.44 794.87 775.396 794.87 771.64C794.87 767.885 776.867 764.84 754.66 764.84C732.453 764.84 714.45 767.885 714.45 771.64C714.45 775.396 732.453 778.44 754.66 778.44Z" fill="#30495F"/>
<path d="M771.28 760.52C773.112 759.025 774.448 757.01 775.11 754.74C775.61 752.44 774.63 749.74 772.43 748.85C769.97 747.91 767.34 749.61 765.35 751.33C763.36 753.05 761.07 755.02 758.46 754.66C759.803 753.443 760.809 751.899 761.378 750.178C761.948 748.457 762.062 746.618 761.71 744.84C761.593 744.103 761.278 743.412 760.8 742.84C759.44 741.38 756.96 742.01 755.33 743.16C750.13 746.82 748.68 753.88 748.65 760.24C748.13 757.94 748.57 755.55 748.55 753.24C748.53 750.93 747.9 748.24 745.91 747.02C744.682 746.36 743.303 746.033 741.91 746.07C739.57 745.99 736.97 746.22 735.38 747.93C733.38 750.05 733.91 753.62 735.63 755.93C737.35 758.24 739.98 759.73 742.4 761.35C744.338 762.501 745.99 764.077 747.23 765.96C747.382 766.218 747.502 766.493 747.59 766.78H762.25C765.528 765.109 768.565 763.003 771.28 760.52Z" fill="#30495F"/>
<path d="M99.48 567.72C99.48 567.72 104.98 574.9 96.95 585.72C88.92 596.54 82.3 605.72 84.95 612.48C84.95 612.48 97.07 592.34 106.95 592.06C116.83 591.78 110.33 579.86 99.48 567.72Z" fill="#30495F"/>
<path opacity="0.1" d="M99.48 567.72C99.9611 568.411 100.338 569.169 100.6 569.97C110.22 581.27 115.35 591.82 106.1 592.09C97.49 592.33 87.16 607.73 84.68 611.62C84.7616 611.921 84.8583 612.218 84.97 612.51C84.97 612.51 97.09 592.37 106.97 592.09C116.85 591.81 110.33 579.86 99.48 567.72Z" fill="black"/>
<path d="M109.69 576.9C109.69 579.43 109.41 581.48 109.06 581.48C108.71 581.48 108.43 579.48 108.43 576.9C108.43 574.32 108.78 575.56 109.13 575.56C109.48 575.56 109.69 574.37 109.69 576.9Z" fill="#FFD037"/>
<path d="M113.2 579.92C110.98 581.13 109.04 581.86 108.88 581.56C108.72 581.26 110.37 580.02 112.59 578.81C114.81 577.6 113.94 578.48 114.1 578.81C114.26 579.14 115.42 578.72 113.2 579.92Z" fill="#FFD037"/>
<path d="M70.47 567.72C70.47 567.72 64.97 574.9 73 585.72C81.03 596.54 87.65 605.72 85 612.48C85 612.48 72.89 592.34 63 592.06C53.11 591.78 59.62 579.86 70.47 567.72Z" fill="#30495F"/>
<path opacity="0.1" d="M70.47 567.72C69.9877 568.412 69.6071 569.17 69.34 569.97C59.72 581.27 54.6 591.82 63.84 592.09C72.46 592.33 82.79 607.73 85.27 611.62C85.1896 611.923 85.0894 612.22 84.97 612.51C84.97 612.51 72.86 592.37 62.97 592.09C53.08 591.81 59.62 579.86 70.47 567.72Z" fill="black"/>
<path d="M60.25 576.9C60.25 579.43 60.54 581.48 60.89 581.48C61.24 581.48 61.52 579.48 61.52 576.9C61.52 574.32 61.17 575.56 60.82 575.56C60.47 575.56 60.25 574.37 60.25 576.9Z" fill="#FFD037"/>
<path d="M56.76 579.92C58.98 581.13 60.91 581.86 61.08 581.56C61.25 581.26 59.58 580.02 57.36 578.81C55.14 577.6 56.02 578.48 55.85 578.81C55.68 579.14 54.53 578.72 56.76 579.92Z" fill="#FFD037"/>
<path d="M62 611.6C62 611.6 77.36 611.13 82 607.83C86.64 604.53 105.63 600.6 106.77 605.89C107.91 611.18 129.86 632.18 112.52 632.32C95.18 632.46 72.22 629.62 67.6 626.8C62.98 623.98 62 611.6 62 611.6Z" fill="#A8A8A8"/>
<path opacity="0.2" d="M112.82 630.48C95.48 630.62 72.52 627.78 67.9 624.96C64.39 622.82 62.98 615.13 62.51 611.58H62C62 611.58 63 623.97 67.59 626.78C72.18 629.59 95.17 632.44 112.51 632.3C117.51 632.3 119.24 630.48 119.15 627.84C118.45 629.45 116.54 630.45 112.82 630.48Z" fill="black"/>
</g>
<defs>
<linearGradient id="paint0_linear_460:295" x1="293.64" y1="764.83" x2="293.64" y2="9.3717e-05" gradientUnits="userSpaceOnUse">
<stop stop-color="#808080" stop-opacity="0.25"/>
<stop offset="0.54" stop-color="#808080" stop-opacity="0.12"/>
<stop offset="1" stop-color="#808080" stop-opacity="0.1"/>
</linearGradient>
<clipPath id="clip0_460:295">
<rect width="873.53" height="801.44" fill="white" transform="translate(-33)"/>
</clipPath>
</defs>
</svg>
