<svg width="99" height="50" viewBox="0 0 99 50" fill="none" xmlns="http://www.w3.org/2000/svg">
<path fill-rule="evenodd" clip-rule="evenodd" d="M49.3318 50C76.577 50 98.6635 38.8067 98.6635 25C98.6635 11.1933 76.577 0 49.3318 0C22.0871 0 0 11.1933 0 25C0 38.8067 22.0871 50 49.3318 50Z" fill="#6E81B6"/>
<path fill-rule="evenodd" clip-rule="evenodd" d="M59.3295 33.0809L61.7764 20.487C62.3288 17.6445 61.8695 15.5244 60.4122 14.1846C59.0002 12.8884 56.6033 12.2578 53.085 12.2578H48.8472L50.0594 6.01814C50.0821 5.90201 50.0788 5.78229 50.0498 5.66757C50.0208 5.55286 49.9667 5.44598 49.8915 5.35463C49.8163 5.26328 49.7218 5.18971 49.6148 5.1392C49.5078 5.08869 49.3909 5.0625 49.2726 5.0625H43.4236C43.0394 5.0625 42.7096 5.33511 42.6362 5.71212L40.0371 19.0821C39.8009 17.5777 39.2187 16.2844 38.2869 15.2172C36.5713 13.2534 33.8577 12.2578 30.2206 12.2578H18.8842C18.5 12.2578 18.1701 12.5305 18.0968 12.9069L12.8372 39.9702C12.7912 40.2059 12.8527 40.448 13.0054 40.633C13.1575 40.8185 13.3842 40.9253 13.6246 40.9253H19.5195C19.9036 40.9253 20.2335 40.6527 20.3069 40.2751L21.5793 33.7293H25.9674C28.27 33.7293 30.2051 33.48 31.7155 32.9884C33.2599 32.4862 34.6815 31.6343 35.9342 30.4615C36.9465 29.5316 37.7828 28.49 38.4265 27.3667L37.376 32.7737C37.3301 33.0093 37.3915 33.2527 37.5442 33.4364C37.6963 33.622 37.9236 33.7287 38.1634 33.7287H44.0124C44.3965 33.7287 44.7264 33.4561 44.7998 33.0797L47.6864 18.2243H51.6999C53.4101 18.2243 53.9112 18.5649 54.0478 18.7111C54.1713 18.8447 54.4278 19.3154 54.1397 20.799L51.8132 32.7731C51.7909 32.8892 51.7945 33.0088 51.8237 33.1233C51.853 33.2379 51.9071 33.3446 51.9823 33.4358C52.0575 33.527 52.1519 33.6005 52.2588 33.651C52.3657 33.7016 52.4824 33.7279 52.6006 33.7281H58.5426C58.7286 33.7285 58.9088 33.6641 59.0524 33.546C59.196 33.4279 59.294 33.2634 59.3295 33.0809ZM32.2124 22.675C31.845 24.5631 31.153 25.9094 30.1544 26.6772C29.1403 27.4592 27.5183 27.8553 25.3333 27.8553H22.7205L24.6097 18.1331H27.9878C30.4694 18.1331 31.4692 18.6634 31.8706 19.1078C32.4272 19.7246 32.5453 20.9588 32.2124 22.675ZM83.9667 15.2172C82.2517 13.2534 79.5381 12.2578 75.901 12.2578H64.5646C64.1798 12.2578 63.8506 12.5305 63.7772 12.9069L58.5182 39.9702C58.4717 40.2059 58.5331 40.448 58.6858 40.633C58.8385 40.8179 59.0658 40.9253 59.3044 40.9253H65.1999C65.5847 40.9253 65.914 40.6527 65.9873 40.2751L67.2597 33.7293H71.6484C73.9516 33.7293 75.8849 33.48 77.396 32.9884C78.941 32.4862 80.3625 31.6343 81.6146 30.4615C82.6597 29.5017 83.5193 28.4226 84.1707 27.2576C84.8221 26.0926 85.2892 24.7933 85.5618 23.3951C86.2317 19.9465 85.6955 17.1953 83.9667 15.2172ZM78.2275 22.675C77.8595 24.5631 77.1675 25.9094 76.1701 26.6772C75.1554 27.4592 73.5334 27.8553 71.3489 27.8553H68.7355L70.6241 18.1331H74.0029C76.4845 18.1331 77.4842 18.6634 77.8863 19.1078C78.4417 19.7246 78.5604 20.9588 78.2275 22.675Z" fill="white"/>
<path fill-rule="evenodd" clip-rule="evenodd" d="M27.8202 17.3301C30.0595 17.3301 31.5527 17.7435 32.2989 18.5703C33.0446 19.3971 33.2223 20.8168 32.8322 22.8277C32.4242 24.9222 31.6391 26.417 30.4759 27.313C29.3127 28.209 27.5422 28.6564 25.1656 28.6564H21.5793L23.7805 17.3301H27.8202ZM13.4563 40.1223H19.3512L20.7501 32.9276H25.7997C28.0278 32.9276 29.8609 32.6931 31.2997 32.2249C32.7386 31.7566 34.0467 30.9721 35.2237 29.8704C36.2116 28.963 37.0109 27.9609 37.6229 26.8656C38.2344 25.7704 38.6687 24.5624 38.9258 23.2411C39.5497 20.033 39.0791 17.5341 37.515 15.7446C35.9515 13.9544 33.4633 13.0596 30.053 13.0596H18.7165L13.4563 40.1223ZM43.2554 5.86426H49.1044L47.7061 13.0596H52.9174C56.1947 13.0596 58.4574 13.6311 59.7017 14.7746C60.9461 15.9181 61.3189 17.7716 60.8214 20.3337L58.3745 32.9276H52.4324L54.7589 20.9529C55.0232 19.5904 54.9265 18.6616 54.4666 18.1659C54.0067 17.6707 53.0278 17.4226 51.5317 17.4226H46.8572L43.8442 32.9276H37.9952L43.2554 5.86426ZM73.8353 17.3301C76.0747 17.3301 77.5672 17.7435 78.3141 18.5703C79.0598 19.3971 79.2369 20.8168 78.8468 22.8277C78.44 24.9222 77.6549 26.417 76.4911 27.313C75.3285 28.209 73.5574 28.6564 71.182 28.6564H67.5956L69.7962 17.3301H73.8353ZM59.4703 40.1223H65.3658L66.7641 32.9276H71.8137C74.0423 32.9276 75.8755 32.6931 77.3143 32.2249C78.7531 31.7566 80.0613 30.9721 81.2383 29.8704C82.2262 28.963 83.0255 27.9609 83.6369 26.8656C84.2484 25.7704 84.6833 24.5624 84.9409 23.2411C85.5643 20.033 85.0937 17.5341 83.5302 15.7446C81.9655 13.9544 79.4779 13.0596 76.0676 13.0596H64.7311L59.4703 40.1223Z" fill="black"/>
</svg>
