<svg width="70" height="50" viewBox="0 0 70 50" fill="none" xmlns="http://www.w3.org/2000/svg">
<path d="M68.9917 18.8751C68.8027 18.725 67.0385 17.393 63.3181 17.393C62.3357 17.3973 61.3554 17.4815 60.3867 17.645C59.6666 12.7095 55.5862 10.3032 55.4033 10.1953L54.4042 9.61914L53.7472 10.5673C52.9243 11.8409 52.3236 13.245 51.971 14.7197C51.3049 17.537 51.71 20.1832 53.1411 22.4455C51.4129 23.4085 48.6407 23.6456 48.0797 23.6665H2.18113C0.982276 23.6682 0.00946064 24.637 0.0029271 25.8358C-0.0506089 29.8567 0.630635 33.8537 2.01311 37.6299C3.59423 41.7764 5.9465 44.8306 9.00683 46.6998C12.4362 48.8 18.0077 50.0001 24.3233 50.0001C27.1764 50.0091 30.0242 49.7509 32.8292 49.2291C36.7285 48.5131 40.4806 47.1502 43.9303 45.1966C46.7728 43.5506 49.331 41.4565 51.5061 38.995C55.1424 34.8786 57.3087 30.2941 58.9198 26.2198H59.5618C63.5432 26.2198 65.9915 24.6266 67.3416 23.2915C68.2388 22.44 68.9393 21.4027 69.3938 20.2522L69.6789 19.4182L68.9917 18.8751Z" fill="#2496ED"/>
<path d="M6.43552 22.3223H12.5861C12.8828 22.3223 13.1231 22.0818 13.1231 21.7853V16.3066C13.1248 16.01 12.8857 15.7683 12.5891 15.7666C12.5882 15.7666 12.5871 15.7666 12.5861 15.7666H6.43552C6.13887 15.7666 5.8985 16.0071 5.8985 16.3036V16.3066V21.7852C5.8985 22.0818 6.13887 22.3223 6.43552 22.3223Z" fill="#2496ED"/>
<path d="M14.9114 22.3223H21.062C21.3587 22.3223 21.599 22.0818 21.599 21.7853V16.3066C21.6007 16.01 21.3616 15.7683 21.0649 15.7666C21.064 15.7666 21.0629 15.7666 21.0619 15.7666H14.9113C14.613 15.7666 14.3713 16.0083 14.3713 16.3066V21.7852C14.373 22.0823 14.6143 22.3223 14.9114 22.3223Z" fill="#2496ED"/>
<path d="M23.5162 22.3223H29.6668C29.9634 22.3223 30.2038 22.0818 30.2038 21.7853V16.3066C30.2054 16.01 29.9663 15.7683 29.6697 15.7666C29.6687 15.7666 29.6676 15.7666 29.6667 15.7666H23.5161C23.2194 15.7666 22.979 16.0071 22.979 16.3036V16.3066V21.7852C22.9791 22.0818 23.2196 22.3223 23.5162 22.3223Z" fill="#2496ED"/>
<path d="M32.019 22.3223H38.1696C38.4668 22.3223 38.708 22.0824 38.7097 21.7853V16.3066C38.7097 16.0083 38.4679 15.7666 38.1696 15.7666H32.019C31.7224 15.7666 31.482 16.0071 31.482 16.3036V16.3066V21.7852C31.482 22.0818 31.7225 22.3223 32.019 22.3223Z" fill="#2496ED"/>
<path d="M14.9114 14.4403H21.062C21.359 14.4387 21.599 14.1973 21.599 13.9003V8.42178C21.599 8.12514 21.3585 7.88477 21.062 7.88477H14.9114C14.6143 7.88477 14.373 8.12465 14.3713 8.42178V13.9003C14.373 14.1979 14.6138 14.4387 14.9114 14.4403Z" fill="#2496ED"/>
<path d="M23.5162 14.4403H29.6668C29.9638 14.4387 30.2038 14.1973 30.2038 13.9003V8.42178C30.2038 8.12514 29.9633 7.88477 29.6668 7.88477H23.5162C23.2195 7.88477 22.9791 8.12524 22.9791 8.42178V13.9003C22.9791 14.1973 23.2191 14.4387 23.5162 14.4403Z" fill="#2496ED"/>
<path d="M32.019 14.4403H38.1696C38.4672 14.4387 38.708 14.1979 38.7097 13.9003V8.42178C38.708 8.12465 38.4668 7.88477 38.1696 7.88477H32.019C31.7224 7.88477 31.482 8.12524 31.482 8.42178V13.9003C31.482 14.1973 31.722 14.4387 32.019 14.4403Z" fill="#2496ED"/>
<path d="M32.019 6.55568H38.1696C38.4668 6.55568 38.708 6.31569 38.7097 6.01866V0.537018C38.708 0.239888 38.4668 0 38.1696 0H32.019C31.7224 0 31.482 0.240376 31.482 0.537018V6.01856C31.482 6.3152 31.7225 6.55568 32.019 6.55568Z" fill="#2496ED"/>
<path d="M40.5969 22.3223H46.7475C47.0446 22.3223 47.2859 22.0824 47.2875 21.7853V16.3066C47.2875 16.0083 47.0458 15.7666 46.7475 15.7666H40.5969C40.3003 15.7666 40.0599 16.0071 40.0599 16.3036V16.3066V21.7852C40.0599 22.0818 40.3003 22.3223 40.5969 22.3223Z" fill="#2496ED"/>
</svg>
