<svg width="50" height="50" viewBox="0 0 50 50" fill="none" xmlns="http://www.w3.org/2000/svg">
<g clip-path="url(#clip0_1219_316)">
<path fill-rule="evenodd" clip-rule="evenodd" d="M0 0H50V50H0V0ZM13.1468 41.7837C14.2544 44.1328 16.4364 46.0793 20.195 46.0793C24.357 46.0793 27.2097 43.8641 27.2097 38.9975V22.9548H22.511V38.931C22.511 41.2802 21.5375 41.8842 19.9936 41.8842C18.3829 41.8842 17.7113 40.7768 16.9732 39.468L13.1468 41.7837ZM33.5878 39.065L29.762 41.2802C31.1379 43.9989 33.9572 46.0797 38.3204 46.0797C42.7842 46.0797 46.1069 43.764 46.1069 39.5348C46.1069 35.6081 43.8581 33.863 39.864 32.1512L38.6894 31.6478C36.6759 30.7751 35.8032 30.2044 35.8032 28.7947C35.8032 27.6537 36.6759 26.7811 38.052 26.7811C39.3944 26.7811 40.2668 27.3516 41.0724 28.7947L44.7308 26.4454C43.1871 23.7267 41.039 22.6862 38.0519 22.6862C33.8563 22.6862 31.1714 25.3714 31.1714 28.8955C31.1714 32.7217 33.4202 34.5341 36.8102 35.9771L37.9846 36.4809C40.1327 37.4203 41.408 37.991 41.408 39.602C41.408 40.9445 40.1665 41.9179 38.2196 41.9179C35.9039 41.9179 34.5949 40.7098 33.5878 39.065Z" fill="#F7DF1E"/>
</g>
<defs>
<clipPath id="clip0_1219_316">
<rect width="50" height="50" fill="white"/>
</clipPath>
</defs>
</svg>
