<svg width="45" height="100" viewBox="0 0 45 100" fill="none" xmlns="http://www.w3.org/2000/svg">
<path d="M22.1455 0.273438L24.8141 5.28556C25.414 6.21049 26.064 7.02918 26.8295 7.79163C29.074 10.0081 31.1661 12.3737 33.0916 14.8723C37.6131 20.8094 40.6629 27.4027 42.8409 34.5334C44.1471 38.8893 44.8564 43.3577 44.9095 47.8761C45.1282 61.3845 40.4973 72.9836 31.1605 82.6235C29.6417 84.1522 28.001 85.5547 26.2546 86.817C25.3296 86.817 24.8922 86.1077 24.511 85.4546C23.8167 84.2436 23.3547 82.9136 23.1486 81.533C22.8205 79.8987 22.6048 78.2645 22.7111 76.5771V75.8147C22.6361 75.6522 21.8205 0.657784 22.1455 0.273438Z" fill="#599636"/>
<path d="M22.1455 0.107501C22.0361 -0.111232 21.9268 0.0543804 21.8174 0.160623C21.8705 1.25429 21.4893 2.22922 20.8925 3.1604C20.2363 4.08533 19.3676 4.79466 18.4958 5.5571C13.6524 9.75054 9.84015 14.8158 6.78725 20.481C2.72504 28.1054 0.631444 36.2767 0.037737 44.8792C-0.234118 47.9821 1.01892 58.9313 1.99697 62.0904C4.66553 70.4773 9.45893 77.5049 15.6679 83.6045C17.1927 85.0731 18.8239 86.4355 20.5113 87.7448C21.0018 87.7448 21.055 87.3073 21.1675 86.9823C21.3825 86.287 21.5465 85.5768 21.658 84.8575L22.7517 76.6893L22.1455 0.107501Z" fill="#6CAC48"/>
<path d="M24.814 90.135C24.9234 88.885 25.5234 87.8476 26.1765 86.8133C25.5203 86.5415 25.0328 86.0009 24.6516 85.3978C24.3228 84.8268 24.0507 84.225 23.8391 83.6011C23.0767 81.3138 22.9142 78.914 22.6955 76.5766V75.1611C22.4236 75.3799 22.3673 77.2297 22.3673 77.5047C22.2083 79.9751 21.8805 82.4316 21.3862 84.8572C21.2237 85.8384 21.1143 86.8165 20.5112 87.6883C20.5112 87.7976 20.5112 87.907 20.5644 88.0695C21.5455 90.9568 21.8143 93.8972 21.9799 96.8938V97.9875C21.9799 99.2936 21.9268 99.0186 23.0111 99.4561C23.4485 99.6186 23.936 99.6748 24.3735 99.9998C24.7016 99.9998 24.7547 99.7279 24.7547 99.5092L24.5922 97.7125V92.7004C24.5391 91.8254 24.7016 90.9568 24.8109 90.1381L24.814 90.135Z" fill="#C2BFBF"/>
</svg>
