<svg width="53" height="50" viewBox="0 0 53 50" fill="none" xmlns="http://www.w3.org/2000/svg">
<g clip-path="url(#clip0_1218_287)">
<path fill-rule="evenodd" clip-rule="evenodd" d="M48.3984 0H4.10156C1.83633 0 0 1.74889 0 3.90625V46.0938C0 48.2511 1.83633 50 4.10156 50H48.3984C50.6637 50 52.5 48.2511 52.5 46.0938V3.90625C52.5 1.74889 50.6637 0 48.3984 0ZM30.868 44.5498V39.1553C31.8954 39.9758 33.0114 40.591 34.2163 41.0012C35.4209 41.4115 36.6372 41.6166 37.8654 41.6166C38.5859 41.6166 39.2148 41.5547 39.7521 41.4311C40.2894 41.3074 40.7384 41.1361 41.0985 40.917C41.4586 40.6979 41.7275 40.4393 41.9044 40.1416C42.0816 39.8438 42.1702 39.5205 42.1702 39.1723C42.1702 38.7002 42.0285 38.2787 41.7451 37.9078C41.4617 37.5369 41.0749 37.1941 40.5848 36.8795C40.0946 36.5648 39.513 36.2615 38.8397 35.9693C38.1667 35.677 37.4403 35.3793 36.6608 35.0758C34.6767 34.2891 33.1976 33.3281 32.2233 32.1932C31.2488 31.058 30.7617 29.6869 30.7617 28.0799C30.7617 26.8211 31.0275 25.7395 31.5589 24.8348C32.0904 23.9301 32.8137 23.1855 33.729 22.601C34.6443 22.0166 35.7043 21.5867 36.9089 21.3115C38.1136 21.0361 39.3889 20.8984 40.7353 20.8984C42.058 20.8984 43.2303 20.9742 44.2518 21.126C45.2733 21.2777 46.2152 21.5109 47.0773 21.8256V26.866C46.6522 26.5852 46.1885 26.3379 45.6867 26.1244C45.1847 25.9107 44.6681 25.7338 44.1367 25.5934C43.6051 25.4527 43.0767 25.3488 42.551 25.2814C42.0256 25.2141 41.5267 25.1803 41.0542 25.1803C40.4047 25.1803 39.8141 25.2393 39.2827 25.3572C38.7512 25.4754 38.3024 25.641 37.9364 25.8547C37.5703 26.0682 37.2867 26.3238 37.0859 26.6217C36.8851 26.9195 36.7849 27.2537 36.7849 27.6246C36.7849 28.0293 36.897 28.3916 37.1214 28.7119C37.3458 29.0322 37.6646 29.3357 38.0781 29.6223C38.4913 29.909 38.9934 30.1898 39.5838 30.4652C40.1744 30.7406 40.8415 31.0242 41.5855 31.3166C42.6013 31.7211 43.5137 32.151 44.3227 32.6061C45.1315 33.0613 45.8255 33.5754 46.4041 34.1486C46.9828 34.7217 47.4258 35.3764 47.7328 36.1125C48.0398 36.8486 48.1934 37.7057 48.1934 38.6834C48.1934 40.032 47.9247 41.1643 47.3874 42.0801C46.8499 42.9961 46.1206 43.7379 45.1994 44.3055C44.2784 44.8728 43.2065 45.2803 41.9842 45.5275C40.7619 45.7748 39.4716 45.8984 38.1136 45.8984C36.7199 45.8984 35.3942 45.7861 34.1365 45.5613C32.8787 45.3365 31.7892 44.9994 30.868 44.5498ZM28.7109 25.7309H21.427V45.5078H15.6566V25.7309H8.4082V21.2891H28.7109V25.7309Z" fill="#3178C6"/>
</g>
<defs>
<clipPath id="clip0_1218_287">
<rect width="52.5" height="50" fill="white"/>
</clipPath>
</defs>
</svg>
